<svg xmlns="http://www.w3.org/2000/svg">
<defs>
<font id="GretaArabic-Medium" horiz-adv-x="0" >
  <font-face 
    font-family="Greta Arabic"
    font-weight="500"
    font-stretch="normal"
    units-per-em="1000"
    panose-1="0 0 0 0 0 0 0 0 0 0"
    ascent="710"
    descent="-290"
    x-height="455"
    cap-height="583"
    bbox="-129 -577 1272 1406"
    underline-thickness="50"
    underline-position="-150"
    unicode-range="U+001D-FEFC"
  />
<missing-glyph horiz-adv-x="1200" 
d="M141 848h918q59 0 106 -50q20 -26 26 -45q9 -25 9 -52v-905q0 -76 -62 -122q-37 -26 -86 -26h-905q-77 0 -124 66q-23 39 -23 75v918q0 60 51 108q43 33 90 33zM14 694v-892q0 -64 39 -101q40 -38 91 -38h912q58 0 100 48q29 37 29 81v912q0 59 -50 101q-34 29 -89 29
h-892q-92 0 -130 -82q-10 -23 -10 -58zM291 654h75q20 0 49 -68q135 -277 137 -283h1v259q0 58 58 79q24 8 46 8h82l4 -1q39 0 79 -16q73 -36 104 -116q22 -61 22 -131v-11q0 -87 -35 -157q-39 -71 -107 -94q-28 -11 -89 -11h-62h-363q-4 3 -40 44h368q76 0 92 6q24 3 58 31
q29 26 35 46q18 49 18 138q0 105 -23 156q-25 45 -81 64q-20 6 -40 6h-18q-8 -16 -8 -37v-331q0 -31 -24 -45q-10 -4 -20 -4h-81q-20 0 -47 63q-137 279 -140 284v0v-347h-90v417q0 39 28 49q6 2 12 2zM210 -55q0 -4 -1 -8l-14 -80h-16l14 81q1 4 0 6q0 8 -4 13t-13 5
t-17.5 -5t-16 -14t-13.5 -22.5t-9 -31.5l-6 -32h-16l21 116h13l-5 -35v0q4 6 8.5 13t11 12t14.5 8.5t18 3.5q6 0 12 -2t10 -5.5t6.5 -9.5t2.5 -13zM315 -30l-52 -67q-8 -9 -14 -16.5t-13 -15.5l1 -1h65l-2 -13h-90l1 3l52 66q6 8 13.5 17t13.5 17h-1h-56l2 13h81zM410 -143
h-14l5 35v0q-8 -17 -21 -27t-29 -10q-7 0 -13.5 2.5t-11 7t-7.5 11.5t-3 15q0 19 7.5 34t19 26t26.5 17t31 6q19 0 30 -2zM399 -40q-13 0 -25 -5t-21 -14.5t-14.5 -21.5t-5.5 -27q0 -11 5.5 -17t15.5 -6q7 0 15 4t16 12.5t13.5 21t8.5 28.5l4 24q-4 1 -12 1zM509 -39
q-9 0 -17.5 -6t-16.5 -16t-14 -24t-9 -30l-5 -28h-16l20 116h14l-6 -41v0q3 7 7.5 14.5t11 13.5t14.5 10t17 4l4 -13h-4zM609 -143h-14l6 35h-1q-7 -17 -21 -27t-30 -10q-8 0 -14 2.5t-11 7.5t-8 12.5t-3 16.5q0 18 7 32.5t18.5 25t26.5 16.5t31 6q11 0 17 -1l12 66h16z

<glyph glyph-name="uniFB01" unicode="fi" horiz-adv-x="612" 
d="M29 0v42l71 23v322h-81v50l81 19v38q0 89 66.5 152.5t167.5 63.5q72 0 130 -26l-18 -104h-25l-140 66q-61 -37 -61 -115v-76h185l68 10h51v-397l74 -25v-43h-256v42l62 23v322h-184v-319l71 -25v-43h-262z" />
    <glyph glyph-name="uniFB02" unicode="fl" horiz-adv-x="609" 
d="M339 0v42l65 24v529l-122 49q-62 -37 -62 -114v-75h102v-68h-102v-319l71 -25v-43h-262v42l71 23v322h-81v50l81 19v47q0 83 67 144t172 61q43 0 96 -14l30 9h60v-633l74 -27v-43h-260z" />
    <glyph glyph-name="uniFB03" unicode="ffi" horiz-adv-x="922" 
d="M410 494q0 51 23 95q-74 48 -134 59q-36 -15 -57.5 -47t-21.5 -71v-75h190v39zM29 0v42l71 23v322h-81v50l81 19v38q0 84 70 149.5t184 65.5q76 0 146 -43q64 44 144 44q71 0 129 -26l-17 -104h-25l-140 66q-61 -36 -61 -115v-76h185l67 10h52v-397l73 -25v-43h-255v42
l61 23v322h-183v-319l70 -25v-43h-261v42l71 23v322h-190v-319l75 -25v-43h-266z" />
    <glyph glyph-name="uniFB04" unicode="ffl" horiz-adv-x="914" 
d="M220 530v-75h189v48q0 46 23 87q-71 46 -133 58q-36 -15 -57.5 -47t-21.5 -71zM338 0v42l71 23v322h-189v-319l75 -25v-43h-266v42l71 23v322h-81v50l81 19v38q0 84 70 149.5t184 65.5q78 0 147 -44q62 43 147 43q46 0 94 -13l28 8h60v-633l74 -27v-43h-260v42l65 24v531
l-118 47q-62 -37 -62 -114v-75h102v-68h-102v-319l71 -25v-43h-262z" />
    <glyph glyph-name="uniFCCC" unicode="&#xfedf;&#xfee4;" horiz-adv-x="316" arabic-form="initial" 
d="M242 -61l-72 44q-21 11 -43.5 14t-93.5 3h-33l-16 3v122l16 3h13q84 0 132 -28q-58 93 -59 126q0 12 -2 67.5t-4 129t-3 114.5l-27 70l113 108l22 -15v-54l51 -99l-51 -55v-316q21 -21 53 -48t53 -44l21 -16l1 -8z" />
    <glyph glyph-name="uniFEF5" unicode="&#xfedf;&#xfe82;" horiz-adv-x="574" arabic-form="isolated" 
d="M275 672q-55 -17 -137 -17q-51 0 -92 11l-32 -54l-23 9q11 50 23 76q3 5 30 34t33 29t38 -1.5t52 -1.5q79 0 144 9l6 -9zM283 0q-139 0 -171 8l-4 7l25 126q82 47 175 129l-171 130l-42 -16l-71 56l33 151l20 7q213 -172 292 -255q15 36 15 76v108l-32 83l108 105l30 -18
v-56l49 -97l-52 -53v-6q-3 -121 -67 -197q74 -88 74 -137q0 -22 -31 -76t-45 -61q-32 -14 -135 -14zM194 120h114q105 0 128 10q-22 46 -78 98q-66 -55 -164 -108z" />
    <glyph glyph-name="uniFEF6" unicode="&#xfee0;&#xfe82;" horiz-adv-x="591" arabic-form="final" 
d="M267 664q-55 -17 -137 -17q-51 0 -92 11l-32 -54l-22 9q11 50 23 76q3 5 30 33.5t33 28.5t37.5 -1.5t51.5 -1.5q72 0 144 10l6 -10zM591 0q-75 0 -117 44.5t-52 110.5q-38 -87 -41 -89q-15 -18 -77 -42t-109 -24q-21 0 -64.5 19.5t-76.5 38.5l-34 20l8 36q151 0 259 28
q-30 146 -134 247l-44 -14l-68 59l47 156h21q49 -49 78.5 -80.5t64.5 -76t56 -87.5t30 -89l-25 -108q58 19 92 42l-13 451l84 73h27v-478q0 -39 1 -54t9.5 -31t26 -20t51.5 -4l16 -3v-122z" />
    <glyph glyph-name="uniFEF7" unicode="&#xfedf;&#xfe84;" horiz-adv-x="574" arabic-form="isolated" 
d="M211 666q-10 -5 -61 -18t-62 -13q-6 0 -26 14.5t-38 29.5l-17 15l5 22q49 0 60 2v1q-18 10 -18 43q0 39 26.5 76t67.5 37q26 0 42 -24.5t19 -49.5l3 -25l-19 -5q-12 20 -39 20q-31 0 -67 -23q6 -16 23 -27t39 -11q38 0 88 19l5 -7zM283 0q-139 0 -171 8l-5 7l25 126
q87 50 175 129l-171 130l-42 -16l-70 56l32 151l21 7q213 -172 292 -255q15 36 15 76v108l-32 83l108 105l30 -18v-56l49 -97l-52 -53v-6q-4 -121 -68 -197q75 -89 75 -137q0 -22 -31 -76t-45 -61q-32 -14 -135 -14zM194 120h113q105 0 129 10q-20 42 -78 98
q-66 -54 -164 -108z" />
    <glyph glyph-name="uniFEF8" unicode="&#xfee0;&#xfe84;" horiz-adv-x="591" arabic-form="final" 
d="M193 667q-10 -5 -61 -18t-62 -13q-6 0 -26 15t-38 29l-17 15l5 22q49 0 60 2v1q-18 10 -18 43q0 39 26.5 76t67.5 37q26 0 42 -25t19 -49l3 -25l-19 -5q-12 20 -39 20q-31 0 -67 -23q6 -16 23 -27t39 -11q38 0 88 19l5 -7zM591 0q-75 0 -117 44.5t-52 110.5
q-38 -87 -41 -89q-15 -18 -77 -42t-109 -24q-21 0 -64.5 19.5t-76.5 38.5l-34 20l8 36q151 0 259 28q-30 146 -134 247l-44 -14l-68 59l47 156h21q49 -49 78.5 -80.5t64.5 -76t56 -87.5t30 -89l-25 -108q58 19 92 42l-13 451l84 73h27v-478q0 -39 1 -54t9.5 -31t26 -20
t51.5 -4l16 -3v-122z" />
    <glyph glyph-name="uniFEF9" unicode="&#xfedf;&#xfe88;" horiz-adv-x="574" arabic-form="isolated" 
d="M283 0q-139 0 -171 8l-5 7l25 126q87 50 175 129l-171 130l-42 -16l-70 56l32 151l21 7q213 -172 292 -255q15 36 15 76v108l-32 83l108 105l30 -18v-56l49 -97l-52 -53v-6q-4 -121 -68 -197q75 -89 75 -137q0 -22 -31 -76t-45 -61q-32 -14 -135 -14zM194 120h113
q105 0 129 10q-20 42 -78 98q-66 -54 -164 -108zM262 -267q-10 -5 -61 -18t-62 -13q-6 0 -26 15t-37 29l-18 15l5 22q49 0 60 2v1q-18 10 -18 43q0 39 26.5 76t67.5 37q26 0 42 -24.5t19 -49.5l3 -25l-19 -5q-12 20 -39 20q-31 0 -67 -23q6 -16 23 -27t39 -11q38 0 88 19
l5 -7z" />
    <glyph glyph-name="uniFEFA" unicode="&#xfee0;&#xfe88;" horiz-adv-x="591" arabic-form="final" 
d="M591 0q-75 0 -117 44.5t-52 110.5q-38 -87 -41 -89q-15 -18 -77 -42t-109 -24q-21 0 -64.5 19.5t-76.5 38.5l-34 20l8 36q151 0 259 28q-30 146 -134 247l-44 -14l-68 59l47 156h21q49 -49 78.5 -80.5t64.5 -76t56 -87.5t30 -89l-25 -108q58 19 92 42l-13 451l84 73h27
v-478q0 -39 1 -54t9.5 -31t26 -20t51.5 -4l16 -3v-122zM346 -260q-10 -5 -61 -18t-62 -13q-6 0 -26 14.5t-37 29.5l-18 15l5 22q49 0 60 2v1q-18 10 -18 43q0 39 26.5 76t67.5 37q26 0 42 -24.5t19 -49.5l3 -25l-19 -5q-12 20 -39 20q-31 0 -67 -23q6 -16 23 -27t39 -11
q38 0 88 19l5 -7z" />
    <glyph glyph-name="uniFEFB" unicode="&#xfedf;&#xfe8e;" horiz-adv-x="574" arabic-form="isolated" 
d="M283 0q-139 0 -171 8l-5 7l25 126q87 50 175 129l-171 130l-42 -16l-70 56l32 151l21 7q213 -172 292 -255q15 36 15 76v108l-32 83l108 105l30 -18v-56l49 -97l-52 -53v-6q-4 -121 -68 -197q75 -89 75 -137q0 -22 -31 -76t-45 -61q-32 -14 -135 -14zM194 120h113
q105 0 129 10q-20 42 -78 98q-66 -54 -164 -108z" />
    <glyph glyph-name="uniFEFC" unicode="&#xfee0;&#xfe8e;" horiz-adv-x="591" arabic-form="final" 
d="M591 0q-75 0 -117 44.5t-52 110.5q-38 -87 -41 -89q-15 -18 -77 -42t-109 -24q-21 0 -64.5 19.5t-76.5 38.5l-34 20l8 36q151 0 259 28q-30 146 -134 247l-44 -14l-68 59l47 156h21q49 -49 78.5 -80.5t64.5 -76t56 -87.5t30 -89l-25 -108q58 19 92 42l-13 451l84 73h27
v-478q0 -39 1 -54t9.5 -31t26 -20t51.5 -4l16 -3v-122z" />
    <glyph glyph-name="aBeh.medi_aNun.fina" unicode="&#xfe92;&#xfee6;" horiz-adv-x="849" 
d="M300 334q-19 14 -37 32t-27 30l-8 11q36 43 72 74q51 -43 73 -74q-12 -19 -30.5 -37t-30.5 -27zM242 -203q-61 0 -105 16t-66.5 43.5t-32.5 57.5t-10 66q0 49 20 106.5t40 89.5l21 33l32 -16q-35 -82 -35 -136q0 -131 162 -131q44 0 98 11.5t88 27.5q-12 55 -30 126
t-30 114l-13 43l91 96h26q1 -5 5 -33.5t5 -35.5q4 -18 12.5 -25t35.5 -7q88 0 134 48l60 69h21v-148q0 -63 6 -73.5t50 -10.5h22l16 -3v-122l-16 -3h-22q-61 0 -97 37t-46 98q-1 8 -4 32.5t-4 36.5q-22 -30 -34.5 -44t-37 -28t-53.5 -14h-24q3 -63 3 -109q-1 -21 -33 -79.5
t-44 -69.5q-26 -26 -88.5 -44.5t-122.5 -18.5zM693 -200q-20 14 -38 32t-26 30l-8 11q35 43 72 74q50 -43 73 -74q-13 -19 -31 -37t-30 -27z" />
    <glyph glyph-name="aBeh.medi_aReh.fina" unicode="&#xfe92;&#xfeae;" horiz-adv-x="637" 
d="M480 -200q-19 14 -37 32t-27 30l-8 11q36 43 72 74q51 -43 73 -74q-12 -19 -30.5 -37t-30.5 -27zM123 -203q-19 0 -91.5 42t-86.5 56l16 37q54 -13 91 -13q66 0 120.5 49.5t84.5 116.5l-96 180l74 106h21l26 -83q8 -19 18.5 -24.5t43.5 -5.5q87 0 133 49l60 69h21v-164
q0 -63 6.5 -73.5t50.5 -10.5h22l16 -3v-122l-16 -3h-22q-60 0 -97 37.5t-46 97.5q0 4 -9 83q-23 -31 -35 -44.5t-36 -27.5t-53 -14h-26q-2 -67 -4 -106q-3 -36 -28 -88t-69 -96.5t-89 -44.5z" />
    <glyph glyph-name="aDad.init_aAlifMaksura.fina" unicode="&#xfebf;&#xfef0;" horiz-adv-x="1223" 
d="M986 527q-20 14 -38 32.5t-26 29.5l-8 11q36 44 72 74q51 -42 73 -74q-12 -18 -30.5 -36.5t-30.5 -27.5zM856 128h21q162 3 252 43q-24 52 -69.5 89.5t-90.5 37.5q-50 0 -112.5 -43t-122.5 -119q31 -8 95 -8h27zM256 -235q-64 0 -110.5 16t-71 43.5t-35.5 58.5t-11 66
q0 49 20.5 108t41.5 93l20 34l33 -17q-37 -79 -37 -131q0 -140 169 -140q76 0 152.5 16.5t115.5 37.5q-8 21 -36 34t-77 24q-24 5 -36 8t-35.5 11t-37.5 15.5t-28.5 21t-21.5 29.5q-11 22 -11.5 75t6.5 67q26 61 112.5 101t159.5 40q51 0 67.5 -20t34.5 -86q24 -88 50 -112
q63 114 145 193t167 79q50 0 95.5 -40.5t69 -90t23.5 -85.5q0 -28 -26.5 -80.5t-46.5 -73.5q-19 -19 -96.5 -39.5t-178.5 -20.5h-27q-56 0 -98 14t-67.5 35t-43.5 57.5t-27 68t-18 80.5q-167 -4 -254 -76q9 -10 27 -18.5t31 -12.5t45.5 -11.5t43.5 -10.5q146 -38 146 -143
q0 -18 -18.5 -71t-25.5 -59q-31 -27 -113.5 -57.5t-186.5 -30.5z" />
    <glyph glyph-name="aDad.init_aYeh.fina" unicode="&#xfebf;&#xfef2;" horiz-adv-x="1223" 
d="M986 527q-19 14 -37 32.5t-27 29.5l-8 11q36 44 72 74q51 -42 73 -74q-12 -18 -30.5 -36.5t-30.5 -27.5zM856 128h21q162 3 252 43q-24 52 -69.5 89.5t-90.5 37.5q-50 0 -112.5 -43t-122.5 -119q31 -8 95 -8h27zM256 -235q-64 0 -110.5 16t-71 43.5t-35.5 58.5t-11 66
q0 49 20.5 108t41.5 93l20 34l33 -17q-37 -79 -37 -131q0 -140 169 -140q76 0 152.5 16.5t115.5 37.5q-8 21 -36 34t-77 24q-24 5 -36 8t-35.5 11t-37.5 15.5t-28.5 21t-21.5 29.5q-11 22 -11.5 75t6.5 67q26 61 112.5 101t159.5 40q51 0 67.5 -20t34.5 -86q24 -88 50 -112
q63 114 145 193t167 79q50 0 95.5 -40.5t69 -90t23.5 -85.5q0 -28 -26.5 -80.5t-46.5 -73.5q-19 -19 -96.5 -39.5t-178.5 -20.5h-27q-56 0 -98 14t-67.5 35t-43.5 57.5t-27 68t-18 80.5q-167 -4 -254 -76q9 -10 27 -18.5t31 -12.5t45.5 -11.5t43.5 -10.5q146 -38 146 -143
q0 -18 -18.5 -71t-25.5 -59q-31 -27 -113.5 -57.5t-186.5 -30.5zM431 -361q-12 -18 -30.5 -36.5t-30.5 -27.5l-12 -9q-30 22 -62 60q-12 -16 -28 -31t-26 -22l-10 -7q-19 14 -37 32.5t-26 29.5l-8 11q35 43 71 73q51 -42 64 -62q32 37 62 62q52 -42 73 -73z" />
    <glyph glyph-name="aDad.init_aYehHamza.fina" unicode="&#xfebf;&#xfe8a;" horiz-adv-x="1230" 
d="M993 527q-20 14 -38 32.5t-26 29.5l-8 11q36 44 72 74q51 -42 73 -74q-12 -18 -30.5 -36.5t-30.5 -27.5zM218 305q-10 -5 -61 -18t-62 -13q-6 0 -26 15t-37 29l-18 15l5 22q49 0 60 2v1q-18 10 -18 43q0 39 26.5 76t67.5 37q26 0 42 -25t19 -49l3 -25l-19 -5
q-12 20 -39 20q-31 0 -67 -23q6 -16 23 -27t39 -11q38 0 88 19l5 -7zM836 128h48q162 3 252 43q-24 52 -69.5 89.5t-90.5 37.5q-50 0 -112.5 -43t-122.5 -119q31 -8 95 -8zM263 -235q-64 0 -110.5 16t-71 43.5t-35.5 58.5t-11 66q0 49 20.5 108t40.5 93l21 34l33 -17
q-37 -79 -37 -131q0 -140 169 -140q76 0 152.5 16.5t115.5 37.5q-8 21 -36 34t-77 24q-24 5 -36 8t-35.5 11t-37.5 15.5t-28.5 21t-21.5 29.5q-11 22 -11.5 75t6.5 67q26 61 112.5 101t159.5 40q51 0 67.5 -20t34.5 -86q24 -88 50 -112q63 114 145 193t167 79
q50 0 95.5 -40.5t69 -90t23.5 -85.5q0 -28 -26.5 -80.5t-46.5 -73.5q-19 -19 -96.5 -39.5t-178.5 -20.5h-27q-56 0 -98 14t-67.5 35t-43.5 57.5t-27 68t-18 80.5q-167 -4 -254 -76q9 -10 27 -18.5t31 -12.5t45.5 -11.5t43.5 -10.5q146 -38 146 -143q0 -18 -18.5 -71
t-25.5 -59q-31 -27 -113.5 -57.5t-186.5 -30.5z" />
    <glyph glyph-name="aDad.medi_aAlifMaksura.fina" unicode="&#xfec0;&#xfef0;" horiz-adv-x="1248" 
d="M983 527q-20 14 -38 32.5t-26 29.5l-8 11q36 44 72 74q51 -42 73 -74q-12 -18 -30.5 -36.5t-30.5 -27.5zM856 128h21q162 3 252 43q-24 52 -69.5 89.5t-90.5 37.5q-50 0 -112.5 -43t-122.5 -119q31 -8 95 -8h27zM256 -235q-64 0 -110.5 16t-71 43.5t-35.5 58.5t-11 66
q0 49 20.5 108t41.5 93l20 34l33 -17q-37 -79 -37 -131q0 -140 169 -140q76 0 152.5 16.5t115.5 37.5q-8 21 -36 34t-77 24q-24 5 -36 8t-35.5 11t-37.5 15.5t-28.5 21t-21.5 29.5q-11 22 -11.5 75t6.5 67q26 61 112.5 101t159.5 40q51 0 67.5 -20t34.5 -86q24 -88 50 -112
q63 114 145 193t167 79q50 0 95.5 -40.5t69 -90t23.5 -85.5q0 -28 -30 -86h88l16 -3v-122l-16 -3h-57q-43 0 -87 51q-33 -19 -103.5 -35t-158.5 -16h-27q-56 0 -98 14t-67.5 35t-43.5 57.5t-27 68t-18 80.5q-167 -4 -254 -76q9 -10 27 -18.5t31 -12.5t45.5 -11.5t43.5 -10.5
q146 -38 146 -143q0 -18 -18.5 -71t-25.5 -59q-31 -27 -113.5 -57.5t-186.5 -30.5z" />
    <glyph glyph-name="aDad.medi_aYeh.fina" unicode="&#xfec0;&#xfef2;" horiz-adv-x="1248" 
d="M983 527q-20 14 -38 32.5t-26 29.5l-8 11q36 44 72 74q51 -42 73 -74q-13 -18 -31 -36.5t-30 -27.5zM856 128h21q162 3 252 43q-24 52 -69.5 89.5t-90.5 37.5q-50 0 -112.5 -43t-122.5 -119q31 -8 95 -8h27zM256 -235q-64 0 -110.5 16t-71 43.5t-35.5 58.5t-11 66
q0 49 20.5 108t41.5 93l20 34l33 -17q-37 -79 -37 -131q0 -140 169 -140q76 0 152.5 16.5t115.5 37.5q-8 21 -36 34t-77 24q-24 5 -36 8t-35.5 11t-37.5 15.5t-28.5 21t-21.5 29.5q-11 22 -11.5 75t6.5 67q26 61 112.5 101t159.5 40q51 0 67.5 -20t34.5 -86q24 -88 50 -112
q63 114 145 193t167 79q50 0 95.5 -40.5t69 -90t23.5 -85.5q0 -28 -30 -86h88l16 -3v-122l-16 -3h-57q-43 0 -87 51q-33 -19 -103.5 -35t-158.5 -16h-27q-56 0 -98 14t-67.5 35t-43.5 57.5t-27 68t-18 80.5q-167 -4 -254 -76q9 -10 27 -18.5t31 -12.5t45.5 -11.5t43.5 -10.5
q146 -38 146 -143q0 -18 -18.5 -71t-25.5 -59q-31 -27 -113.5 -57.5t-186.5 -30.5zM428 -361q-12 -18 -30.5 -36.5t-30.5 -27.5l-12 -9q-31 22 -63 60q-12 -16 -28 -31t-26 -22l-9 -7q-20 14 -38 32.5t-26 29.5l-8 11q36 43 72 73q51 -42 64 -62q35 40 62 62q51 -42 73 -73z
" />
    <glyph glyph-name="aDad.medi_aYehHamza.fina" unicode="&#xfec0;&#xfe8a;" horiz-adv-x="1255" 
d="M993 527q-20 14 -38 32.5t-26 29.5l-8 11q36 44 72 74q51 -42 73 -74q-13 -18 -31 -36.5t-30 -27.5zM218 305q-10 -5 -61 -18t-62 -13q-6 0 -26 15t-37 29l-18 15l5 22q49 0 60 2v1q-18 10 -18 43q0 39 26.5 76t67.5 37q26 0 42 -25t19 -49l3 -25l-19 -5q-12 20 -39 20
q-31 0 -67 -23q6 -16 23 -27t39 -11q38 0 88 19l5 -7zM863 128h20q163 3 253 43q-24 52 -69.5 89.5t-90.5 37.5q-50 0 -112.5 -43t-123.5 -119q32 -8 96 -8h27zM262 -235q-121 0 -174.5 53.5t-53.5 130.5q0 49 21 108t41 93l21 34l32 -17q-36 -79 -36 -131q0 -140 169 -140
q75 0 151.5 16.5t116.5 37.5q-8 21 -36 34t-78 24q-40 9 -62 15t-54 25t-43 45q-10 22 -11 75t6 67q27 61 113.5 101t159.5 40q51 0 67.5 -20t34.5 -86q24 -88 50 -112q62 114 144 193t167 79q51 0 96 -40.5t68.5 -90t23.5 -85.5q0 -30 -29 -86h88l16 -3v-122l-16 -3h-57
q-43 0 -87 51q-33 -19 -103.5 -35t-158.5 -16h-27q-56 0 -98 14t-67.5 35t-43.5 57.5t-27 68t-18 80.5q-166 -4 -255 -76q7 -8 18.5 -14.5t27.5 -12t29 -9t36 -9t36 -8.5q146 -38 146 -143q0 -18 -18.5 -71t-25.5 -59q-29 -27 -112 -57.5t-188 -30.5z" />
    <glyph glyph-name="aFeh.init_aYeh.fina" unicode="&#xfed3;&#xfef2;" horiz-adv-x="737" 
d="M541 609q-19 14 -37 32t-26 29l-9 11q36 44 72 74q51 -42 73 -74q-12 -18 -30.5 -36t-30.5 -27zM512 285q52 0 99 13q-17 50 -42.5 82t-56.5 32q-29 0 -56.5 -31t-40.5 -75q46 -21 97 -21zM248 -240q-115 0 -167.5 55.5t-52.5 131.5q0 49 20.5 107t41.5 91l20 33l33 -17
q-37 -75 -37 -127q0 -17 2.5 -33t12.5 -36t26.5 -34.5t47.5 -24.5t72 -10q76 0 153 18t120 40q-25 46 -118 46h-47l-4 8l37 110l8 5h69q90 0 142 8q5 20 5 38q0 39 -9 81l-26 -55q-9 -6 -37.5 -12t-56.5 -6q-61 0 -95 34q-9 9 -23 55t-13 59q2 37 21.5 84t59 86.5t86.5 39.5
q69 0 114.5 -99t45.5 -221q0 -36 -6 -60q-7 -28 -39.5 -78.5t-39.5 -52.5q-13 -7 -28 -10q5 -12 5 -29q0 -21 -20 -77.5t-29 -63.5q-35 -26 -115 -55t-179 -29zM424 -378q-12 -18 -30.5 -36.5t-30.5 -27.5l-12 -9q-33 25 -62 61q-12 -16 -28 -31t-25 -23l-10 -7
q-20 14 -38 32.5t-26 29.5l-8 11q35 43 72 74q51 -42 64 -62q31 36 61 62q52 -42 73 -74z" />
    <glyph glyph-name="aKaf.init_aAlifMaksura.fina" unicode="&#xfedb;&#xfef0;" horiz-adv-x="921" 
d="M248 -240q-115 0 -167.5 54t-52.5 130q0 49 20.5 107.5t41.5 92.5l20 34l33 -17q-37 -79 -37 -130q0 -135 161 -135q74 0 149.5 16.5t119.5 39.5q-39 48 -131 48h-32l-3 7l34 116l7 5h192q140 0 193 9q-46 70 -199 161l-16 -17l-91 59q-7 5 17 79t35 78l341 198l15 -14
l-25 -118l-267 -131q130 -70 192.5 -139.5t62.5 -120.5q0 -15 -30 -76t-43 -71q-32 -25 -197 -25l-1 1q0 -3 0.5 -8.5t0.5 -7.5q0 -21 -20 -77.5t-29 -63.5q-35 -26 -115 -55t-179 -29z" />
    <glyph glyph-name="aKaf.init_aYeh.fina" unicode="&#xfedb;&#xfef2;" horiz-adv-x="921" 
d="M248 -240q-115 0 -167.5 54t-52.5 130q0 49 20.5 107.5t41.5 92.5l20 34l33 -17q-37 -79 -37 -130q0 -135 161 -135q74 0 149.5 16.5t119.5 39.5q-39 48 -131 48h-32l-3 7l34 116l7 5h192q140 0 193 9q-46 70 -199 161l-16 -17l-91 59q-7 5 17 79t35 78l341 198l15 -14
l-25 -118l-267 -131q130 -70 192.5 -139.5t62.5 -120.5q0 -15 -30 -76t-43 -71q-32 -25 -197 -25l-1 1q0 -3 0.5 -8.5t0.5 -7.5q0 -21 -20 -77.5t-29 -63.5q-35 -26 -115 -55t-179 -29zM426 -377q-12 -19 -30.5 -37t-30.5 -27l-12 -9q-36 27 -62 60q-12 -16 -28 -31t-26 -22
l-10 -7q-20 14 -38 32t-26 30l-8 11q36 43 72 73q51 -42 64 -62q32 36 62 62q51 -42 73 -73z" />
    <glyph glyph-name="aKaf.init_aYehHamza.fina" unicode="&#xfedb;&#xfe8a;" horiz-adv-x="921" 
d="M218 299q-10 -5 -61 -18t-62 -13q-6 0 -26 15t-37 29l-18 15l5 22q49 0 60 2v1q-18 10 -18 43q0 39 26.5 76t67.5 37q26 0 42 -25t19 -49l3 -25l-19 -5q-12 20 -39 20q-31 0 -67 -23q6 -16 23 -27t39 -11q38 0 88 19l5 -7zM248 -240q-115 0 -167.5 54t-52.5 130
q0 49 20.5 107.5t41.5 92.5l20 34l33 -17q-37 -79 -37 -130q0 -135 161 -135q74 0 149.5 16.5t119.5 39.5q-39 48 -131 48h-32l-3 7l34 116l7 5h192q140 0 193 9q-46 70 -199 161l-16 -17l-91 59q-7 5 17 79t35 78l341 198l15 -14l-25 -118l-267 -131q130 -70 192.5 -139.5
t62.5 -120.5q0 -15 -30 -76t-43 -71q-32 -25 -197 -25l-1 1q0 -3 0.5 -8.5t0.5 -7.5q0 -21 -20 -77.5t-29 -63.5q-35 -26 -115 -55t-179 -29z" />
    <glyph glyph-name="aKaf.medi_aAlifMaksura.fina" unicode="&#xfedc;&#xfef0;" horiz-adv-x="958" 
d="M248 -240q-115 0 -167.5 54t-52.5 130q0 49 20.5 107.5t41.5 92.5l20 34l33 -17q-37 -79 -37 -130q0 -135 161 -135q74 0 149.5 16.5t119.5 39.5q-39 48 -131 48h-33l-4 7l35 116l8 5h164q70 0 91 6q-4 42 -52 128q-46 78 -59 105q-4 7 21 71.5t32 66.5l331 192l13 -10
l-23 -115l-274 -136l96 -164q51 -88 90.5 -116t116.5 -28l16 -3v-122l-16 -3h-19q-77 0 -122 30.5t-90 109.5q-65 -118 -79 -124q-22 -10 -59 -13q2 -12 2 -18q0 -21 -20 -77.5t-29 -63.5q-35 -26 -115 -55t-179 -29z" />
    <glyph glyph-name="aKaf.medi_aYeh.fina" unicode="&#xfedc;&#xfef2;" horiz-adv-x="958" 
d="M248 -240q-115 0 -167.5 54t-52.5 130q0 49 20.5 107.5t41.5 92.5l20 34l33 -17q-37 -79 -37 -130q0 -135 161 -135q74 0 149.5 16.5t119.5 39.5q-39 48 -131 48h-33l-4 7l35 116l8 5h164q70 0 91 6q-4 42 -52 128q-46 78 -59 105q-4 7 21 71.5t32 66.5l331 192l13 -10
l-23 -115l-274 -136l96 -164q51 -88 90.5 -116t116.5 -28l16 -3v-122l-16 -3h-19q-77 0 -122 30.5t-90 109.5q-65 -118 -79 -124q-22 -10 -59 -13q2 -12 2 -18q0 -21 -20 -77.5t-29 -63.5q-35 -26 -115 -55t-179 -29zM426 -377q-12 -19 -30.5 -37t-30.5 -27l-12 -9
q-36 27 -62 60q-12 -16 -28 -31t-26 -22l-10 -7q-20 14 -38 32t-26 30l-8 11q36 43 72 73q51 -42 64 -62q32 36 62 62q51 -42 73 -73z" />
    <glyph glyph-name="aKaf.medi_aYehHamza.fina" unicode="&#xfedc;&#xfe8a;" horiz-adv-x="958" 
d="M218 299q-10 -5 -61 -18t-62 -13q-6 0 -26 15t-37 29l-18 15l5 22q49 0 60 2v1q-18 10 -18 43q0 39 26.5 76t67.5 37q26 0 42 -25t19 -49l3 -25l-19 -5q-12 20 -39 20q-31 0 -67 -23q6 -16 23 -27t39 -11q38 0 88 19l5 -7zM248 -240q-115 0 -167.5 54t-52.5 130
q0 49 20.5 107.5t41.5 92.5l20 34l33 -17q-37 -79 -37 -130q0 -135 161 -135q74 0 149.5 16.5t119.5 39.5q-39 48 -131 48h-33l-4 7l35 116l8 5h164q70 0 91 6q-4 42 -52 128q-46 78 -59 105q-4 7 21 71.5t32 66.5l331 192l13 -10l-23 -115l-274 -136l96 -164
q51 -88 90.5 -116t116.5 -28l16 -3v-122l-16 -3h-19q-77 0 -122 30.5t-90 109.5q-65 -118 -79 -124q-22 -10 -59 -13q2 -12 2 -18q0 -21 -20 -77.5t-29 -63.5q-35 -26 -115 -55t-179 -29z" />
    <glyph glyph-name="aLam.init_aAlifMaksura.fina" unicode="&#xfedf;&#xfef0;" horiz-adv-x="782" 
d="M248 -240q-115 0 -167.5 54t-52.5 130q0 49 20.5 107.5t41.5 92.5l20 34l33 -17q-37 -79 -37 -130q0 -135 161 -135q74 0 149.5 16.5t119.5 39.5q-39 48 -131 48h-46l-4 8l38 115l7 5h83q87 0 118 6l-10 394l-30 84l110 103l28 -15v-54l51 -99l-51 -55v-288
q0 -26 -40.5 -82t-78.5 -93q11 -22 11 -44q0 -21 -20 -77.5t-29 -63.5q-35 -26 -115 -55t-179 -29z" />
    <glyph glyph-name="aLam.init_aAlifWasla.fina" unicode="&#xfedf;&#xfb51;" horiz-adv-x="574" 
d="M182 735q64 0 94 9q-26 45 -62 45q-39 0 -87 -50q23 -4 55 -4zM265 675q-11 -7 -40.5 -14t-61.5 -7q-66 0 -113 18l-34 -45l-18 8q14 63 20 73q3 4 24 23.5t27 19.5l23 -6q76 124 136 124q32 0 58 -36.5t26 -70.5q0 -12 -19.5 -47t-27.5 -40zM283 0q-139 0 -171 8l-4 7
l25 126q82 47 175 129l-171 130l-42 -16l-71 56l33 151l20 7q213 -172 292 -255q15 36 15 76v108l-32 83l108 105l30 -18v-56l49 -97l-52 -53v-6q-3 -121 -67 -197q74 -88 74 -137q0 -22 -31 -76t-45 -61q-32 -14 -135 -14zM194 120h114q105 0 128 10q-22 46 -78 98
q-66 -55 -164 -108z" />
    <glyph glyph-name="aLam.init_aYeh.fina" unicode="&#xfedf;&#xfef2;" horiz-adv-x="782" 
d="M248 -240q-115 0 -167.5 54t-52.5 130q0 49 20.5 107.5t41.5 92.5l20 34l33 -17q-37 -79 -37 -130q0 -135 161 -135q74 0 149.5 16.5t119.5 39.5q-39 48 -131 48h-46l-4 8l38 115l7 5h83q87 0 118 6l-10 394l-30 84l110 103l28 -15v-54l51 -99l-51 -55v-288
q0 -26 -40.5 -82t-78.5 -93q11 -22 11 -44q0 -21 -20 -77.5t-29 -63.5q-35 -26 -115 -55t-179 -29zM426 -377q-12 -19 -30.5 -37t-30.5 -27l-12 -9q-36 27 -62 60q-12 -16 -28 -31t-26 -22l-10 -7q-20 14 -38 32t-26 30l-8 11q36 43 72 73q51 -42 64 -62q32 36 62 62
q51 -42 73 -73z" />
    <glyph glyph-name="aLam.init_aYehHamza.fina" unicode="&#xfedf;&#xfe8a;" horiz-adv-x="798" 
d="M218 299q-10 -5 -61 -18t-62 -13q-6 0 -26 15t-37 29l-18 15l5 22q49 0 60 2v1q-18 10 -18 43q0 39 26.5 76t67.5 37q26 0 42 -25t19 -49l3 -25l-19 -5q-12 20 -39 20q-31 0 -67 -23q6 -16 23 -27t39 -11q38 0 88 19l5 -7zM264 -240q-115 0 -167.5 54t-52.5 130
q0 49 21 107.5t41 92.5l21 34l32 -17q-36 -79 -36 -130q0 -135 161 -135q74 0 149 16.5t119 39.5q-38 48 -130 48h-47l-4 8l38 115l8 5h82q88 0 118 6l-9 394l-30 84l109 103l28 -15v-54l52 -99l-52 -55v-288q0 -26 -40 -81.5t-78 -93.5q10 -20 10 -44q0 -21 -20 -77.5
t-29 -63.5q-35 -26 -114.5 -55t-179.5 -29z" />
    <glyph glyph-name="aLam.medi_aAlifMaksura.fina" unicode="&#xfee0;&#xfef0;" horiz-adv-x="817" 
d="M248 -240q-115 0 -167.5 54t-52.5 130q0 49 20.5 107.5t41.5 92.5l20 34l33 -17q-37 -79 -37 -130q0 -135 161 -135q74 0 149.5 16.5t119.5 39.5q-39 48 -131 48h-32l-3 7l34 116l8 5h98q67 0 109 6l-23 498l106 83h20v-478q0 -71 15 -90t80 -19l16 -3v-122l-16 -3
q-58 0 -99 31.5t-59 91.5q-58 -103 -76 -112l-2 -1q10 -15 10 -25q0 -21 -20 -77.5t-29 -63.5q-35 -26 -115 -55t-179 -29z" />
    <glyph glyph-name="aLam.medi_aAlifWasla.fina" unicode="&#xfee0;&#xfb51;" horiz-adv-x="591" 
d="M170 728q64 0 93 9q-26 45 -61 45q-37 0 -88 -51q27 -3 56 -3zM253 668q-11 -7 -40.5 -14t-61.5 -7q-71 0 -114 18l-34 -45l-18 8q14 60 20 73q3 4 24 23.5t27 19.5q5 -2 13 -3.5t10 -2.5q78 124 137 124q31 0 57 -36.5t26 -70.5q0 -12 -19 -47t-27 -40zM591 0
q-75 0 -117 44.5t-52 110.5q-38 -87 -41 -89q-15 -18 -77 -42t-109 -24q-21 0 -64.5 19.5t-76.5 38.5l-34 20l8 36q151 0 259 28q-30 146 -134 247l-44 -14l-68 59l47 156h21q49 -49 78.5 -80.5t64.5 -76t56 -87.5t30 -89l-25 -108q58 19 92 42l-13 451l84 73h27v-478
q0 -39 1 -54t9.5 -31t26 -20t51.5 -4l16 -3v-122z" />
    <glyph glyph-name="aLam.medi_aYeh.fina" unicode="&#xfee0;&#xfef2;" horiz-adv-x="817" 
d="M248 -240q-115 0 -167.5 54t-52.5 130q0 49 20.5 107.5t41.5 92.5l20 34l33 -17q-37 -79 -37 -130q0 -135 161 -135q74 0 149.5 16.5t119.5 39.5q-39 48 -131 48h-32l-3 7l34 116l8 5h98q67 0 109 6l-23 498l106 83h20v-478q0 -71 15 -90t80 -19l16 -3v-122l-16 -3
q-58 0 -99 31.5t-59 91.5q-58 -103 -76 -112l-2 -1q10 -15 10 -25q0 -21 -20 -77.5t-29 -63.5q-35 -26 -115 -55t-179 -29zM426 -377q-12 -19 -30.5 -37t-30.5 -27l-12 -9q-36 27 -62 60q-12 -16 -28 -31t-26 -22l-10 -7q-20 14 -38 32t-26 30l-8 11q36 43 72 73
q51 -42 64 -62q32 36 62 62q51 -42 73 -73z" />
    <glyph glyph-name="aLam.medi_aYehHamza.fina" unicode="&#xfee0;&#xfe8a;" horiz-adv-x="828" 
d="M220 297q-10 -5 -61 -18t-62 -13q-6 0 -26 15t-37 29l-18 15l5 22q49 0 60 2v1q-18 10 -18 43q0 39 26.5 76t67.5 37q26 0 42 -25t19 -49l3 -25l-19 -5q-12 20 -39 20q-31 0 -67 -23q6 -16 23 -27t39 -11q38 0 88 19l5 -7zM259 -240q-115 0 -167 53.5t-52 130.5
q0 49 20.5 107.5t41.5 92.5l20 34l32 -17q-36 -79 -36 -130q0 -135 161 -135q74 0 149 16.5t119 39.5q-37 48 -130 48h-33l-3 7l35 116l8 5h97q68 0 110 6l-23 498l105 83h21v-478q0 -71 15 -90t79 -19l16 -3v-122l-16 -3q-120 0 -158 123q-58 -104 -75 -112l-3 -1
q11 -14 11 -25q0 -21 -20 -77.5t-29 -63.5q-35 -26 -115 -55t-180 -29z" />
    <glyph glyph-name="aNun.init_aAlifMaksura.fina" unicode="&#xfee7;&#xfef0;" horiz-adv-x="797" 
d="M682 541q-20 14 -38 32.5t-26 29.5l-8 11q36 44 72 74q51 -42 73 -74q-12 -18 -30.5 -36.5t-30.5 -27.5zM248 -240q-115 0 -167.5 54t-52.5 130q0 49 20.5 107.5t41.5 92.5l20 34l33 -17q-37 -79 -37 -130q0 -135 161 -135q74 0 149.5 16.5t119.5 39.5q-39 48 -131 48
h-20l-3 7l35 116l7 5h98q108 0 140 7q-8 40 -21 94t-22 88l-9 34l78 81h26l46 -128l-2 -18l-27 -28q9 -61 7 -89q-1 -22 -40.5 -83t-59.5 -72q-15 -7 -49 -10q2 -12 2 -19q0 -21 -20 -77.5t-29 -63.5q-35 -26 -115 -55t-179 -29z" />
    <glyph glyph-name="aNun.init_aYeh.fina" unicode="&#xfee7;&#xfef2;" horiz-adv-x="797" 
d="M682 541q-20 14 -38 32.5t-26 29.5l-8 11q36 44 72 74q51 -42 73 -74q-13 -18 -31 -36.5t-30 -27.5zM248 -240q-115 0 -167.5 54t-52.5 130q0 49 20.5 107.5t41.5 92.5l20 34l33 -17q-37 -79 -37 -130q0 -135 161 -135q74 0 149.5 16.5t119.5 39.5q-39 48 -131 48h-20
l-3 7l35 116l7 5h98q108 0 140 7q-8 40 -21 94t-22 88l-9 34l78 81h26l46 -128l-2 -18l-27 -28q9 -61 7 -89q-1 -22 -40.5 -83t-59.5 -72q-15 -7 -49 -10q2 -12 2 -19q0 -21 -20 -77.5t-29 -63.5q-35 -26 -115 -55t-179 -29zM426 -377q-12 -18 -30.5 -36.5t-30.5 -27.5
l-12 -9q-30 22 -62 60q-12 -16 -28 -31t-26 -22l-10 -7q-19 14 -37 32.5t-26 29.5l-9 11q36 43 72 74q51 -43 64 -63q35 40 62 63q52 -43 73 -74z" />
    <glyph glyph-name="aNun.init_aYehHamza.fina" unicode="&#xfee7;&#xfe8a;" horiz-adv-x="798" 
d="M682 541q-20 14 -38 32.5t-26 29.5l-8 11q36 44 72 74q51 -42 73 -74q-12 -18 -30.5 -36.5t-30.5 -27.5zM243 299q-10 -5 -61 -18t-62 -13q-6 0 -26 15t-38 29l-17 15l5 22q49 0 60 2v1q-18 10 -18 43q0 39 26.5 76t67.5 37q26 0 42 -25t19 -49l3 -25l-19 -5
q-12 20 -39 20q-31 0 -67 -23q6 -16 23 -27t39 -11q38 0 88 19l5 -7zM248 -240q-115 0 -167.5 54t-52.5 130q0 49 21 107.5t41 92.5l21 34l32 -17q-36 -79 -36 -130q0 -135 161 -135q74 0 149 16.5t119 39.5q-38 48 -130 48h-21l-3 7l35 116l8 5h98q108 0 139 7
q-8 40 -21 94t-22 88l-9 34l78 81h27l45 -128l-2 -18l-26 -28q9 -57 6 -89q-1 -21 -40.5 -82.5t-58.5 -72.5q-18 -7 -50 -10q2 -6 2 -19q0 -21 -20 -77.5t-29 -63.5q-35 -26 -114.5 -55t-179.5 -29z" />
    <glyph glyph-name="aNun.medi_aNun.fina" unicode="&#xfee8;&#xfee6;" horiz-adv-x="849" 
d="M728 475q-20 14 -38 32.5t-26 29.5l-8 11q36 44 72 74q51 -42 73 -74q-12 -18 -30.5 -36.5t-30.5 -27.5zM300 334q-20 14 -38 32.5t-26 29.5l-8 11q36 44 72 74q51 -42 73 -74q-12 -18 -30.5 -36.5t-30.5 -27.5zM242 -203q-61 0 -105 16t-66.5 43.5t-32.5 57.5t-10 66
q0 49 20 106.5t40 89.5l21 33l32 -16q-35 -82 -35 -136q0 -131 162 -131q44 0 98 11.5t88 27.5q-12 55 -30 126t-30 114l-13 43l91 96h26q1 -5 5 -33.5t5 -35.5q4 -18 12.5 -25t35.5 -7q88 0 134 48l60 69h21v-148q0 -63 6 -73.5t50 -10.5h22l16 -3v-122l-16 -3h-22
q-61 0 -97 37t-46 98q-1 8 -4 32.5t-4 36.5q-22 -30 -34.5 -44t-37 -28t-53.5 -14h-24q3 -63 3 -109q-1 -21 -33 -79.5t-44 -69.5q-26 -26 -88.5 -44.5t-122.5 -18.5z" />
    <glyph glyph-name="aNun.medi_aReh.fina" unicode="&#xfee8;&#xfeae;" horiz-adv-x="637" 
d="M516 495q-20 14 -38 32.5t-26 29.5l-8 11q36 44 72 74q51 -42 73 -74q-12 -18 -30.5 -36.5t-30.5 -27.5zM123 -203q-19 0 -91.5 42t-86.5 56l16 37q54 -13 91 -13q66 0 120.5 49.5t84.5 116.5l-96 180l74 106h21l26 -83q8 -19 18.5 -24.5t43.5 -5.5q87 0 133 49l60 69h21
v-164q0 -63 6.5 -73.5t50.5 -10.5h22l16 -3v-122l-16 -3h-22q-60 0 -97 37.5t-46 97.5q0 4 -9 83q-23 -31 -35 -44.5t-36 -27.5t-53 -14h-26q-2 -67 -4 -106q-3 -36 -28 -88t-69 -96.5t-89 -44.5z" />
    <glyph glyph-name="aSad.init_aAlifMaksura.fina" unicode="&#xfebb;&#xfef0;" horiz-adv-x="1223" 
d="M856 128h21q162 3 252 43q-24 52 -69.5 89.5t-90.5 37.5q-50 0 -112.5 -43t-122.5 -119q31 -8 95 -8h27zM256 -235q-64 0 -110.5 16t-71 43.5t-35.5 58.5t-11 66q0 49 20.5 108t41.5 93l20 34l33 -17q-37 -79 -37 -131q0 -140 169 -140q76 0 152.5 16.5t115.5 37.5
q-8 21 -36 34t-77 24q-24 5 -36 8t-35.5 11t-37.5 15.5t-28.5 21t-21.5 29.5q-11 22 -11.5 75t6.5 67q26 61 112.5 101t159.5 40q51 0 67.5 -20t34.5 -86q24 -88 50 -112q63 114 145 193t167 79q50 0 95.5 -40.5t69 -90t23.5 -85.5q0 -28 -26.5 -80.5t-46.5 -73.5
q-19 -19 -96.5 -39.5t-178.5 -20.5h-27q-56 0 -98 14t-67.5 35t-43.5 57.5t-27 68t-18 80.5q-167 -4 -254 -76q9 -10 27 -18.5t31 -12.5t45.5 -11.5t43.5 -10.5q146 -38 146 -143q0 -18 -18.5 -71t-25.5 -59q-31 -27 -113.5 -57.5t-186.5 -30.5z" />
    <glyph glyph-name="aSad.init_aYeh.fina" unicode="&#xfebb;&#xfef2;" horiz-adv-x="1223" 
d="M856 128h21q162 3 252 43q-24 52 -69.5 89.5t-90.5 37.5q-50 0 -112.5 -43t-122.5 -119q31 -8 95 -8h27zM256 -235q-64 0 -110.5 16t-71 43.5t-35.5 58.5t-11 66q0 49 20.5 108t41.5 93l20 34l33 -17q-37 -79 -37 -131q0 -140 169 -140q76 0 152.5 16.5t115.5 37.5
q-8 21 -36 34t-77 24q-24 5 -36 8t-35.5 11t-37.5 15.5t-28.5 21t-21.5 29.5q-11 22 -11.5 75t6.5 67q26 61 112.5 101t159.5 40q51 0 67.5 -20t34.5 -86q24 -88 50 -112q63 114 145 193t167 79q50 0 95.5 -40.5t69 -90t23.5 -85.5q0 -28 -26.5 -80.5t-46.5 -73.5
q-19 -19 -96.5 -39.5t-178.5 -20.5h-27q-56 0 -98 14t-67.5 35t-43.5 57.5t-27 68t-18 80.5q-167 -4 -254 -76q9 -10 27 -18.5t31 -12.5t45.5 -11.5t43.5 -10.5q146 -38 146 -143q0 -18 -18.5 -71t-25.5 -59q-31 -27 -113.5 -57.5t-186.5 -30.5zM431 -361q-12 -19 -30.5 -37
t-30.5 -27l-12 -9q-36 27 -62 60q-12 -16 -28 -31t-26 -22l-10 -7q-20 14 -38 32t-26 30l-8 11q36 43 72 73q51 -42 64 -62q32 36 62 62q51 -42 73 -73z" />
    <glyph glyph-name="aSad.init_aYehHamza.fina" unicode="&#xfebb;&#xfe8a;" horiz-adv-x="1230" 
d="M218 305q-10 -5 -61 -18t-62 -13q-6 0 -26 15t-37 29l-18 15l5 22q49 0 60 2v1q-18 10 -18 43q0 39 26.5 76t67.5 37q26 0 42 -25t19 -49l3 -25l-19 -5q-12 20 -39 20q-31 0 -67 -23q6 -16 23 -27t39 -11q38 0 88 19l5 -7zM835 128h48q162 3 252 43q-24 52 -69.5 89.5
t-90.5 37.5q-50 0 -112.5 -43t-122.5 -119q31 -8 95 -8zM262 -235q-64 0 -110.5 16t-71 43.5t-35.5 58.5t-11 66q0 49 20.5 108t41.5 93l20 34l33 -17q-37 -79 -37 -131q0 -140 169 -140q76 0 152.5 16.5t115.5 37.5q-8 21 -36 34t-77 24q-24 5 -36 8t-35.5 11t-37.5 15.5
t-28.5 21t-21.5 29.5q-11 22 -11.5 75t6.5 67q26 61 112.5 101t159.5 40q51 0 67.5 -20t34.5 -86q24 -88 50 -112q63 114 145 193t167 79q50 0 95.5 -40.5t69 -90t23.5 -85.5q0 -28 -26.5 -80.5t-46.5 -73.5q-19 -19 -96.5 -39.5t-178.5 -20.5h-27q-56 0 -98 14t-67.5 35
t-43.5 57.5t-27 68t-18 80.5q-167 -4 -254 -76q9 -10 27 -18.5t31 -12.5t45.5 -11.5t43.5 -10.5q146 -38 146 -143q0 -18 -18.5 -71t-25.5 -59q-31 -27 -113.5 -57.5t-186.5 -30.5z" />
    <glyph glyph-name="aSad.medi_aAlifMaksura.fina" unicode="&#xfebc;&#xfef0;" horiz-adv-x="1248" 
d="M856 128h21q162 3 252 43q-24 52 -69.5 89.5t-90.5 37.5q-50 0 -112.5 -43t-122.5 -119q31 -8 95 -8h27zM256 -235q-64 0 -110.5 16t-71 43.5t-35.5 58.5t-11 66q0 49 20.5 108t41.5 93l20 34l33 -17q-37 -79 -37 -131q0 -140 169 -140q76 0 152.5 16.5t115.5 37.5
q-8 21 -36 34t-77 24q-24 5 -36 8t-35.5 11t-37.5 15.5t-28.5 21t-21.5 29.5q-11 22 -11.5 75t6.5 67q26 61 112.5 101t159.5 40q51 0 67.5 -20t34.5 -86q24 -88 50 -112q63 114 145 193t167 79q50 0 95.5 -40.5t69 -90t23.5 -85.5q0 -28 -30 -86h88l16 -3v-122l-16 -3h-57
q-43 0 -87 51q-33 -19 -103.5 -35t-158.5 -16h-27q-56 0 -98 14t-67.5 35t-43.5 57.5t-27 68t-18 80.5q-167 -4 -254 -76q9 -10 27 -18.5t31 -12.5t45.5 -11.5t43.5 -10.5q146 -38 146 -143q0 -18 -18.5 -71t-25.5 -59q-31 -27 -113.5 -57.5t-186.5 -30.5z" />
    <glyph glyph-name="aSad.medi_aYeh.fina" unicode="&#xfebc;&#xfef2;" horiz-adv-x="1248" 
d="M856 128h21q162 3 252 43q-24 52 -69.5 89.5t-90.5 37.5q-50 0 -112.5 -43t-122.5 -119q31 -8 95 -8h27zM256 -235q-64 0 -110.5 16t-71 43.5t-35.5 58.5t-11 66q0 49 20.5 108t41.5 93l20 34l33 -17q-37 -79 -37 -131q0 -140 169 -140q76 0 152.5 16.5t115.5 37.5
q-8 21 -36 34t-77 24q-24 5 -36 8t-35.5 11t-37.5 15.5t-28.5 21t-21.5 29.5q-11 22 -11.5 75t6.5 67q26 61 112.5 101t159.5 40q51 0 67.5 -20t34.5 -86q24 -88 50 -112q63 114 145 193t167 79q50 0 95.5 -40.5t69 -90t23.5 -85.5q0 -28 -30 -86h88l16 -3v-122l-16 -3h-57
q-43 0 -87 51q-33 -19 -103.5 -35t-158.5 -16h-27q-56 0 -98 14t-67.5 35t-43.5 57.5t-27 68t-18 80.5q-167 -4 -254 -76q9 -10 27 -18.5t31 -12.5t45.5 -11.5t43.5 -10.5q146 -38 146 -143q0 -18 -18.5 -71t-25.5 -59q-31 -27 -113.5 -57.5t-186.5 -30.5zM428 -361
q-12 -18 -30.5 -36.5t-30.5 -27.5l-12 -9q-31 22 -63 60q-12 -16 -28 -31t-26 -22l-9 -7q-20 14 -38 32.5t-26 29.5l-8 11q36 43 72 73q51 -42 64 -62q35 40 62 62q51 -42 73 -73z" />
    <glyph glyph-name="aSad.medi_aYehHamza.fina" unicode="&#xfebc;&#xfe8a;" horiz-adv-x="1259" 
d="M218 305q-10 -5 -61 -18t-62 -13q-6 0 -26 15t-37 29l-18 15l5 22q49 0 60 2v1q-18 10 -18 43q0 39 26.5 76t67.5 37q26 0 42 -25t19 -49l3 -25l-19 -5q-12 20 -39 20q-31 0 -67 -23q6 -16 23 -27t39 -11q38 0 88 19l5 -7zM863 128h20q163 3 253 43q-24 52 -69.5 89.5
t-90.5 37.5q-50 0 -112.5 -43t-123.5 -119q32 -8 96 -8h27zM262 -235q-121 0 -174.5 53.5t-53.5 130.5q0 49 21 108t41 93l21 34l32 -17q-36 -79 -36 -131q0 -140 169 -140q75 0 151.5 16.5t116.5 37.5q-8 21 -36 34t-78 24q-40 9 -62 15t-54 25t-43 45q-10 22 -11 75t6 67
q27 61 113.5 101t159.5 40q51 0 67.5 -20t34.5 -86q24 -88 50 -112q62 114 144 193t167 79q51 0 96 -40.5t68.5 -90t23.5 -85.5q0 -30 -29 -86h88l16 -3v-122l-16 -3h-57q-43 0 -87 51q-33 -19 -103.5 -35t-158.5 -16h-27q-56 0 -98 14t-67.5 35t-43.5 57.5t-27 68t-18 80.5
q-166 -4 -255 -76q7 -8 18.5 -14.5t27.5 -12t29 -9t36 -9t36 -8.5q146 -38 146 -143q0 -18 -18.5 -71t-25.5 -59q-29 -27 -112 -57.5t-188 -30.5z" />
    <glyph glyph-name="aShin.init_aAlifMaksura.fina" unicode="&#xfeb7;&#xfef0;" horiz-adv-x="1215" 
d="M890 539q-17 14 -33.5 31t-24.5 28l-8 10q34 39 66 68q48 -38 68 -68q-12 -17 -29 -34t-28 -26zM950 415q-29 21 -59 57q-12 -14 -27.5 -28.5t-25.5 -21.5l-9 -7q-18 14 -34.5 31t-24.5 28l-8 10q34 42 67 71l62 -62q3 4 27 28.5t32 33.5q49 -41 70 -71
q-12 -17 -29.5 -34t-28.5 -26zM256 -235q-64 0 -110.5 16t-71 43.5t-35.5 58.5t-11 66q0 49 20.5 108t41.5 93l20 34l33 -17q-37 -79 -37 -131q0 -140 169 -140q76 0 152.5 16.5t115.5 38.5q-9 21 -35 32.5t-78 24.5q-24 5 -36 8t-35.5 11t-37.5 15.5t-28.5 21t-21.5 29.5
q-11 22 -11.5 75t6.5 67q26 60 118 100.5t166 40.5q47 0 66.5 -22t35.5 -84q23 -86 45.5 -114t69.5 -28q27 0 46 3l47 150l64 42l20 -10q-4 -59 -18 -158q77 -44 163 -58l-38 222l91 73h27q8 -196 8 -258q0 -23 -49 -85.5t-70 -62.5q-29 0 -87 24t-110 65q-21 -43 -46.5 -59
t-72.5 -16q-70 0 -105.5 62.5t-63.5 192.5q-173 -3 -266 -76q9 -10 27 -18.5t31 -12.5t45.5 -11.5t43.5 -10.5q146 -38 146 -143q0 -18 -18.5 -71t-25.5 -59q-31 -27 -113.5 -57.5t-186.5 -30.5z" />
    <glyph glyph-name="aShin.init_aYeh.fina" unicode="&#xfeb7;&#xfef2;" horiz-adv-x="1215" 
d="M890 539q-17 14 -33.5 31t-24.5 28l-8 10q34 39 66 68q48 -38 68 -68q-12 -17 -29 -34t-28 -26zM950 415q-29 21 -59 57q-12 -14 -27.5 -28.5t-25.5 -21.5l-9 -7q-18 14 -34.5 31t-24.5 28l-8 10q34 42 67 71l62 -62q3 4 27 28.5t32 33.5q49 -41 70 -71
q-12 -17 -29.5 -34t-28.5 -26zM256 -235q-64 0 -110.5 16t-71 43.5t-35.5 58.5t-11 66q0 49 20.5 108t41.5 93l20 34l33 -17q-37 -79 -37 -131q0 -140 169 -140q76 0 152.5 16.5t115.5 38.5q-9 21 -35 32.5t-78 24.5q-24 5 -36 8t-35.5 11t-37.5 15.5t-28.5 21t-21.5 29.5
q-11 22 -11.5 75t6.5 67q26 60 118 100.5t166 40.5q47 0 66.5 -22t35.5 -84q23 -86 45.5 -114t69.5 -28q27 0 46 3l47 150l64 42l20 -10q-4 -59 -18 -158q77 -44 163 -58l-38 222l91 73h27q8 -196 8 -258q0 -23 -49 -85.5t-70 -62.5q-29 0 -87 24t-110 65q-21 -43 -46.5 -59
t-72.5 -16q-70 0 -105.5 62.5t-63.5 192.5q-173 -3 -266 -76q9 -10 27 -18.5t31 -12.5t45.5 -11.5t43.5 -10.5q146 -38 146 -143q0 -18 -18.5 -71t-25.5 -59q-31 -27 -113.5 -57.5t-186.5 -30.5zM432 -361q-12 -19 -30.5 -37t-30.5 -27l-12 -9q-36 27 -62 60
q-12 -16 -28 -31t-26 -22l-10 -7q-20 14 -38 32t-26 30l-8 11q36 43 72 73q51 -42 64 -62q32 36 62 62q51 -42 73 -73z" />
    <glyph glyph-name="aShin.init_aYehHamza.fina" unicode="&#xfeb7;&#xfe8a;" horiz-adv-x="1220" 
d="M897 539q-17 13 -33.5 30.5t-24.5 28.5l-8 10q34 39 66 68q48 -38 68 -68q-12 -17 -29 -34.5t-28 -25.5zM1026 484q-12 -17 -29 -34t-29 -26l-11 -9q-34 25 -59 57q-12 -15 -27.5 -29t-24.5 -21l-10 -7q-18 14 -34.5 31t-24.5 28l-8 10q33 41 67 71l62 -62q4 4 27.5 28.5
t31.5 33.5q49 -41 69 -71zM218 304q-10 -5 -60 -17.5t-62 -12.5q-6 0 -26.5 15t-37.5 29l-18 15l5 22q50 0 61 2v1q-19 11 -19 43q0 39 26.5 76t67.5 37q26 0 42.5 -25t19.5 -50l3 -25l-20 -5q-12 20 -38 20q-36 0 -68 -23q6 -16 23 -27t39 -11q38 0 88 19l5 -7zM261 -235
q-121 0 -174 53.5t-53 130.5q0 49 20.5 108t41.5 93l20 34l33 -17q-37 -79 -37 -131q0 -140 169 -140q76 0 152.5 16.5t115.5 38.5q-9 21 -35 32.5t-78 24.5q-30 7 -46 11t-43 14t-44.5 25t-26.5 35q-10 22 -11 75t6 67q26 60 118.5 100.5t166.5 40.5q47 0 66.5 -22
t35.5 -84q23 -86 45.5 -114t68.5 -28q28 0 47 3l47 150l64 42l20 -10q-4 -59 -18 -158q77 -44 163 -58l-38 222l91 73h27q8 -196 8 -258q0 -23 -49 -85.5t-70 -62.5q-29 0 -87 24t-110 65q-21 -43 -46.5 -59t-72.5 -16q-70 0 -105.5 62.5t-63.5 192.5q-173 -3 -266 -76
q7 -8 18 -14.5t27 -12t29 -9t36.5 -9t35.5 -8.5q146 -38 146 -143q0 -18 -18.5 -71t-24.5 -59q-31 -27 -113.5 -57.5t-187.5 -30.5z" />
    <glyph glyph-name="aShin.medi_aAlifMaksura.fina" unicode="&#xfeb8;&#xfef0;" horiz-adv-x="1250" 
d="M889 543q-17 14 -33.5 31t-24.5 28l-8 10q34 39 66 68q48 -38 68 -68q-12 -17 -29 -34t-28 -26zM949 419q-29 21 -59 57q-12 -14 -27.5 -28.5t-24.5 -21.5l-10 -7q-18 14 -34.5 31t-24.5 28l-8 10q34 42 67 71l62 -62q4 4 27.5 28.5t31.5 33.5q49 -41 70 -71
q-12 -17 -29.5 -34t-29.5 -26zM256 -235q-64 0 -110.5 16t-71 43.5t-35.5 58.5t-11 66q0 49 20.5 108t41.5 93l20 34l33 -17q-37 -79 -37 -131q0 -140 169 -140q76 0 152.5 16.5t115.5 38.5q-9 21 -35 32.5t-78 24.5q-24 5 -36 8t-35.5 11t-37.5 15.5t-28.5 21t-21.5 29.5
q-11 22 -11.5 75t6.5 67q26 60 118 100.5t166 40.5q47 0 66.5 -22t35.5 -84q23 -86 45.5 -114t69.5 -28q27 0 46 3l47 150l64 42l20 -10q-4 -63 -21 -174q33 -11 85 -11q28 0 71 5l-20 155l88 68h27v-179q0 -31 8.5 -40t48.5 -9h19l16 -3v-122l-16 -3h-19q-45 1 -73 19.5
t-49 60.5q-20 -45 -46.5 -62.5t-76.5 -17.5q-44 0 -74.5 15t-52.5 56q-20 -40 -45.5 -55.5t-71.5 -15.5q-70 0 -105.5 62.5t-63.5 192.5q-173 -3 -266 -76q9 -10 27 -18.5t31 -12.5t45.5 -11.5t43.5 -10.5q146 -38 146 -143q0 -18 -18.5 -71t-25.5 -59q-31 -27 -113.5 -57.5
t-186.5 -30.5z" />
    <glyph glyph-name="aShin.medi_aYeh.fina" unicode="&#xfeb8;&#xfef2;" horiz-adv-x="1250" 
d="M890 543q-17 13 -34 30.5t-25 28.5l-8 10q34 39 67 68q47 -38 68 -68q-12 -17 -29 -34.5t-28 -25.5zM1019 488q-12 -17 -29.5 -34.5t-29.5 -25.5l-11 -9q-34 25 -59 57q-12 -15 -27.5 -29t-24.5 -21l-10 -7q-18 13 -34.5 30.5t-24.5 28.5l-8 10q34 41 67 71l62 -62
q40 39 59 62q49 -41 70 -71zM256 -235q-64 0 -110.5 16t-71 43.5t-35.5 58.5t-11 66q0 49 20.5 108t41.5 93l20 34l33 -17q-37 -79 -37 -131q0 -140 169 -140q76 0 152.5 16.5t115.5 38.5q-9 21 -35 32.5t-78 24.5q-24 5 -36 8t-35.5 11t-37.5 15.5t-28.5 21t-21.5 29.5
q-11 22 -11.5 75t6.5 67q26 60 118 100.5t166 40.5q47 0 66.5 -22t35.5 -84q23 -86 45.5 -114t69.5 -28q27 0 46 3l47 150l64 42l20 -10q-4 -63 -21 -174q33 -11 85 -11q28 0 71 5l-20 155l88 68h27v-179q0 -31 8.5 -40t48.5 -9h19l16 -3v-122l-16 -3h-19q-45 1 -73 19.5
t-49 60.5q-20 -45 -46.5 -62.5t-76.5 -17.5q-44 0 -74.5 15t-52.5 56q-20 -40 -45.5 -55.5t-71.5 -15.5q-70 0 -105.5 62.5t-63.5 192.5q-173 -3 -266 -76q9 -10 27 -18.5t31 -12.5t45.5 -11.5t43.5 -10.5q146 -38 146 -143q0 -18 -18.5 -71t-25.5 -59q-31 -27 -113.5 -57.5
t-186.5 -30.5zM432 -361q-12 -18 -30.5 -36.5t-30.5 -27.5l-12 -9q-30 22 -62 60q-12 -16 -28 -31t-26 -22l-10 -7q-19 14 -37 32.5t-26 29.5l-8 11q35 43 71 73q51 -42 64 -62q43 46 62 62q52 -42 73 -73z" />
    <glyph glyph-name="aShin.medi_aYehHamza.fina" unicode="&#xfeb8;&#xfe8a;" horiz-adv-x="1256" 
d="M896 539q-17 14 -33.5 31t-24.5 28l-8 10q34 39 66 68q48 -38 68 -68q-12 -17 -29 -34t-28 -26zM956 415q-29 21 -59 57q-12 -14 -27.5 -28.5t-25.5 -21.5l-9 -7q-18 14 -34.5 31t-24.5 28l-8 10q34 42 67 71l62 -62q3 4 27 28.5t32 33.5q49 -41 70 -71
q-12 -17 -29.5 -34t-28.5 -26zM218 305q-10 -5 -61 -18t-62 -13q-6 0 -26 15t-37 29l-18 15l5 22q49 0 60 2v1q-18 10 -18 43q0 39 26.5 76t67.5 37q26 0 42 -25t19 -49l3 -25l-19 -5q-12 20 -39 20q-31 0 -67 -23q6 -16 23 -27t39 -11q38 0 88 19l5 -7zM262 -235
q-64 0 -110.5 16t-71 43.5t-35.5 58.5t-11 66q0 49 20.5 108t41.5 93l20 34l33 -17q-37 -79 -37 -131q0 -140 169 -140q76 0 152.5 16.5t115.5 38.5q-9 21 -35 32.5t-78 24.5q-24 5 -36 8t-35.5 11t-37.5 15.5t-28.5 21t-21.5 29.5q-11 22 -11.5 75t6.5 67q26 60 118 100.5
t166 40.5q47 0 66.5 -22t35.5 -84q23 -86 45.5 -114t69.5 -28q27 0 46 3l47 150l64 42l20 -10q-4 -63 -21 -174q33 -11 85 -11q28 0 71 5l-20 155l88 68h27v-179q0 -31 8.5 -40t48.5 -9h19l16 -3v-122l-16 -3h-19q-45 1 -73 19.5t-49 60.5q-20 -45 -46.5 -62.5t-76.5 -17.5
q-44 0 -74.5 15t-52.5 56q-20 -40 -45.5 -55.5t-71.5 -15.5q-70 0 -105.5 62.5t-63.5 192.5q-173 -3 -266 -76q9 -10 27 -18.5t31 -12.5t45.5 -11.5t43.5 -10.5q146 -38 146 -143q0 -18 -18.5 -71t-25.5 -59q-31 -27 -113.5 -57.5t-186.5 -30.5z" />
    <glyph glyph-name="aSin.init_aAlifMaksura.fina" unicode="&#xfeb3;&#xfef0;" horiz-adv-x="1215" 
d="M256 -235q-64 0 -110.5 16t-71 43.5t-35.5 58.5t-11 66q0 49 20.5 108t41.5 93l20 34l33 -17q-37 -79 -37 -131q0 -140 169 -140q76 0 152.5 16.5t115.5 38.5q-9 21 -35 32.5t-78 24.5q-24 5 -36 8t-35.5 11t-37.5 15.5t-28.5 21t-21.5 29.5q-11 22 -11.5 75t6.5 67
q26 60 118 100.5t166 40.5q47 0 66.5 -22t35.5 -84q23 -86 45.5 -114t69.5 -28q27 0 46 3l47 150l64 42l20 -10q-4 -59 -18 -158q77 -44 163 -58l-38 222l91 73h27q8 -196 8 -258q0 -23 -49 -85.5t-70 -62.5q-29 0 -87 24t-110 65q-21 -43 -46.5 -59t-72.5 -16
q-70 0 -105.5 62.5t-63.5 192.5q-173 -3 -266 -76q9 -10 27 -18.5t31 -12.5t45.5 -11.5t43.5 -10.5q146 -38 146 -143q0 -18 -18.5 -71t-25.5 -59q-31 -27 -113.5 -57.5t-186.5 -30.5z" />
    <glyph glyph-name="aSin.init_aYeh.fina" unicode="&#xfeb3;&#xfef2;" horiz-adv-x="1215" 
d="M256 -235q-64 0 -110.5 16t-71 43.5t-35.5 58.5t-11 66q0 49 20.5 108t41.5 93l20 34l33 -17q-37 -79 -37 -131q0 -140 169 -140q76 0 152.5 16.5t115.5 38.5q-9 21 -35 32.5t-78 24.5q-24 5 -36 8t-35.5 11t-37.5 15.5t-28.5 21t-21.5 29.5q-11 22 -11.5 75t6.5 67
q26 60 118 100.5t166 40.5q47 0 66.5 -22t35.5 -84q23 -86 45.5 -114t69.5 -28q27 0 46 3l47 150l64 42l20 -10q-4 -59 -18 -158q77 -44 163 -58l-38 222l91 73h27q8 -196 8 -258q0 -23 -49 -85.5t-70 -62.5q-29 0 -87 24t-110 65q-21 -43 -46.5 -59t-72.5 -16
q-70 0 -105.5 62.5t-63.5 192.5q-173 -3 -266 -76q9 -10 27 -18.5t31 -12.5t45.5 -11.5t43.5 -10.5q146 -38 146 -143q0 -18 -18.5 -71t-25.5 -59q-31 -27 -113.5 -57.5t-186.5 -30.5zM432 -361q-12 -19 -30.5 -37t-30.5 -27l-12 -9q-36 27 -62 60q-12 -16 -28 -31t-26 -22
l-10 -7q-20 14 -38 32t-26 30l-8 11q36 43 72 73q51 -42 64 -62q32 36 62 62q51 -42 73 -73z" />
    <glyph glyph-name="aSin.init_aYehHamza.fina" unicode="&#xfeb3;&#xfe8a;" horiz-adv-x="1220" 
d="M218 305q-10 -5 -61 -18t-62 -13q-6 0 -26 15t-37 29l-18 15l5 22q49 0 60 2v1q-18 10 -18 43q0 39 26.5 76t67.5 37q26 0 42 -25t19 -49l3 -25l-19 -5q-12 20 -39 20q-31 0 -67 -23q6 -16 23 -27t39 -11q38 0 88 19l5 -7zM261 -235q-121 0 -174 53.5t-53 130.5
q0 49 20.5 108t41.5 93l20 34l33 -17q-37 -79 -37 -131q0 -140 169 -140q76 0 152.5 16.5t115.5 38.5q-9 21 -35 32.5t-78 24.5q-30 7 -46 11t-43 14t-44.5 25t-26.5 35q-10 22 -11 75t6 67q26 60 118.5 100.5t166.5 40.5q47 0 66.5 -22t35.5 -84q23 -86 45.5 -114t68.5 -28
q28 0 47 3l47 150l64 42l20 -10q-4 -59 -18 -158q77 -44 163 -58l-38 222l91 73h27q8 -196 8 -258q0 -23 -49 -85.5t-70 -62.5q-29 0 -87 24t-110 65q-21 -43 -46.5 -59t-72.5 -16q-70 0 -105.5 62.5t-63.5 192.5q-173 -3 -266 -76q7 -8 18 -14.5t27 -12t29 -9t36.5 -9
t35.5 -8.5q146 -38 146 -143q0 -18 -18.5 -71t-24.5 -59q-31 -27 -113.5 -57.5t-187.5 -30.5z" />
    <glyph glyph-name="aSin.medi_aAlifMaksura.fina" unicode="&#xfeb4;&#xfef0;" horiz-adv-x="1250" 
d="M256 -235q-64 0 -110.5 16t-71 43.5t-35.5 58.5t-11 66q0 49 20.5 108t41.5 93l20 34l33 -17q-37 -79 -37 -131q0 -140 169 -140q76 0 152.5 16.5t115.5 38.5q-9 21 -35 32.5t-78 24.5q-24 5 -36 8t-35.5 11t-37.5 15.5t-28.5 21t-21.5 29.5q-11 22 -11.5 75t6.5 67
q26 60 118 100.5t166 40.5q47 0 66.5 -22t35.5 -84q23 -86 45.5 -114t69.5 -28q27 0 46 3l47 150l64 42l20 -10q-4 -63 -21 -174q33 -11 85 -11q28 0 71 5l-20 155l88 68h27v-179q0 -31 8.5 -40t48.5 -9h19l16 -3v-122l-16 -3h-19q-45 1 -73 19.5t-49 60.5
q-20 -45 -46.5 -62.5t-76.5 -17.5q-44 0 -74.5 15t-52.5 56q-20 -40 -45.5 -55.5t-71.5 -15.5q-70 0 -105.5 62.5t-63.5 192.5q-173 -3 -266 -76q9 -10 27 -18.5t31 -12.5t45.5 -11.5t43.5 -10.5q146 -38 146 -143q0 -18 -18.5 -71t-25.5 -59q-31 -27 -113.5 -57.5
t-186.5 -30.5z" />
    <glyph glyph-name="aSin.medi_aYeh.fina" unicode="&#xfeb4;&#xfef2;" horiz-adv-x="1250" 
d="M256 -235q-64 0 -110.5 16t-71 43.5t-35.5 58.5t-11 66q0 49 20.5 108t41.5 93l20 34l33 -17q-37 -79 -37 -131q0 -140 169 -140q76 0 152.5 16.5t115.5 38.5q-9 21 -35 32.5t-78 24.5q-24 5 -36 8t-35.5 11t-37.5 15.5t-28.5 21t-21.5 29.5q-11 22 -11.5 75t6.5 67
q26 60 118 100.5t166 40.5q47 0 66.5 -22t35.5 -84q23 -86 45.5 -114t69.5 -28q27 0 46 3l47 150l64 42l20 -10q-4 -63 -21 -174q33 -11 85 -11q28 0 71 5l-20 155l88 68h27v-179q0 -31 8.5 -40t48.5 -9h19l16 -3v-122l-16 -3h-19q-45 1 -73 19.5t-49 60.5
q-20 -45 -46.5 -62.5t-76.5 -17.5q-44 0 -74.5 15t-52.5 56q-20 -40 -45.5 -55.5t-71.5 -15.5q-70 0 -105.5 62.5t-63.5 192.5q-173 -3 -266 -76q9 -10 27 -18.5t31 -12.5t45.5 -11.5t43.5 -10.5q146 -38 146 -143q0 -18 -18.5 -71t-25.5 -59q-31 -27 -113.5 -57.5
t-186.5 -30.5zM432 -361q-12 -19 -30.5 -37t-30.5 -27l-12 -9q-36 27 -62 60q-12 -16 -28 -31t-26 -22l-10 -7q-20 14 -38 32t-26 30l-8 11q36 43 72 73q51 -42 64 -62q32 36 62 62q51 -42 73 -73z" />
    <glyph glyph-name="aSin.medi_aYehHamza.fina" unicode="&#xfeb4;&#xfe8a;" horiz-adv-x="1256" 
d="M218 304q-10 -5 -60 -17.5t-62 -12.5q-6 0 -26.5 15t-37.5 29l-18 15l5 22q50 0 61 2v1q-19 11 -19 43q0 39 26.5 76t67.5 37q26 0 42.5 -25t19.5 -50l3 -25l-20 -5q-12 20 -38 20q-36 0 -68 -23q6 -16 23 -27t39 -11q38 0 88 19l5 -7zM261 -235q-121 0 -174 53.5
t-53 130.5q0 49 20.5 108t41.5 93l20 34l33 -17q-37 -79 -37 -131q0 -140 169 -140q76 0 152.5 16.5t115.5 38.5q-9 21 -35 32.5t-78 24.5q-30 7 -46 11t-43 14t-44.5 25t-26.5 35q-10 22 -11 75t6 67q26 60 118.5 100.5t166.5 40.5q47 0 66.5 -22t35.5 -84
q23 -86 45.5 -114t68.5 -28q28 0 47 3l47 150l64 42l20 -10q-4 -63 -21 -174q33 -11 85 -11q28 0 71 5l-20 155l88 68h27v-179q0 -31 8.5 -40t47.5 -9h20l16 -3v-122l-16 -3h-19q-45 1 -73 19t-49 61q-20 -45 -46.5 -62.5t-76.5 -17.5q-44 0 -74.5 15t-52.5 56
q-20 -40 -45.5 -55.5t-71.5 -15.5q-70 0 -105.5 62.5t-63.5 192.5q-173 -3 -266 -76q7 -8 18 -14.5t27 -12t29 -9t36.5 -9t35.5 -8.5q146 -38 146 -143q0 -18 -18.5 -71t-24.5 -59q-31 -27 -113.5 -57.5t-187.5 -30.5z" />
    <glyph glyph-name="aTeh.init_aAlifMaksura.fina" unicode="&#xfe97;&#xfef0;" horiz-adv-x="797" 
d="M814 615q-12 -18 -30.5 -36.5t-30.5 -27.5l-12 -9q-30 22 -62 60q-12 -16 -28 -31t-26 -22l-10 -7q-19 14 -37 32.5t-26 29.5l-8 11q35 43 71 73q51 -42 64 -62q32 37 62 62q52 -42 73 -73zM248 -240q-115 0 -167.5 54t-52.5 130q0 49 20.5 107.5t41.5 92.5l20 34l33 -17
q-37 -79 -37 -130q0 -135 161 -135q74 0 149.5 16.5t119.5 39.5q-39 48 -131 48h-20l-3 7l35 116l7 5h98q108 0 140 7q-8 40 -21 94t-22 88l-9 34l78 81h26l46 -128l-2 -18l-27 -28q9 -61 7 -89q-1 -22 -40.5 -83t-59.5 -72q-15 -7 -49 -10q2 -12 2 -19q0 -21 -20 -77.5
t-29 -63.5q-35 -26 -115 -55t-179 -29z" />
    <glyph glyph-name="aTeh.init_aYeh.fina" unicode="&#xfe97;&#xfef2;" horiz-adv-x="797" 
d="M814 615q-12 -19 -30.5 -37t-30.5 -27l-12 -9q-36 27 -62 60q-12 -16 -28 -31t-26 -22l-10 -7q-20 14 -38 32t-26 30l-8 11q36 43 72 73q51 -42 64 -62q32 36 62 62q51 -42 73 -73zM248 -240q-115 0 -167.5 54t-52.5 130q0 49 20.5 107.5t41.5 92.5l20 34l33 -17
q-37 -79 -37 -130q0 -135 161 -135q74 0 149.5 16.5t119.5 39.5q-39 48 -131 48h-20l-3 7l35 116l7 5h98q108 0 140 7q-8 40 -21 94t-22 88l-9 34l78 81h26l46 -128l-2 -18l-27 -28q9 -61 7 -89q-1 -22 -40.5 -83t-59.5 -72q-15 -7 -49 -10q2 -12 2 -19q0 -21 -20 -77.5
t-29 -63.5q-35 -26 -115 -55t-179 -29zM426 -377q-12 -19 -30.5 -37t-30.5 -27l-12 -9q-36 27 -62 60q-12 -16 -28 -31t-26 -22l-10 -7q-20 14 -38 32t-26 30l-8 11q36 43 72 73q51 -42 64 -62q32 36 62 62q51 -42 73 -73z" />
    <glyph glyph-name="aTeh.init_aYehHamza.fina" unicode="&#xfe97;&#xfe8a;" horiz-adv-x="798" 
d="M815 615q-12 -19 -30.5 -37t-30.5 -27l-12 -9q-36 27 -62 60q-12 -16 -28 -31t-26 -22l-10 -7q-20 14 -38 32t-26 30l-8 11q36 43 72 73q51 -42 64 -62q32 36 62 62q51 -42 73 -73zM243 299q-10 -5 -61 -18t-62 -13q-6 0 -26 15t-38 29l-17 15l5 22q49 0 60 2v1
q-18 10 -18 43q0 39 26.5 76t67.5 37q26 0 42 -25t19 -49l3 -25l-19 -5q-12 20 -39 20q-31 0 -67 -23q6 -16 23 -27t39 -11q38 0 88 19l5 -7zM248 -240q-115 0 -167.5 54t-52.5 130q0 49 20.5 107.5t41.5 92.5l20 34l33 -17q-37 -79 -37 -130q0 -135 161 -135
q74 0 149.5 16.5t119.5 39.5q-39 48 -131 48h-20l-3 7l35 116l7 5h98q108 0 140 7q-8 40 -21 94t-22 88l-9 34l78 81h26l46 -128l-2 -18l-27 -28q9 -61 7 -89q-1 -22 -40.5 -83t-59.5 -72q-15 -7 -49 -10q2 -12 2 -19q0 -21 -20 -77.5t-29 -63.5q-35 -26 -115 -55t-179 -29z
" />
    <glyph glyph-name="aTeh.medi_aNun.fina" unicode="&#xfe98;&#xfee6;" horiz-adv-x="849" 
d="M863 545q-12 -19 -30.5 -37t-30.5 -27l-12 -9q-36 27 -62 60q-12 -16 -28 -31t-26 -22l-10 -7q-20 14 -38 32t-26 30l-8 11q36 43 72 73q51 -42 64 -62q32 36 62 62q51 -42 73 -73zM300 334q-20 14 -38 32.5t-26 29.5l-8 11q36 44 72 74q51 -42 73 -74
q-12 -18 -30.5 -36.5t-30.5 -27.5zM242 -203q-61 0 -105 16t-66.5 43.5t-32.5 57.5t-10 66q0 49 20 106.5t40 89.5l21 33l32 -16q-35 -82 -35 -136q0 -131 162 -131q44 0 98 11.5t88 27.5q-12 55 -30 126t-30 114l-13 43l91 96h26q1 -5 5 -33.5t5 -35.5q4 -18 12.5 -25
t35.5 -7q88 0 134 48l60 69h21v-148q0 -63 6 -73.5t50 -10.5h22l16 -3v-122l-16 -3h-22q-61 0 -97 37t-46 98q-1 8 -4 32.5t-4 36.5q-22 -30 -34.5 -44t-37 -28t-53.5 -14h-24q3 -63 3 -109q-1 -21 -33 -79.5t-44 -69.5q-26 -26 -88.5 -44.5t-122.5 -18.5z" />
    <glyph glyph-name="aTeh.medi_aReh.fina" unicode="&#xfe98;&#xfeae;" horiz-adv-x="637" 
d="M651 565q-12 -19 -30.5 -37t-30.5 -27l-12 -9q-36 27 -62 60q-12 -16 -28 -31t-26 -22l-10 -7q-20 14 -38 32t-26 30l-8 11q36 43 72 73q51 -42 64 -62q32 36 62 62q51 -42 73 -73zM123 -203q-19 0 -91.5 42t-86.5 56l16 37q54 -13 91 -13q66 0 120.5 49.5t84.5 116.5
l-96 180l74 106h21l26 -83q8 -19 18.5 -24.5t43.5 -5.5q87 0 133 49l60 69h21v-164q0 -63 6.5 -73.5t50.5 -10.5h22l16 -3v-122l-16 -3h-22q-60 0 -97 37.5t-46 97.5q0 4 -9 83q-23 -31 -35 -44.5t-36 -27.5t-53 -14h-26q-2 -67 -4 -106q-3 -36 -28 -88t-69 -96.5t-89 -44.5
z" />
    <glyph glyph-name="aTheh.init_aAlifMaksura.fina" unicode="&#xfe9b;&#xfef0;" horiz-adv-x="797" 
d="M674 663q-17 14 -33.5 31t-24.5 28l-8 10q34 39 66 68q48 -38 68 -68q-12 -17 -29 -34t-28 -26zM734 539q-29 21 -59 57q-12 -14 -27.5 -28.5t-25.5 -21.5l-9 -7q-18 14 -34.5 31t-24.5 28l-8 10q34 42 67 71l62 -62q3 4 27 28.5t32 33.5q49 -41 70 -71
q-12 -17 -29.5 -34t-28.5 -26zM248 -240q-115 0 -167.5 54t-52.5 130q0 49 20.5 107.5t41.5 92.5l20 34l33 -17q-37 -79 -37 -130q0 -135 161 -135q74 0 149.5 16.5t119.5 39.5q-39 48 -131 48h-20l-3 7l35 116l7 5h98q108 0 140 7q-8 40 -21 94t-22 88l-9 34l78 81h26
l46 -128l-2 -18l-27 -28q9 -61 7 -89q-1 -22 -40.5 -83t-59.5 -72q-15 -7 -49 -10q2 -12 2 -19q0 -21 -20 -77.5t-29 -63.5q-35 -26 -115 -55t-179 -29z" />
    <glyph glyph-name="aTheh.init_aYeh.fina" unicode="&#xfe9b;&#xfef2;" horiz-adv-x="797" 
d="M674 663q-17 14 -33.5 31t-24.5 28l-8 10q34 39 66 68q48 -38 68 -68q-12 -17 -29 -34t-28 -26zM734 539q-29 21 -59 57q-12 -14 -27.5 -28.5t-25.5 -21.5l-9 -7q-18 14 -34.5 31t-24.5 28l-8 10q34 42 67 71l62 -62q3 4 27 28.5t32 33.5q49 -41 70 -71
q-12 -17 -29.5 -34t-28.5 -26zM248 -240q-115 0 -167.5 54t-52.5 130q0 49 20.5 107.5t41.5 92.5l20 34l33 -17q-37 -79 -37 -130q0 -135 161 -135q74 0 149.5 16.5t119.5 39.5q-39 48 -131 48h-20l-3 7l35 116l7 5h98q108 0 140 7q-8 40 -21 94t-22 88l-9 34l78 81h26
l46 -128l-2 -18l-27 -28q9 -61 7 -89q-1 -22 -40.5 -83t-59.5 -72q-15 -7 -49 -10q2 -12 2 -19q0 -21 -20 -77.5t-29 -63.5q-35 -26 -115 -55t-179 -29zM426 -377q-12 -18 -30.5 -36.5t-30.5 -27.5l-12 -9q-30 22 -62 60q-12 -16 -28 -31t-26 -22l-10 -7q-19 14 -37 32.5
t-26 29.5l-9 11q36 43 72 74q51 -43 64 -63q35 40 62 63q52 -43 73 -74z" />
    <glyph glyph-name="aTheh.init_aYehHamza.fina" unicode="&#xfe9b;&#xfe8a;" horiz-adv-x="799" 
d="M675 670q-17 14 -33.5 31t-24.5 27l-8 11q34 39 66 68q48 -38 68 -68q-12 -17 -29 -34t-28 -26zM735 546q-29 21 -59 57q-12 -14 -27.5 -28.5t-24.5 -21.5l-10 -7q-18 14 -34.5 31t-24.5 27l-8 11q34 42 67 71l62 -62q4 4 27.5 28.5t31.5 33.5q49 -41 70 -71
q-12 -17 -29.5 -34t-29.5 -26zM243 299q-10 -5 -61 -18t-62 -13q-6 0 -26 15t-38 29l-17 15l5 22q49 0 60 2v1q-18 10 -18 43q0 39 26.5 76t67.5 37q26 0 42 -25t19 -49l3 -25l-19 -5q-12 20 -39 20q-31 0 -67 -23q6 -16 23 -27t39 -11q38 0 88 19l5 -7zM248 -240
q-115 0 -167.5 54t-52.5 130q0 49 21 107.5t41 92.5l21 34l32 -17q-36 -79 -36 -130q0 -135 161 -135q74 0 149 16.5t119 39.5q-38 48 -130 48h-21l-3 7l35 116l8 5h98q108 0 139 7q-8 40 -21 94t-22 88l-9 34l78 81h27l45 -128l-2 -18l-26 -28q9 -57 6 -89
q-1 -21 -40.5 -82.5t-58.5 -72.5q-18 -7 -50 -10q2 -6 2 -19q0 -21 -20 -77.5t-29 -63.5q-35 -26 -114.5 -55t-179.5 -29z" />
    <glyph glyph-name="aTheh.medi_aNun.fina" unicode="&#xfe9c;&#xfee6;" horiz-adv-x="849" 
d="M725 605q-17 14 -33.5 31t-24.5 28l-8 10q34 39 66 68q48 -38 68 -68q-12 -17 -29 -34t-28 -26zM785 481q-29 21 -59 57q-12 -14 -27.5 -28.5t-24.5 -21.5l-10 -7q-18 14 -34.5 31t-24.5 28l-8 10q34 42 67 71l62 -62q4 4 27.5 28.5t31.5 33.5q49 -41 70 -71
q-12 -17 -29.5 -34t-29.5 -26zM300 334q-19 14 -37 32t-27 30l-8 11q36 43 72 74q51 -43 73 -74q-12 -19 -30.5 -37t-30.5 -27zM242 -203q-61 0 -105 16t-66.5 43.5t-32.5 57.5t-10 66q0 49 20 106.5t40 89.5l21 33l32 -16q-35 -82 -35 -136q0 -131 162 -131q44 0 98 11.5
t88 27.5q-12 55 -30 126t-30 114l-13 43l91 96h26q1 -5 5 -33.5t5 -35.5q4 -18 12.5 -25t35.5 -7q88 0 134 48l60 69h21v-148q0 -63 6 -73.5t50 -10.5h22l16 -3v-122l-16 -3h-22q-61 0 -97 37t-46 98q-1 8 -4 32.5t-4 36.5q-22 -30 -34.5 -44t-37 -28t-53.5 -14h-24
q3 -63 3 -109q-1 -21 -33 -79.5t-44 -69.5q-26 -26 -88.5 -44.5t-122.5 -18.5z" />
    <glyph glyph-name="aTheh.medi_aReh.fina" unicode="&#xfe9c;&#xfeae;" horiz-adv-x="637" 
d="M513 621q-17 14 -33.5 31t-24.5 28l-8 10q34 39 66 68q48 -38 68 -68q-12 -17 -29 -34t-28 -26zM573 497q-29 21 -59 57q-12 -14 -27.5 -28.5t-24.5 -21.5l-10 -7q-18 14 -34.5 31t-24.5 28l-8 10q34 42 67 71l62 -62q4 4 27.5 28.5t31.5 33.5q49 -41 70 -71
q-12 -17 -29.5 -34t-29.5 -26zM123 -203q-19 0 -91.5 42t-86.5 56l16 37q54 -13 91 -13q66 0 120.5 49.5t84.5 116.5l-96 180l74 106h21l26 -83q8 -19 18.5 -24.5t43.5 -5.5q87 0 133 49l60 69h21v-164q0 -63 6.5 -73.5t50.5 -10.5h22l16 -3v-122l-16 -3h-22q-60 0 -97 37.5
t-46 97.5q0 4 -9 83q-23 -31 -35 -44.5t-36 -27.5t-53 -14h-26q-2 -67 -4 -106q-3 -36 -28 -88t-69 -96.5t-89 -44.5z" />
    <glyph glyph-name="aYeh.medi_aNun.fina" unicode="&#xfef4;&#xfee6;" horiz-adv-x="849" 
d="M300 334q-20 14 -38 32.5t-26 29.5l-8 11q36 44 72 74q51 -42 73 -74q-12 -18 -30.5 -36.5t-30.5 -27.5zM242 -203q-61 0 -105 16t-66.5 43.5t-32.5 57.5t-10 66q0 49 20 106.5t40 89.5l21 33l32 -16q-35 -82 -35 -136q0 -131 162 -131q44 0 98 11.5t88 27.5
q-12 55 -30 126t-30 114l-13 43l91 96h26q1 -5 5 -33.5t5 -35.5q4 -18 12.5 -25t35.5 -7q88 0 134 48l60 69h21v-148q0 -63 6 -73.5t50 -10.5h22l16 -3v-122l-16 -3h-22q-61 0 -97 37t-46 98q-1 8 -4 32.5t-4 36.5q-22 -30 -34.5 -44t-37 -28t-53.5 -14h-24q3 -63 3 -109
q-1 -21 -33 -79.5t-44 -69.5q-26 -26 -88.5 -44.5t-122.5 -18.5zM747 -199q-34 26 -57 56q-12 -15 -26.5 -29t-23.5 -20l-9 -7q-18 13 -35 30t-24 27l-8 11q33 40 67 67q47 -39 59 -57q29 34 57 57q48 -39 68 -67q-12 -17 -29 -34t-28 -25z" />
    <glyph glyph-name="aYeh.medi_aReh.fina" unicode="&#xfef4;&#xfeae;" horiz-adv-x="637" 
d="M603 -131q-12 -17 -29 -34t-28 -25l-11 -9q-34 26 -57 56q-12 -15 -27 -29t-24 -20l-9 -7q-18 13 -34.5 30t-23.5 27l-8 11q33 40 66 67q48 -39 60 -57q29 34 57 57q47 -39 68 -67zM123 -203q-19 0 -91.5 42t-86.5 56l16 37q54 -13 91 -13q66 0 120.5 49.5t84.5 116.5
l-96 180l74 106h21l26 -83q8 -19 18.5 -24.5t43.5 -5.5q87 0 133 49l60 69h21v-164q0 -63 6.5 -73.5t50.5 -10.5h22l16 -3v-122l-16 -3h-22q-60 0 -97 37.5t-46 97.5q0 4 -9 83q-23 -31 -35 -44.5t-36 -27.5t-53 -14h-26q-2 -67 -4 -106q-3 -36 -28 -88t-69 -96.5t-89 -44.5
z" />
    <glyph glyph-name="aYehHamza.init_aYeh.fina" unicode="&#xfe8b;&#xfef2;" horiz-adv-x="806" 
d="M752 543q-10 -5 -61 -18t-62 -13q-6 0 -26 15t-37 29l-18 15l5 22q49 0 60 2v1q-18 10 -18 43q0 39 26.5 76t67.5 37q26 0 42 -25t19 -49l3 -25l-19 -5q-12 20 -39 20q-31 0 -67 -23q6 -16 23 -27t39 -11q38 0 88 19l5 -7zM248 -240q-115 0 -167.5 54t-52.5 130
q0 49 20.5 107.5t41.5 92.5l20 34l33 -17q-37 -79 -37 -130q0 -135 161 -135q74 0 149.5 16.5t119.5 39.5q-39 48 -131 48h-20l-3 7l35 116l7 5h98q108 0 140 7q-8 40 -21 94t-22 88l-9 34l78 81h26l46 -128l-2 -18l-27 -28q9 -61 7 -89q-1 -22 -40.5 -83t-59.5 -72
q-15 -7 -49 -10q2 -12 2 -19q0 -21 -20 -77.5t-29 -63.5q-35 -26 -115 -55t-179 -29zM353 -450q-36 27 -62 60q-12 -16 -28 -31t-26 -22l-10 -7q-20 14 -38 32t-26 30l-8 11q36 43 72 73q51 -42 64 -62q32 36 62 62q51 -42 73 -73q-12 -19 -30.5 -37t-30.5 -27z" />
    <glyph glyph-name="aYehHamza.init_aYehHamza.fina" unicode="&#xfe8b;&#xfe8a;" horiz-adv-x="806" 
d="M753 543q-10 -5 -61 -18t-62 -13q-6 0 -26 15t-38 29l-17 15l5 22q49 0 60 2v1q-18 10 -18 43q0 39 26.5 76t67.5 37q26 0 42 -25t19 -49l3 -25l-19 -5q-12 20 -39 20q-31 0 -67 -23q6 -16 23 -27t39 -11q38 0 88 19l5 -7zM243 299q-10 -5 -61 -18t-62 -13q-6 0 -26 15
t-38 29l-17 15l5 22q49 0 60 2v1q-18 10 -18 43q0 39 26.5 76t67.5 37q26 0 42 -25t19 -49l3 -25l-19 -5q-12 20 -39 20q-31 0 -67 -23q6 -16 23 -27t39 -11q38 0 88 19l5 -7zM248 -240q-115 0 -167.5 54t-52.5 130q0 49 21 107.5t41 92.5l21 34l32 -17q-36 -79 -36 -130
q0 -135 161 -135q74 0 149 16.5t119 39.5q-38 48 -130 48h-21l-3 7l35 116l8 5h98q108 0 139 7q-8 40 -21 94t-22 88l-9 34l78 81h27l45 -128l-2 -18l-26 -28q9 -57 6 -89q-1 -21 -40.5 -82.5t-58.5 -72.5q-18 -7 -50 -10q2 -6 2 -19q0 -21 -20 -77.5t-29 -63.5
q-35 -26 -114.5 -55t-179.5 -29z" />
    <glyph glyph-name="aYehHamza.medi_aNun.fina" unicode="&#xfe8c;&#xfee6;" horiz-adv-x="849" 
d="M809 479q-10 -5 -61 -18t-62 -13q-6 0 -26 15t-38 29l-17 15l5 22q49 0 60 2v1q-18 10 -18 43q0 39 26.5 76t67.5 37q26 0 42 -25t19 -49l3 -25l-19 -5q-12 20 -39 20q-31 0 -67 -23q6 -16 23 -27t39 -11q38 0 88 19l5 -7zM300 334q-20 14 -38 32.5t-26 29.5l-8 11
q36 44 72 74q51 -42 73 -74q-12 -18 -30.5 -36.5t-30.5 -27.5zM242 -203q-61 0 -105 16t-66.5 43.5t-32.5 57.5t-10 66q0 49 20 106.5t40 89.5l21 33l32 -16q-35 -82 -35 -136q0 -131 162 -131q44 0 98 11.5t88 27.5q-12 55 -30 126t-30 114l-13 43l91 96h26q1 -5 5 -33.5
t5 -35.5q4 -18 12.5 -25t35.5 -7q88 0 134 48l60 69h21v-148q0 -63 6 -73.5t50 -10.5h22l16 -3v-122l-16 -3h-22q-61 0 -97 37t-46 98q-1 8 -4 32.5t-4 36.5q-22 -30 -34.5 -44t-37 -28t-53.5 -14h-24q3 -63 3 -109q-1 -21 -33 -79.5t-44 -69.5q-26 -26 -88.5 -44.5
t-122.5 -18.5z" />
    <glyph glyph-name="aYehHamza.medi_aReh.fina" unicode="&#xfe8c;&#xfeae;" horiz-adv-x="637" 
d="M596 499q-10 -5 -61 -18t-62 -13q-6 0 -26 15t-37 29l-18 15l5 22q49 0 60 2v1q-18 10 -18 43q0 39 26.5 76t67.5 37q26 0 42 -25t19 -49l3 -25l-19 -5q-12 20 -39 20q-31 0 -67 -23q6 -16 23 -27t39 -11q38 0 88 19l5 -7zM123 -203q-19 0 -91.5 42t-86.5 56l16 37
q54 -13 91 -13q66 0 120.5 49.5t84.5 116.5l-96 180l74 106h21l26 -83q8 -19 18.5 -24.5t43.5 -5.5q87 0 133 49l60 69h21v-164q0 -63 6.5 -73.5t50.5 -10.5h22l16 -3v-122l-16 -3h-22q-60 0 -97 37.5t-46 97.5q0 4 -9 83q-23 -31 -35 -44.5t-36 -27.5t-53 -14h-26
q-2 -67 -4 -106q-3 -36 -28 -88t-69 -96.5t-89 -44.5z" />
    <glyph glyph-name="f_b" unicode="fb" horiz-adv-x="865" 
d="M404 29v566l-122 49q-62 -37 -62 -114v-75h102v-68h-102v-319l71 -25v-43h-262v42l71 23v322h-81v50l81 19v47q0 83 67 144t172 61q43 0 96 -14l30 9h60v-281q67 43 134 43q89 0 137 -56t48 -167q0 -112 -77.5 -181t-182.5 -69q-114 0 -180 37zM578 59q68 0 101 49
t33 129q0 74 -35.5 115.5t-91.5 41.5q-30 0 -60 -10v-316q29 -9 53 -9z" />
    <glyph glyph-name="f_h" unicode="fh" horiz-adv-x="917" 
d="M334 0v42l72 25v527l-124 50q-62 -37 -62 -114v-75h102v-68h-102v-319l71 -25v-43h-262v42l71 23v322h-81v50l81 19v47q0 83 67 144t172 61q48 0 96 -14l32 9h60v-304q83 66 171 66q63 0 98.5 -43.5t35.5 -124.5v-229l68 -25v-43h-260v42l71 26v199q0 111 -98 111
q-37 0 -86 -19v-290l67 -26v-43h-260z" />
    <glyph glyph-name="f_idieresis" unicode="f&#xef;" horiz-adv-x="631" 
d="M522 605q0 23 15.5 39t39.5 16q22 0 37.5 -16t15.5 -39t-15.5 -38.5t-37.5 -15.5q-24 0 -39.5 15.5t-15.5 38.5zM354 605q0 23 15.5 39t38.5 16t39 -16t16 -39t-16 -38.5t-39 -15.5t-38.5 15.5t-15.5 38.5zM336 600l-17 -1l-75 28q-24 -36 -24 -92v-80h203l69 10h52v-397
l73 -25v-43h-261v42l67 23v322h-203v-319l75 -25v-43h-266v42l71 23v322h-81v50l81 19v51q0 87 65.5 143t147.5 56q28 0 53 -9z" />
    <glyph glyph-name="f_igrave" unicode="f&#xec;" horiz-adv-x="632" 
d="M370 636l65 71l129 -153l-32 -36zM336 600l-17 -1l-75 28q-24 -36 -24 -92v-80h203l69 10h52v-397l73 -25v-43h-261v42l67 23v322h-203v-319l75 -25v-43h-266v42l71 23v322h-81v50l81 19v51q0 87 65.5 143t147.5 56q28 0 53 -9z" />
    <glyph glyph-name="f_j" unicode="fj" horiz-adv-x="580" 
d="M29 0v42l71 23v322h-81v50l81 19v38q0 89 66.5 152.5t167.5 63.5q71 0 129 -26l-17 -104h-25l-140 66q-61 -36 -61 -115v-76h185l67 10h52v-449q0 -65 -39 -129.5t-107 -107.5l-40 33q29 32 47 83t18 109v383h-183v-319l70 -25v-43h-261z" />
    <glyph glyph-name="f_k" unicode="fk" horiz-adv-x="858" 
d="M336 0v42l71 26v526l-125 50q-62 -37 -62 -114v-75h102v-68h-102v-319l71 -25v-43h-262v42l71 23v322h-81v50l81 19v47q0 83 67 144t172 61q44 0 97 -14l32 9h60v-636l67 -24v-43h-259zM851 0h-174l-132 231v20l123 133l-70 31v40h229v-41l-56 -31l-120 -110l131 -200
l69 -31v-42z" />
    <glyph glyph-name="uniFE8BFEF0.fina" unicode="&#xfe8b;&#xfef0;" horiz-adv-x="798" 
d="M752 543q-10 -5 -61 -18t-62 -13q-6 0 -26 15t-37 29l-18 15l5 22q49 0 60 2v1q-18 10 -18 43q0 39 26.5 76t67.5 37q26 0 42 -25t19 -49l3 -25l-19 -5q-12 20 -39 20q-31 0 -67 -23q6 -16 23 -27t39 -11q38 0 88 19l5 -7zM248 -240q-115 0 -167.5 54t-52.5 130
q0 49 20.5 107.5t41.5 92.5l20 34l33 -17q-37 -79 -37 -130q0 -135 161 -135q74 0 149.5 16.5t119.5 39.5q-39 48 -131 48h-20l-3 7l35 116l7 5h98q108 0 140 7q-8 40 -21 94t-22 88l-9 34l78 81h26l46 -128l-2 -18l-27 -28q9 -61 7 -89q-1 -22 -40.5 -83t-59.5 -72
q-15 -7 -49 -10q2 -12 2 -19q0 -21 -20 -77.5t-29 -63.5q-35 -26 -115 -55t-179 -29z" />
    <glyph glyph-name="aAlifWavyhamza.fina" unicode="&#x672;" horiz-adv-x="287" 
d="M92 664q-9 0 -17 2.5t-14 7t-11 9t-8.5 10.5t-5.5 10t-4 9l-3 5l-43 -61l-18 7q5 24 27 70q2 4 27.5 24.5t32.5 20.5l15 -14q14 -13 30 -13q17 0 25 4q-20 12 -20 43q0 39 26.5 73t67.5 34q26 0 42.5 -24.5t19.5 -48.5l3 -24l-20 -5q-18 24 -46 24q-33 0 -59 -26
q18 -37 61 -37q40 0 85 17l5 -7l-31 -70q-27 -10 -84 -25t-83 -15zM303 125v-122l-16 -3q-111 0 -157.5 82t-47.5 268l-3 201l85 75h27v-458q0 -27 19.5 -33.5t76.5 -6.5z" />
    <glyph glyph-name="aAlifWavyhamzabelow.fina" unicode="&#x673;" horiz-adv-x="288" 
d="M288 0q-110 0 -154 78.5t-47 265.5l-7 297l85 74h26v-547q0 -27 19.5 -33.5t77.5 -6.5l16 -3v-122zM93 -273q-9 0 -17 2.5t-14 7t-11 9t-8.5 10.5t-5.5 10t-5 9l-2 5l-43 -61l-18 7q5 24 27 70q2 4 27.5 24.5t32.5 20.5l14 -13q15 -14 31 -14q17 0 25 4q-20 12 -20 43
q0 39 26.5 73t67.5 34q26 0 42.5 -24t19.5 -48l3 -25l-20 -5q-18 24 -46 24q-33 0 -59 -26q18 -36 61 -36q40 0 85 17l5 -7l-31 -71q-27 -10 -84 -25t-83 -15z" />
    <glyph glyph-name="aTehring.init" unicode="&#x67c;" horiz-adv-x="279" 
d="M284 595q-12 -19 -30.5 -37t-30.5 -27l-12 -9q-36 27 -62 60q-12 -16 -28 -31t-26 -22l-10 -7q-20 14 -38 32t-26 30l-8 11q36 43 72 73q51 -42 64 -62q32 36 62 62q51 -42 73 -73zM102 -109q-32 0 -56 23t-24 55q0 16 7 32q-10 -1 -29 -1l-16 3v122l16 3q104 0 138 6
q-7 42 -20.5 96t-23.5 88l-9 33l81 81h26l45 -128l-1 -18l-27 -28q9 -61 7 -89q-1 -16 -25.5 -58t-49.5 -72q39 -21 39 -70q0 -33 -22.5 -55.5t-55.5 -22.5zM102 -67q17 0 27.5 10.5t10.5 25.5q0 18 -10.5 28.5t-27.5 10.5t-28.5 -10.5t-11.5 -28.5q0 -15 11.5 -25.5
t28.5 -10.5z" />
    <glyph glyph-name="aTehring.medi" unicode="&#x67c;" horiz-adv-x="306" 
d="M308 499q-12 -18 -30.5 -36.5t-30.5 -27.5l-12 -9q-33 25 -62 61q-12 -16 -28 -31t-26 -22l-10 -8q-19 14 -37 32.5t-26 29.5l-8 11q35 43 71 74q51 -42 64 -62q28 32 62 62q52 -42 73 -74zM169 -25q0 -33 -22.5 -55.5t-55.5 -22.5t-57 23t-24 55q0 11 4 25h-14l-16 3
v122l16 3q58 0 93 7l39 155l75 48l21 -6q-10 -138 -23 -188q31 -16 101 -16l16 -3v-122l-16 -3h-9q-101 0 -161 77q-4 -5 -12.5 -14.5t-9.5 -10.5q25 -8 40 -28.5t15 -48.5zM91 -60q17 0 27.5 10t10.5 25q0 18 -10.5 28.5t-27.5 10.5l-15 -2l-3 -2l-3 -1q-19 -10 -19 -34
q0 -15 11.5 -25t28.5 -10z" />
    <glyph glyph-name="aTehring.fina" unicode="&#x67c;" horiz-adv-x="779" 
d="M515 421q-12 -19 -30.5 -37t-30.5 -27l-12 -9q-36 27 -62 60q-12 -16 -28 -31t-26 -22l-10 -7q-20 14 -38 32t-26 30l-8 11q36 43 72 73q51 -42 64 -62q32 36 62 62q51 -42 73 -73zM427 -47q0 -33 -22.5 -55.5t-56.5 -22.5q-32 0 -56 23t-24 55q0 28 16 47
q-259 2 -259 194q0 49 20.5 106t41.5 90l21 32l32 -17q-36 -83 -36 -135q0 -142 205 -142q142 0 256 13l38 149l75 50l20 -8q-9 -134 -22 -188q31 -16 101 -16l16 -3v-122l-16 -3q-69 0 -107 17.5t-66 61.5q-51 -53 -61 -57q-43 -14 -133 -19q17 -20 17 -50zM348 -83
q18 0 28.5 10.5t10.5 25.5q0 18 -10.5 28.5t-28.5 10.5q-17 0 -28 -10.5t-11 -28.5q0 -15 11.5 -25.5t27.5 -10.5z" />
    <glyph glyph-name="aTeh3dabove.init" unicode="&#x67d;" horiz-adv-x="279" 
d="M284 709q-34 -42 -67 -71l-62 62q-4 -4 -27.5 -28.5t-31.5 -33.5q-49 41 -70 71q12 17 29.5 34t28.5 26l12 9q29 -21 59 -57q12 14 27.5 28.5t25.5 21.5l9 7q18 -14 34.5 -31t24.5 -27zM156 654q17 -14 33.5 -31t24.5 -27l8 -11q-34 -39 -66 -68q-48 38 -68 68
q12 17 29 34t28 26zM0 0l-16 3v122l16 3q102 0 137 6q-7 42 -20 96t-23 88l-9 33l80 81h27l45 -128l-2 -18l-26 -28q9 -57 6 -89q-1 -21 -40.5 -82.5t-58.5 -72.5q-33 -14 -116 -14z" />
    <glyph glyph-name="aTeh3dabove.medi" unicode="&#x67d;" horiz-adv-x="306" 
d="M298 611q-34 -42 -67 -71l-62 62q-4 -4 -27.5 -28.5t-31.5 -33.5q-49 41 -70 71q12 17 29.5 34t28.5 26l12 9q29 -21 59 -57q12 14 27.5 28.5t25.5 21.5l9 7q18 -14 34.5 -31t24.5 -27zM170 556q17 -14 33.5 -31t24.5 -27l8 -11q-34 -39 -66 -68q-48 38 -68 68
q12 17 29 34t28 26zM306 0h-9q-101 0 -161 77q-52 -63 -63 -67q-20 -10 -73 -10l-16 3v122l16 3q58 0 93 7l39 155l75 48l21 -6q-10 -138 -23 -188q31 -16 101 -16l16 -3v-122z" />
    <glyph glyph-name="aTeh3dabove.fina" unicode="&#x67d;" horiz-adv-x="779" 
d="M503 531q-34 -42 -67 -71l-62 62q-4 -4 -27.5 -28.5t-31.5 -33.5q-49 41 -70 71q12 17 29.5 34t29.5 26l11 9q29 -21 59 -57q12 14 27.5 28.5t24.5 21.5l10 7q18 -14 34.5 -31t24.5 -27zM375 476q17 -14 33.5 -31t24.5 -27l8 -11q-34 -39 -66 -68q-48 38 -68 68
q12 17 29 34t28 26zM793 3l-16 -3q-69 0 -107 17.5t-66 61.5q-51 -53 -61 -57q-67 -22 -253 -22q-265 0 -265 194q0 49 20.5 106t41.5 90l21 32l32 -17q-36 -83 -36 -135q0 -142 205 -142q142 0 256 13l38 149l75 50l20 -8q-9 -134 -22 -188q31 -16 101 -16l16 -3v-122z" />
    <glyph glyph-name="aHahHamzaabove.init" unicode="&#x681;" horiz-adv-x="647" 
d="M418 480q-10 -5 -61 -18t-62 -13q-6 0 -26 14.5t-37 29.5l-18 15l5 22q49 0 60 2v1q-18 10 -18 43q0 39 26.5 76t67.5 37q26 0 42 -24.5t19 -49.5l3 -25l-19 -5q-12 20 -39 20q-31 0 -67 -23q6 -16 23 -27t39 -11q38 0 88 19l5 -7zM316 68q-66 -38 -111 -53t-122 -15h-83
l-16 3v122l16 3h135q94 0 189 33q43 17 63 21q-66 20 -121 54q-16 9 -60.5 35.5t-60.5 33.5l-87 -59l-23 26q10 16 26.5 39.5t55.5 63t63 39.5q8 0 17 -3t23 -10.5t26 -15t35.5 -21.5t40.5 -24q54 -32 112 -47.5t87 -15.5h87l7 -22l-40 -90l-80 1q-24 -4 -52.5 -19.5
t-68.5 -42t-58 -36.5z" />
    <glyph glyph-name="aHahHamzaabove.medi" unicode="&#x681;" horiz-adv-x="661" 
d="M418 480q-10 -5 -61 -18t-62 -13q-6 0 -26 14.5t-37 29.5l-18 15l5 22q49 0 60 2v1q-18 10 -18 43q0 39 26.5 76t67.5 37q26 0 42 -24.5t19 -49.5l3 -25l-19 -5q-12 20 -39 20q-31 0 -67 -23q6 -16 23 -27t39 -11q38 0 88 19l5 -7zM316 68q-66 -38 -111 -53t-122 -15h-83
l-16 3v122l16 3h135q99 0 191 34q49 17 61 20q-63 19 -121 54q-16 9 -60.5 35.5t-60.5 33.5l-87 -59l-23 26q10 16 26.5 39.5t55.5 63t63 39.5q8 0 17 -3t23 -10.5t26 -15t35.5 -21.5t40.5 -24q54 -32 112 -47.5t87 -15.5h83l7 -22l-43 -90l-26 -1q8 -36 60 -36h59l16 -3
v-122l-16 -3h-70q-62 0 -84.5 47t-9.5 113q-19 -3 -44 -14t-42.5 -20.5t-50 -30t-44.5 -27.5z" />
    <glyph glyph-name="aHahHamzaabove.fina" unicode="&#x681;" horiz-adv-x="645" 
d="M410 490q-10 -5 -61 -18t-62 -13q-6 0 -26 14.5t-37 29.5l-18 15l5 22q49 0 60 2v1q-18 10 -18 43q0 39 26.5 76t67.5 37q26 0 42 -24.5t19 -49.5l3 -25l-19 -5q-12 20 -39 20q-31 0 -67 -23q6 -16 23 -27t39 -11q38 0 88 19l5 -7zM627 -196q-36 -23 -130 -69.5
t-110 -46.5q-117 0 -201 42.5t-104 94.5q-11 28 -20 80.5t-7 70.5q11 81 71.5 145t123.5 95q25 12 99 19l1 6q-55 5 -132.5 21t-84.5 17l-81 -73l-27 22q3 7 9 17.5l22 38.5t30.5 49.5t32 39t29.5 17.5q17 0 135.5 -24t204.5 -24h105l6 -18l-38 -93l-44 2q-3 -56 15 -80.5
t73 -24.5h40l16 -3v-122l-16 -3h-45q-62 0 -95 31t-35 80t13 110q-63 -21 -140 -63t-133 -84q-88 -69 -106 -142q84 -108 324 -108l191 10z" />
    <glyph glyph-name="aHah3uabove.init" unicode="&#x685;" horiz-adv-x="647" 
d="M363 566q-17 14 -33.5 31t-24.5 27l-8 11q34 39 66 68q48 -38 68 -68q-12 -17 -29 -34t-28 -26zM423 442q-29 21 -59 57q-12 -14 -27.5 -28.5t-24.5 -21.5l-10 -7q-18 14 -34.5 31t-24.5 27l-8 11q34 42 67 71l62 -62q4 4 27.5 28.5t31.5 33.5q49 -41 70 -71
q-12 -17 -29.5 -34t-29.5 -26zM316 68q-66 -38 -111 -53t-122 -15h-83l-16 3v122l16 3h135q94 0 189 33q43 17 63 21q-66 20 -121 54q-16 9 -60.5 35.5t-60.5 33.5l-87 -59l-23 26q10 16 26.5 39.5t55.5 63t63 39.5q8 0 17 -3t23 -10.5t26 -15t35.5 -21.5t40.5 -24
q54 -32 112 -47.5t87 -15.5h87l7 -22l-40 -90l-80 1q-24 -4 -52.5 -19.5t-68.5 -42t-58 -36.5z" />
    <glyph glyph-name="aHah3uabove.medi" unicode="&#x685;" horiz-adv-x="661" 
d="M363 566q-17 14 -33.5 31t-24.5 27l-8 11q34 39 66 68q48 -38 68 -68q-12 -17 -29 -34t-28 -26zM423 442q-29 21 -59 57q-12 -14 -27.5 -28.5t-24.5 -21.5l-10 -7q-18 14 -34.5 31t-24.5 27l-8 11q34 42 67 71l62 -62q4 4 27.5 28.5t31.5 33.5q49 -41 70 -71
q-12 -17 -29.5 -34t-29.5 -26zM316 68q-66 -38 -111 -53t-122 -15h-83l-16 3v122l16 3h135q99 0 191 34q49 17 61 20q-63 19 -121 54q-16 9 -60.5 35.5t-60.5 33.5l-87 -59l-23 26q10 16 26.5 39.5t55.5 63t63 39.5q8 0 17 -3t23 -10.5t26 -15t35.5 -21.5t40.5 -24
q54 -32 112 -47.5t87 -15.5h83l7 -22l-43 -90l-26 -1q8 -36 60 -36h59l16 -3v-122l-16 -3h-70q-62 0 -84.5 47t-9.5 113q-19 -3 -44 -14t-42.5 -20.5t-50 -30t-44.5 -27.5z" />
    <glyph glyph-name="aHah3uabove.fina" unicode="&#x685;" horiz-adv-x="645" 
d="M323 590q-17 14 -33.5 31t-24.5 27l-8 11q34 39 66 68q48 -38 68 -68q-12 -17 -29 -34t-28 -26zM383 466q-29 21 -59 57q-12 -14 -27.5 -28.5t-24.5 -21.5l-10 -7q-18 14 -34.5 31t-24.5 27l-8 11q34 42 67 71l62 -62q4 4 27.5 28.5t31.5 33.5q49 -41 70 -71
q-12 -17 -29.5 -34t-29.5 -26zM627 -196q-36 -23 -130 -69.5t-110 -46.5q-117 0 -201 42.5t-104 94.5q-11 28 -20 80.5t-7 70.5q11 81 71.5 145t123.5 95q25 12 99 19l1 6q-55 5 -132.5 21t-84.5 17l-81 -73l-27 22q3 7 9 17.5l22 38.5t30.5 49.5t32 39t29.5 17.5
q17 0 135.5 -24t204.5 -24h105l6 -18l-38 -93l-44 2q-3 -56 15 -80.5t73 -24.5h40l16 -3v-122l-16 -3h-45q-62 0 -95 31t-35 80t13 110q-63 -21 -140 -63t-133 -84q-88 -69 -106 -142q84 -108 324 -108l191 10z" />
    <glyph glyph-name="aDalring.fina" unicode="&#x689;" horiz-adv-x="492" 
d="M277 -42q0 -33 -22.5 -55.5t-55.5 -22.5q-32 0 -56 23t-24 55q0 25 13 43q-104 11 -104 108q0 36 13 78t23 59l37 -10q-8 -35 -8 -53q0 -17 5 -27t28.5 -19t67.5 -9q62 0 132 4l-111 280l75 87h26l86 -281q21 -63 35 -76.5t55 -13.5l16 -3v-122l-16 -3h-13q-49 0 -81 21
t-55 73l-54 -80q-4 -3 -28 -6q16 -21 16 -50zM199 -78q17 0 27.5 10.5t10.5 25.5q0 18 -10.5 28.5t-27.5 10.5t-28.5 -10.5t-11.5 -28.5q0 -15 11.5 -25.5t28.5 -10.5z" />
    <glyph glyph-name="aDal1below.fina" unicode="&#x68a;" horiz-adv-x="492" 
d="M492 0h-13q-49 0 -81 21t-55 73l-54 -80q-7 -4 -50.5 -9t-79.5 -5q-131 0 -131 109q0 36 13 78t23 59l37 -10q-8 -35 -8 -53q0 -17 5 -27t28.5 -19t67.5 -9q62 0 132 4l-111 280l75 87h26l86 -281q21 -63 35 -76.5t55 -13.5l16 -3v-122zM220 -210q-20 14 -38 32.5
t-26 29.5l-8 11q36 44 72 74q51 -42 73 -74q-12 -18 -30.5 -36.5t-30.5 -27.5z" />
    <glyph glyph-name="aDal3dabove.fina" unicode="&#x68f;" horiz-adv-x="492" 
d="M396 770q-34 -42 -67 -71l-62 62q-4 -4 -27.5 -28.5t-31.5 -33.5q-49 41 -70 71q12 17 29.5 34t28.5 26l12 9q29 -21 59 -57q12 14 27.5 28.5t25.5 21.5l9 7q18 -14 34.5 -31t24.5 -28zM268 715q17 -14 33.5 -31t24.5 -28l8 -10q-34 -39 -66 -68q-48 38 -68 68
q12 17 29 34t28 26zM492 0h-13q-49 0 -81 21t-55 73l-54 -80q-7 -4 -50.5 -9t-79.5 -5q-131 0 -131 109q0 36 13 78t23 59l37 -10q-8 -35 -8 -53q0 -17 5 -27t28.5 -19t67.5 -9q62 0 132 4l-111 280l75 87h26l86 -281q21 -63 35 -76.5t55 -13.5l16 -3v-122z" />
    <glyph glyph-name="aRehVabove.fina" unicode="&#x692;" horiz-adv-x="376" 
d="M223 445h-62l-6 5q-22 62 -91 116l40 73l9 2q54 -53 82 -136q24 70 76 134l10 -1l31 -55q-70 -80 -89 -138zM96 -203q-19 0 -83.5 41.5t-80.5 57.5l15 36q46 -12 77 -12q129 0 198 168q-19 39 -70 159l72 86h21l19 -81q20 -80 39 -102t69 -22l16 -3v-122l-16 -3h-12
q-46 0 -90 46q-2 -29 -13.5 -68.5t-32 -81.5t-54.5 -70.5t-74 -28.5z" />
    <glyph glyph-name="aRehring.fina" unicode="&#x693;" horiz-adv-x="372" 
d="M324 -151q0 -33 -22.5 -55.5t-55.5 -22.5q-26 0 -47.5 15t-28.5 39q-36 -28 -74 -28q-19 0 -83.5 41.5t-80.5 57.5l15 36q46 -12 77 -12q129 0 198 168q-19 39 -70 159l72 86h21l19 -81q20 -80 39 -102t69 -22l16 -3v-122l-16 -3h-12q-46 0 -90 46q-4 -52 -30 -118h6
q34 0 56 -22.5t22 -56.5zM206 -151q0 -15 11.5 -25t28.5 -10t27.5 10t10.5 25q0 18 -10.5 28.5t-27.5 10.5t-28.5 -10.5t-11.5 -28.5z" />
    <glyph glyph-name="aReh1below.fina" unicode="&#x694;" horiz-adv-x="372" 
d="M96 -203q-19 0 -83.5 41.5t-80.5 57.5l15 36q46 -12 77 -12q129 0 198 168q-19 39 -70 159l72 86h21l19 -81q20 -80 39 -102t69 -22l16 -3v-122l-16 -3h-12q-46 0 -90 46q-2 -29 -13.5 -68.5t-32 -81.5t-54.5 -70.5t-74 -28.5zM122 -418q-20 14 -38 32.5t-26 29.5l-8 11
q36 44 72 74q51 -42 73 -74q-12 -18 -30.5 -36.5t-30.5 -27.5z" />
    <glyph glyph-name="aRehVbelow.fina" unicode="&#x695;" horiz-adv-x="372" 
d="M96 -203q-19 0 -83.5 41.5t-80.5 57.5l15 36q46 -12 77 -12q129 0 198 168q-19 39 -70 159l72 86h21l19 -81q20 -80 39 -102t69 -22l16 -3v-122l-16 -3h-12q-46 0 -90 46q-2 -29 -13.5 -68.5t-32 -81.5t-54.5 -70.5t-74 -28.5zM169 -452h-62l-5 5q-21 61 -92 116l40 73
l9 2q52 -49 83 -136q22 69 75 134l10 -1l32 -56q-70 -76 -90 -137z" />
    <glyph glyph-name="aReh1above1below.fina" unicode="&#x696;" horiz-adv-x="372" 
d="M43 44q-20 14 -38 32.5t-26 29.5l-8 11q36 44 72 74q51 -42 73 -74q-12 -18 -30.5 -36.5t-30.5 -27.5zM96 -203q-19 0 -83.5 41.5t-80.5 57.5l15 36q46 -12 77 -12q129 0 198 168q-19 39 -70 159l72 86h21l19 -81q20 -80 39 -102t69 -22l16 -3v-122l-16 -3h-12
q-46 0 -90 46q-2 -29 -13.5 -68.5t-32 -81.5t-54.5 -70.5t-74 -28.5zM295 -314q-20 14 -38 32.5t-26 29.5l-8 11q36 44 72 74q51 -42 73 -74q-12 -18 -30.5 -36.5t-30.5 -27.5z" />
    <glyph glyph-name="aReh4above.fina" unicode="&#x699;" horiz-adv-x="369" 
d="M253 438q-11 7 -33 27t-30 32q-27 -33 -62 -59q-40 29 -69 67q16 23 62 64q-43 35 -62 64q8 12 23 26t29.5 27t16.5 15q28 -21 61 -59q8 10 64 59q18 -14 39.5 -36.5t27.5 -31.5q-6 -9 -27 -31.5t-34 -32.5q41 -38 61 -64q-21 -31 -67 -67zM189 512l58 57l-58 58l-56 -58
zM89 -203q-19 0 -83.5 41.5t-80.5 57.5l15 36q46 -12 77 -12q129 0 198 168q-19 39 -70 159l72 86h21l19 -81q20 -80 39 -102t69 -22l16 -3v-122l-16 -3h-12q-46 0 -90 46q-2 -29 -13.5 -68.5t-32 -81.5t-54.5 -70.5t-74 -28.5z" />
    <glyph glyph-name="aSin1above1below.init" unicode="&#x69a;" horiz-adv-x="727" 
d="M413 420q-20 14 -38 32.5t-26 29.5l-8 11q36 44 72 74q51 -42 73 -74q-12 -18 -30.5 -36.5t-30.5 -27.5zM567 -14q-29 0 -87 24t-111 65q-20 -43 -46.5 -59t-76.5 -16q-44 0 -73.5 14.5t-52.5 57.5q-26 -39 -51 -55.5t-69 -16.5l-16 3v122l16 3q45 0 83 4l37 100l61 41
l21 -10q-6 -55 -17 -126q31 -9 83 -9q30 0 54 3l47 150l64 42l20 -10q-4 -59 -18 -158q31 -18 78 -35t83 -23l-34 224l84 71h27q12 -196 12 -258q0 -23 -48.5 -85.5t-69.5 -62.5zM383 -222q-20 14 -38 32.5t-26 29.5l-8 11q36 44 72 74q51 -42 73 -74q-12 -18 -30.5 -36.5
t-30.5 -27.5z" />
    <glyph glyph-name="aSin1above1below.medi" unicode="&#x69a;" horiz-adv-x="759" 
d="M413 420q-20 14 -38 32.5t-26 29.5l-8 11q36 44 72 74q51 -42 73 -74q-12 -18 -30.5 -36.5t-30.5 -27.5zM759 0h-19q-45 0 -73 18.5t-49 61.5q-21 -46 -47 -63t-76 -17q-44 0 -74.5 15t-52.5 56q-21 -40 -47.5 -55.5t-74.5 -15.5q-44 0 -73.5 14.5t-52.5 57.5
q-26 -39 -51 -55.5t-69 -16.5l-16 3v122l16 3q45 0 83 4l37 100l61 41l21 -10q-6 -55 -17 -126q31 -9 83 -9q30 0 54 3l47 150l64 42l20 -10q-4 -63 -21 -174q33 -11 85 -11q29 0 71 5l-17 157l85 66h27v-179q0 -31 8.5 -40t47.5 -9h20l16 -3v-122zM389 -222
q-20 14 -38 32.5t-26 29.5l-8 11q36 44 72 74q51 -42 73 -74q-12 -18 -30.5 -36.5t-30.5 -27.5z" />
    <glyph glyph-name="aSin1above1below.fina" unicode="&#x69a;" horiz-adv-x="1087" 
d="M741 426q-20 14 -38 32.5t-26 29.5l-8 11q36 44 72 74q51 -42 73 -74q-12 -18 -30.5 -36.5t-30.5 -27.5zM236 -203q-113 0 -160.5 53t-47.5 130q0 49 20.5 108.5t41.5 94.5l20 35l31 -16q-35 -91 -35 -145q0 -131 155 -131q53 0 105.5 13.5t78.5 31.5l-40 269l91 73h27
l5 -180q22 -5 67 -5q30 0 54 3l46 150l65 42l20 -10q-7 -87 -21 -174q33 -11 85 -11q30 0 72 5l-18 157l86 66h26v-179q0 -31 8.5 -40t48.5 -9h20l16 -3v-122l-16 -3h-19q-45 0 -73.5 18.5t-49.5 61.5q-21 -46 -47 -63t-76 -17q-44 0 -74.5 15t-53.5 56q-20 -40 -46.5 -55.5
t-74.5 -15.5q-29 0 -52 13q-5 -20 -30 -71.5t-38 -69.5q-28 -32 -94 -53.5t-123 -21.5zM716 -222q-20 14 -38 32.5t-26 29.5l-8 11q36 44 72 74q51 -42 73 -74q-12 -18 -30.5 -36.5t-30.5 -27.5z" />
    <glyph glyph-name="aKafswash.init" unicode="&#x6aa;" horiz-adv-x="727" 
d="M424 0h-424l-16 3v122l16 3h467q142 0 182 3q-12 26 -24 42.5t-38.5 36.5t-73 30t-112.5 10q-314 0 -328 23q-2 11 18 76t28 74q31 44 174.5 130.5t161.5 86.5l13 -13l-53 -129q-186 -73 -263 -130h265q67 0 119 -15.5t81.5 -38t48 -54t24.5 -59.5t6 -57q0 -17 -27 -69.5
t-36 -59.5q-17 -15 -209 -15z" />
    <glyph glyph-name="aKafswash.medi" unicode="&#x6aa;" horiz-adv-x="791" 
d="M633 15q-17 -15 -209 -15h-424l-16 3v122l16 3h467q142 0 182 3q-12 26 -24 42.5t-38.5 36.5t-73 30t-112.5 10q-314 0 -328 23q-2 11 18 76t28 74q31 44 174.5 130.5t161.5 86.5l13 -13l-53 -129q-186 -73 -263 -130h265q77 0 133 -19t85.5 -51t43 -64.5t16.5 -69.5
q7 -25 21.5 -30.5t74.5 -5.5l16 -3v-122l-16 -3q-49 0 -76.5 19.5t-45.5 56.5q-28 -55 -36 -61z" />
    <glyph glyph-name="aKafswash.fina" unicode="&#x6aa;" horiz-adv-x="984" 
d="M826 15q-17 -15 -209 -15h-317q-33 0 -68 3.5t-55.5 8t-23.5 6.5l-139 111l9 18q140 -19 257 -19h380q142 0 182 3q-9 20 -17 33.5t-26.5 31.5t-43 28.5t-65.5 18t-95 7.5q-315 0 -329 23q-2 11 18 76t28 74q31 44 174.5 130.5t161.5 86.5l13 -13l-53 -129
q-186 -73 -263 -130h266q77 0 133 -19t85 -51t42.5 -64.5t16.5 -69.5q7 -25 21.5 -30.5t74.5 -5.5l16 -3v-122l-16 -3q-49 0 -76.5 19.5t-45.5 55.5q-25 -51 -36 -60z" />
    <glyph glyph-name="aKafring.init" unicode="&#x6ab;" horiz-adv-x="470" 
d="M308 482q0 -15 11.5 -25.5t27.5 -10.5q18 0 28.5 10.5t10.5 25.5q0 18 -10.5 28.5t-28.5 10.5q-17 0 -28 -10.5t-11 -28.5zM336 25q-32 -25 -197 -25h-139l-16 3v122l16 3h151q140 0 193 9q-44 68 -199 161l-16 -17l-91 59q-6 6 18 79.5t35 77.5l340 198l15 -14l-25 -118
l-30 -14q35 -23 35 -67q0 -33 -22.5 -56t-56.5 -23q-33 0 -56.5 23t-23.5 56l1 6l-114 -56q130 -70 192.5 -139.5t62.5 -120.5q0 -15 -30 -76t-43 -71z" />
    <glyph glyph-name="aKafring.medi" unicode="&#x6ab;" horiz-adv-x="462" 
d="M297 490q0 -15 11.5 -25.5t28.5 -10.5t27.5 10.5t10.5 25.5q0 18 -10.5 28.5t-27.5 10.5t-28.5 -10.5t-11.5 -28.5zM146 16q-32 -16 -106 -16h-40l-16 3v122l16 3h63q83 0 107 8q-4 52 -44 118q-12 19 -32 49.5t-32 49t-14 22.5q-5 8 18.5 68.5t35.5 66.5l294 187l14 -13
l-24 -118l-11 -6q40 -21 40 -70q0 -33 -22.5 -56t-55.5 -23q-32 0 -56 23.5t-24 54.5l-107 -63l102 -149q61 -87 100 -118t96 -31h14l16 -3v-122l-16 -3h-13q-76 0 -117 30.5t-103 115.5q-65 -124 -83 -130z" />
    <glyph glyph-name="aKafring.fina" unicode="&#x6ab;" horiz-adv-x="850" 
d="M686 490q0 -15 11.5 -25.5t27.5 -10.5q17 0 28 10.5t11 25.5q0 18 -11 28.5t-28 10.5t-28 -10.5t-11 -28.5zM850 0h-13q-52 0 -90 17.5t-61.5 43t-64.5 80.5q-63 -118 -80 -123q-48 -18 -252 -18q-68 0 -118 13.5t-77 33.5t-42.5 49t-19.5 52t-4 51q0 44 19 97t39 84
l19 32l29 -17q-35 -84 -35 -135q0 -132 209 -132q162 0 250 9q-4 53 -44 117q-12 19 -32 49.5t-32 49t-14 22.5q-5 8 18.5 68.5t35.5 66.5l294 187l15 -13l-25 -118l-10 -6q39 -21 39 -70q0 -33 -22.5 -56t-55.5 -23q-32 0 -56 23.5t-24 54.5l-107 -63l102 -149
q61 -87 100 -118t96 -31h14l16 -3v-122z" />
    <glyph glyph-name="aLamVabove.init" unicode="&#x6b5;" horiz-adv-x="299" 
d="M187 763h-61l-6 5q-22 62 -91 116l40 74l9 2q51 -49 82 -137q25 75 76 135l10 -1l31 -56q-71 -79 -90 -138zM0 0l-16 3v122l16 3q88 0 119 6l-11 396l-29 82l109 103l27 -15v-53l52 -100l-51 -55v-288q0 -31 -57 -104t-82 -90q-17 -10 -77 -10z" />
    <glyph glyph-name="aLamVabove.medi" unicode="&#x6b5;" horiz-adv-x="307" 
d="M188 765h-61l-6 6q-22 62 -91 116l40 73l9 2q50 -49 82 -136q25 73 76 134l10 -1l31 -56q-71 -79 -90 -138zM323 3l-16 -3q-117 0 -156 116q-53 -95 -71 -105q-17 -11 -80 -11l-16 3v122l16 3q74 0 113 7l-16 507l85 73h27v-478q0 -70 16.5 -89.5t81.5 -19.5l16 -3v-122z
" />
    <glyph glyph-name="aLamVabove.fina" unicode="&#x6b5;" horiz-adv-x="616" 
d="M507 769h-62l-6 5q-22 62 -91 116l40 73l9 2q53 -52 82 -136q25 73 76 134l10 -1l31 -56q-70 -78 -89 -137zM242 -203q-61 0 -105 16t-66.5 43.5t-32.5 57.5t-10 66q0 49 20.5 106.5t41.5 89.5l20 33l33 -17q-37 -83 -37 -135q0 -131 161 -131q79 0 164 33l-19 683l84 73
h27v-486q0 -62 16.5 -81.5t76.5 -19.5l16 -3v-122l-16 -3q-62 0 -97 43q-13 -48 -50.5 -120t-51.5 -84q-17 -15 -70 -28.5t-105 -13.5z" />
    <glyph glyph-name="aLam1above.init" unicode="&#x6b6;" horiz-adv-x="299" 
d="M158 762q-20 14 -38 32.5t-26 29.5l-8 11q36 44 72 74q51 -42 73 -74q-12 -18 -30.5 -36.5t-30.5 -27.5zM0 0l-16 3v122l16 3q88 0 119 6l-11 396l-29 82l109 103l27 -15v-53l52 -100l-51 -55v-288q0 -31 -57 -104t-82 -90q-17 -10 -77 -10z" />
    <glyph glyph-name="aLam1above.medi" unicode="&#x6b6;" horiz-adv-x="307" 
d="M151 761q-20 14 -38 32.5t-26 29.5l-8 11q36 44 72 74q51 -42 73 -74q-12 -18 -30.5 -36.5t-30.5 -27.5zM323 3l-16 -3q-117 0 -156 116q-53 -95 -71 -105q-17 -11 -80 -11l-16 3v122l16 3q74 0 113 7l-16 507l85 73h27v-478q0 -70 16.5 -89.5t81.5 -19.5l16 -3v-122z
" />
    <glyph glyph-name="aLam1above.fina" unicode="&#x6b6;" horiz-adv-x="616" 
d="M469 761q-20 14 -38 32.5t-26 29.5l-8 11q36 44 72 74q51 -42 73 -74q-12 -18 -30.5 -36.5t-30.5 -27.5zM242 -203q-61 0 -105 16t-66.5 43.5t-32.5 57.5t-10 66q0 49 20.5 106.5t41.5 89.5l20 33l33 -17q-37 -83 -37 -135q0 -131 161 -131q79 0 164 33l-19 683l84 73h27
v-486q0 -62 16.5 -81.5t76.5 -19.5l16 -3v-122l-16 -3q-62 0 -97 43q-13 -48 -50.5 -120t-51.5 -84q-17 -15 -70 -28.5t-105 -13.5z" />
    <glyph glyph-name="aLam3uabove.init" unicode="&#x6b7;" horiz-adv-x="299" 
d="M152 883q-17 14 -33.5 31t-24.5 28l-8 10q34 39 66 68q48 -38 68 -68q-12 -17 -29 -34t-28 -26zM212 759q-29 21 -59 57q-12 -14 -27.5 -28.5t-25.5 -21.5l-9 -7q-18 14 -34.5 31t-24.5 28l-8 10q34 42 67 71l62 -62q4 4 27.5 28.5t31.5 33.5q49 -41 70 -71
q-12 -17 -29.5 -34t-28.5 -26zM0 0l-16 3v122l16 3q88 0 119 6l-11 396l-29 82l109 103l27 -15v-53l52 -100l-51 -55v-288q0 -31 -57 -104t-82 -90q-17 -10 -77 -10z" />
    <glyph glyph-name="aLam3uabove.medi" unicode="&#x6b7;" horiz-adv-x="307" 
d="M157 897q-17 13 -33.5 30.5t-24.5 28.5l-8 10q34 39 66 68q48 -38 68 -68q-12 -17 -29 -34.5t-28 -25.5zM287 842q-12 -17 -29.5 -34t-29.5 -26l-11 -9q-34 25 -59 57q-12 -15 -27.5 -29t-24.5 -21l-10 -7q-18 14 -34.5 31t-24.5 28l-8 10q34 41 67 71l62 -62
q4 4 27.5 28.5t31.5 33.5q49 -41 70 -71zM323 3l-16 -3q-117 0 -156 116q-53 -95 -71 -105q-17 -11 -80 -11l-16 3v122l16 3q74 0 113 7l-16 507l85 73h27v-478q0 -70 16.5 -89.5t81.5 -19.5l16 -3v-122z" />
    <glyph glyph-name="aLam3uabove.fina" unicode="&#x6b7;" horiz-adv-x="616" 
d="M467 896q-17 14 -33.5 31t-24.5 27l-8 11q34 39 66 68q48 -38 68 -68q-12 -17 -29 -34t-28 -26zM527 772q-29 21 -59 57q-12 -14 -27.5 -28.5t-24.5 -21.5l-10 -7q-18 14 -34.5 31t-24.5 27l-8 11q34 42 67 71l62 -62q4 4 27.5 28.5t31.5 33.5q49 -41 70 -71
q-12 -17 -29.5 -34t-29.5 -26zM242 -203q-61 0 -105 16t-66.5 43.5t-32.5 57.5t-10 66q0 49 20.5 106.5t41.5 89.5l20 33l33 -17q-37 -83 -37 -135q0 -131 161 -131q79 0 164 33l-19 683l84 73h27v-486q0 -62 16.5 -81.5t76.5 -19.5l16 -3v-122l-16 -3q-62 0 -97 43
q-13 -48 -50.5 -120t-51.5 -84q-17 -15 -70 -28.5t-105 -13.5z" />
    <glyph glyph-name="aLam3dbelow.init" unicode="&#x6b8;" horiz-adv-x="299" 
d="M0 0l-16 3v122l16 3q88 0 119 6l-11 396l-29 82l109 103l27 -15v-53l52 -100l-51 -55v-288q0 -31 -57 -104t-82 -90q-17 -10 -77 -10zM259 -123q-34 -42 -67 -71l-62 62q-4 -4 -27.5 -28.5t-31.5 -33.5q-49 41 -70 71q12 17 29.5 34t29.5 26l11 9q29 -21 59 -57
q12 14 27.5 28.5t24.5 21.5l10 7q18 -14 34.5 -31t24.5 -27zM131 -315q-48 38 -68 68q12 17 29 34t28 26l11 9q17 -14 33.5 -31t24.5 -27l8 -11q-34 -39 -66 -68z" />
    <glyph glyph-name="aLam3dbelow.medi" unicode="&#x6b8;" horiz-adv-x="307" 
d="M323 3l-16 -3q-117 0 -156 116q-53 -95 -71 -105q-17 -11 -80 -11l-16 3v122l16 3q74 0 113 7l-16 507l85 73h27v-478q0 -70 16.5 -89.5t81.5 -19.5l16 -3v-122zM283 -130q-34 -42 -67 -71l-62 62q-4 -4 -27.5 -28.5t-31.5 -33.5q-49 41 -70 71q12 17 29.5 34t29.5 26
l11 9q29 -21 59 -57q12 14 27.5 28.5t24.5 21.5l10 7q18 -14 34.5 -31t24.5 -28zM155 -185q17 -14 33.5 -31t24.5 -28l8 -10q-34 -39 -66 -68q-48 38 -68 68q12 17 29 34t28 26z" />
    <glyph glyph-name="aLam3dbelow.fina" unicode="&#x6b8;" horiz-adv-x="616" 
d="M242 -203q-61 0 -105 16t-66.5 43.5t-32.5 57.5t-10 66q0 49 20.5 106.5t41.5 89.5l20 33l33 -17q-37 -83 -37 -135q0 -131 161 -131q79 0 164 33l-19 683l84 73h27v-486q0 -62 16.5 -81.5t76.5 -19.5l16 -3v-122l-16 -3q-62 0 -97 43q-13 -48 -50.5 -120t-51.5 -84
q-17 -15 -70 -28.5t-105 -13.5zM411 -341q-34 -42 -67 -71l-62 62q-4 -4 -27.5 -28.5t-31.5 -33.5q-49 41 -70 71q12 17 29.5 34t29.5 26l11 9q29 -21 59 -57q12 14 27.5 28.5t24.5 21.5l10 7q18 -14 34.5 -31t24.5 -27zM283 -396q17 -14 33.5 -31t24.5 -27l8 -11
q-34 -39 -66 -68q-48 38 -68 68q12 17 29 34t28 26z" />
    <glyph glyph-name="aNunring.init" unicode="&#x6bc;" horiz-adv-x="279" 
d="M153 525q-20 14 -38 32.5t-26 29.5l-8 11q36 44 72 74q51 -42 73 -74q-12 -18 -30.5 -36.5t-30.5 -27.5zM102 -109q-32 0 -56 23t-24 55q0 19 6 32q-10 -1 -28 -1l-16 3v122l16 3q104 0 138 6q-7 42 -20.5 96t-23.5 88l-9 33l81 81h26l45 -128l-1 -18l-27 -28
q9 -61 7 -89q-1 -16 -25.5 -58t-49.5 -72q39 -21 39 -70q0 -33 -22.5 -55.5t-55.5 -22.5zM102 -66q17 0 28 10t11 25q0 18 -11 28.5t-28 10.5t-28 -10.5t-11 -28.5q0 -15 11 -25t28 -10z" />
    <glyph glyph-name="aNunring.medi" unicode="&#x6bc;" horiz-adv-x="306" 
d="M176 447q-20 14 -38 32.5t-26 29.5l-8 11q36 44 72 74q51 -42 73 -74q-12 -18 -30.5 -36.5t-30.5 -27.5zM169 -25q0 -33 -22.5 -55.5t-55.5 -22.5t-57 23t-24 55q0 11 4 25h-14l-16 3v122l16 3q58 0 93 7l39 155l75 48l21 -6q-10 -138 -23 -188q31 -16 101 -16l16 -3
v-122l-16 -3h-9q-101 0 -161 77q-4 -5 -12.5 -14.5t-9.5 -10.5q25 -8 40 -28.5t15 -48.5zM91 -60q17 0 27.5 10t10.5 25q0 18 -10.5 28.5t-27.5 10.5l-15 -2l-3 -2l-3 -1q-19 -10 -19 -34q0 -15 11.5 -25t28.5 -10z" />
    <glyph glyph-name="aNunring.fina" unicode="&#x6bc;" horiz-adv-x="631" 
d="M289 321q-20 14 -38 32.5t-26 29.5l-8 11q36 44 72 74q51 -42 73 -74q-12 -18 -30.5 -36.5t-30.5 -27.5zM282 -320q-32 0 -56 23t-24 55q0 23 11 40q-101 7 -143 58.5t-42 123.5q0 49 20 106.5t40 89.5l21 33l31 -16q-34 -82 -34 -136q0 -131 161 -131q92 0 184 38
l-41 278l89 71h27l4 -77q3 -40 5.5 -55.5t13 -30.5t29 -18.5t53.5 -3.5l16 -3v-122l-16 -3q-64 0 -95 47v-2q-14 -45 -42.5 -109.5t-40.5 -75.5q-32 -30 -111 -50q18 -21 18 -52q0 -33 -22.5 -55.5t-55.5 -22.5zM282 -278q17 0 27.5 10.5t10.5 25.5q0 18 -10.5 28.5
t-27.5 10.5t-28.5 -10.5t-11.5 -28.5q0 -15 11.5 -25.5t28.5 -10.5z" />
    <glyph glyph-name="aHehGoalHamzaabove.fina" unicode="&#x6c2;" horiz-adv-x="467" 
d="M305 410q-10 -5 -61 -18t-62 -13q-6 0 -26 14.5t-38 29.5l-17 15l5 22q49 0 60 2v1q-18 10 -18 43q0 39 26.5 76t67.5 37q26 0 42 -24.5t19 -49.5l3 -25l-19 -5q-12 20 -39 20q-31 0 -67 -23q6 -16 23 -27t39 -11q38 0 88 19l5 -7zM483 3l-16 -3q-40 0 -68 13.5
t-44.5 41.5t-25 56.5t-15.5 71.5q-66 -2 -151 -40.5t-135 -81.5l-12 14l59 135q58 42 115.5 65.5t89.5 23.5q42 0 61 -18t25 -57q9 -51 21 -67q22 -29 80 -29l16 -3v-122z" />
    <glyph glyph-name="aWaw2habove.fina" unicode="&#x6ca;" horiz-adv-x="452" 
d="M365 557q-12 -19 -30.5 -37t-30.5 -27l-12 -9q-36 27 -62 60q-12 -16 -28 -31t-26 -22l-10 -7q-20 14 -38 32t-26 30l-8 11q36 43 72 73q51 -42 64 -62q32 36 62 62q51 -42 73 -73zM233 128h99l-1 2q-13 47 -47 94t-70 47q-34 0 -64 -36t-44 -84q38 -23 127 -23z
M201 -203q-19 0 -89.5 43.5t-85.5 58.5l16 36q75 -15 109 -15q59 0 112.5 21.5t82.5 58.5h-107q-44 0 -77.5 9t-44.5 16t-15 12q-8 11 -24 63t-15 65q3 45 24 95.5t62 91t90 40.5q61 0 106 -81.5t53 -182.5h54l16 -3v-122l-16 -3h-63q-16 -80 -66.5 -141.5t-121.5 -61.5z
" />
    <glyph glyph-name="aYehtail.fina" unicode="&#x6cd;" horiz-adv-x="710" 
d="M339 -240q-115 0 -167.5 54t-52.5 130q0 56 27 124l-125 -32l-7 8l32 93l170 49l18 -25q-36 -79 -36 -130q0 -135 161 -135q74 0 149 16.5t119 39.5q-37 48 -130 48h-33l-3 7l35 116l7 5h207l16 -3v-122l-16 -3l-29 1q1 -6 1 -16q0 -21 -20 -77.5t-29 -63.5
q-35 -26 -114.5 -55t-179.5 -29z" />
    <glyph glyph-name="aYehVabove.init" unicode="&#x6ce;" horiz-adv-x="281" 
d="M178 517h-62l-5 5q-21 61 -92 116l40 73l9 2q52 -49 83 -136q22 69 75 134l10 -1l32 -55q-71 -78 -90 -138zM0 0l-16 3v122l16 3q104 0 138 6q-7 42 -20.5 96t-23.5 88l-9 33l81 81h26l45 -128l-1 -18l-27 -28q9 -61 7 -89q-1 -22 -40.5 -83t-59.5 -72q-33 -14 -116 -14z
M246 -132q-12 -17 -29 -33.5t-28 -24.5l-11 -9q-33 24 -58 56q-12 -15 -26.5 -29t-23.5 -20l-9 -7q-18 13 -34.5 29.5t-24.5 27.5l-7 10q33 40 66 69q47 -39 60 -58q28 33 57 58q48 -39 68 -69z" />
    <glyph glyph-name="aYehVabove.medi" unicode="&#x6ce;" horiz-adv-x="309" 
d="M203 429h-62l-6 5q-22 62 -91 116l40 74l9 2q53 -52 82 -136q24 70 76 134l10 -1l31 -56q-69 -77 -89 -138zM306 0h-9q-101 0 -161 77q-52 -63 -63 -67q-20 -10 -73 -10l-16 3v122l16 3q58 0 93 7l39 155l75 48l21 -6q-10 -138 -23 -188q31 -16 101 -16l16 -3v-122z
M281 -132q-12 -18 -30 -36t-29 -26l-12 -9q-35 26 -60 58q-12 -15 -27.5 -29.5t-24.5 -21.5l-10 -7q-19 13 -36.5 31t-25.5 29l-8 11q35 41 70 70q50 -40 62 -60q31 36 60 60q50 -40 71 -70z" />
    <glyph glyph-name="aYehVabove.fina" unicode="&#x6ce;" horiz-adv-x="618" 
d="M295 249h-62l-5 5q-21 61 -92 116l41 73l9 2q51 -50 82 -136q22 69 75 134l10 -1l32 -55q-72 -82 -90 -138zM248 -240q-115 0 -167.5 54t-52.5 130q0 49 20.5 107.5t41.5 92.5l20 34l33 -17q-37 -79 -37 -130q0 -135 161 -135q74 0 149.5 16.5t119.5 39.5q-39 48 -131 48
h-32l-3 7l34 116l8 5h206l16 -3v-122l-16 -3l-28 1q0 -3 0.5 -8.5t0.5 -7.5q0 -21 -20 -77.5t-29 -63.5q-35 -26 -115 -55t-179 -29z" />
    <glyph glyph-name="aAe.fina" unicode="&#x6d5;" horiz-adv-x="460" 
d="M476 3l-16 -3h-35q-110 0 -137 141l-55 -91q-27 -9 -66 -9q-53 0 -87.5 20.5t-48.5 47.5q-7 15 0 64.5t16 62.5q20 27 78 73.5t133 85.5l-4 47l87 63h27v-293q0 -61 9 -72.5t59 -11.5h24l16 -3v-122zM198 168q30 0 78 6q-2 23 -11 134q-48 -20 -101.5 -51.5t-79.5 -56.5
q40 -32 114 -32z" />
    <glyph glyph-name="uniFB51" unicode="&#x671;" horiz-adv-x="292" arabic-form="final" 
d="M170 758q58 0 93 9q-26 46 -62 46t-87 -51q36 -4 56 -4zM252 698q-10 -7 -39.5 -13.5t-61.5 -6.5q-71 0 -114 18l-34 -45l-18 8q13 58 20 72q3 4 24 23.5t27 19.5q16 -4 23 -5q77 123 137 123q31 0 57 -36.5t26 -70.5q0 -12 -19.5 -47t-27.5 -40zM292 0q-108 0 -158 89.5
t-50 268.5v198l85 70h27v-458q0 -27 19 -33.5t77 -6.5l16 -3v-122z" />
    <glyph glyph-name="uniFB53" unicode="&#x67b;" horiz-adv-x="779" arabic-form="final" 
d="M793 3l-16 -3q-69 0 -107 17.5t-66 61.5q-51 -53 -61 -57q-67 -22 -253 -22q-265 0 -265 194q0 49 20.5 106t41.5 90l21 32l32 -17q-36 -83 -36 -135q0 -142 205 -142q142 0 256 13l38 149l75 50l20 -8q-9 -134 -22 -188q31 -16 101 -16l16 -3v-122zM369 -345
q-43 36 -73 72q42 51 62 64q-40 35 -62 62q42 52 73 73q18 -12 36.5 -30.5t27.5 -30.5l9 -12q-27 -36 -60 -62q16 -12 31 -28t22 -26l7 -10q-14 -19 -32.5 -37t-29.5 -26z" />
    <glyph glyph-name="uniFB54" unicode="&#x67b;" horiz-adv-x="279" arabic-form="initial" 
d="M0 0l-16 3v122l16 3q104 0 138 6q-7 42 -20.5 96t-23.5 88l-9 33l81 81h26l45 -128l-1 -18l-27 -28q9 -61 7 -89q-1 -22 -40.5 -83t-59.5 -72q-33 -14 -116 -14zM118 -336q-43 36 -74 72q42 51 62 64q-36 31 -62 61q42 52 74 74q18 -13 36.5 -31.5t27.5 -30.5l9 -12
q-27 -36 -61 -61q16 -13 31 -29t23 -25l7 -10q-14 -20 -32.5 -38t-29.5 -26z" />
    <glyph glyph-name="uniFB55" unicode="&#x67b;" horiz-adv-x="307" arabic-form="medial" 
d="M306 0h-9q-101 0 -161 77q-52 -63 -63 -67q-20 -10 -73 -10l-16 3v122l16 3q58 0 93 7l39 155l75 48l21 -6q-10 -138 -23 -188q31 -16 101 -16l16 -3v-122zM151 -338q-43 35 -73 71q42 51 62 64q-32 28 -62 62q42 52 73 73q19 -12 37.5 -30.5t27.5 -30.5l9 -12
q-23 -30 -61 -62q16 -12 31 -28t23 -26l7 -10q-14 -19 -32.5 -37t-30.5 -26z" />
    <glyph glyph-name="uniFB57" unicode="&#x67e;" horiz-adv-x="779" arabic-form="final" 
d="M793 3l-16 -3q-69 0 -107 17.5t-66 61.5q-51 -53 -61 -57q-67 -22 -253 -22q-265 0 -265 194q0 49 20.5 106t41.5 90l21 32l32 -17q-36 -83 -36 -135q0 -142 205 -142q142 0 256 13l38 149l75 50l20 -8q-9 -134 -22 -188q31 -16 101 -16l16 -3v-122zM503 -147
q-34 -42 -67 -71l-62 62q-4 -4 -27.5 -28.5t-31.5 -33.5q-49 41 -70 71q12 17 29.5 34t29.5 26l11 9q29 -21 59 -57q12 14 27.5 28.5t24.5 21.5l10 7q18 -14 34.5 -31t24.5 -27zM375 -202q17 -14 33.5 -31t24.5 -27l8 -11q-34 -39 -66 -68q-48 38 -68 68q12 17 29 34t28 26z
" />
    <glyph glyph-name="uniFB58" unicode="&#x67e;" horiz-adv-x="265" arabic-form="initial" 
d="M-1 0l-16 3v122l16 3q103 0 138 6q-7 42 -20.5 96t-22.5 88l-10 33l81 81h26l45 -128l-1 -18l-27 -28q9 -61 7 -89q-1 -22 -40.5 -83t-59.5 -72q-33 -14 -116 -14zM242 -147q-34 -42 -67 -71l-62 62q-4 -4 -27.5 -28.5t-31.5 -33.5q-49 41 -70 71q12 17 29.5 34t28.5 26
l12 9q29 -21 59 -57q12 14 27.5 28.5t25.5 21.5l9 7q18 -14 34.5 -31t24.5 -27zM114 -202q17 -14 33.5 -31t24.5 -27l8 -11q-34 -39 -66 -68q-48 38 -68 68q12 17 29 34t28 26z" />
    <glyph glyph-name="uniFB59" unicode="&#x67e;" horiz-adv-x="306" arabic-form="medial" 
d="M306 0h-9q-101 0 -161 77q-52 -63 -63 -67q-20 -10 -73 -10l-16 3v122l16 3q58 0 93 7l39 155l75 48l21 -6q-10 -138 -23 -188q31 -16 101 -16l16 -3v-122zM275 -147q-34 -42 -67 -71l-62 62q-4 -4 -27.5 -28.5t-31.5 -33.5q-49 41 -70 71q12 17 29.5 34t29.5 26l11 9
q29 -21 59 -57q12 14 27.5 28.5t24.5 21.5l10 7q18 -14 34.5 -31t24.5 -27zM147 -202q17 -14 33.5 -31t24.5 -27l8 -11q-34 -39 -66 -68q-48 38 -68 68q12 17 29 34t28 26z" />
    <glyph glyph-name="uniFB5B" unicode="&#x680;" horiz-adv-x="779" arabic-form="final" 
d="M793 3l-16 -3q-69 0 -106.5 17.5t-66.5 61.5q-51 -53 -61 -57q-67 -22 -253 -22q-264 0 -264 194q0 49 20.5 106t41.5 90l20 32l33 -17q-37 -83 -37 -135q0 -142 205 -142q142 0 256 13l38 149l75 50l20 -8q-7 -131 -22 -188q31 -16 101 -16l16 -3v-122zM437 -343
q-51 41 -63 59q-25 -31 -62 -59q-46 37 -68 68q11 16 61 63q-47 44 -61 65q15 20 68 67q30 -22 62 -59q27 31 63 59q38 -29 67 -67q-6 -9 -27 -31t-33 -33q50 -48 60 -64q-24 -35 -67 -68zM374 -269l57 58l-57 57l-56 -57z" />
    <glyph glyph-name="uniFB5C" unicode="&#x680;" horiz-adv-x="279" arabic-form="initial" 
d="M0 0l-16 3v122l16 3q104 0 138 6q-7 42 -20.5 96t-23.5 88l-9 33l81 81h26l45 -128l-1 -18l-27 -28q9 -61 7 -89q-1 -22 -40.5 -83t-59.5 -72q-33 -14 -116 -14zM172 -344q-51 41 -63 60q-26 -32 -62 -60q-46 37 -68 68q10 16 61 64q-44 38 -61 64q8 12 22.5 26
t29.5 27.5t16 14.5q28 -21 62 -60q11 14 63 60q47 -39 67 -68q-6 -9 -27 -31t-33 -33q47 -43 60 -64q-20 -29 -67 -68zM109 -269l57 57l-57 58l-56 -58z" />
    <glyph glyph-name="uniFB5D" unicode="&#x680;" horiz-adv-x="306" arabic-form="medial" 
d="M306 0h-9q-101 0 -161 77q-52 -63 -63 -67q-20 -10 -73 -10l-16 3v122l16 3q58 0 93 7l39 155l75 48l21 -6q-10 -138 -23 -188q31 -16 101 -16l16 -3v-122zM217 -344q-51 41 -63 59q-28 -33 -62 -59q-46 37 -68 68q13 21 61 63q-47 44 -61 65q15 20 68 67q30 -22 62 -59
q24 28 63 59q40 -31 67 -67q-6 -9 -27 -31t-33 -33q50 -48 60 -64q-22 -33 -67 -68zM154 -270l57 58l-57 57l-56 -57z" />
    <glyph glyph-name="uniFB5F" unicode="&#x67a;" horiz-adv-x="779" arabic-form="final" 
d="M381 367q-43 36 -74 72q42 51 62 64q-36 31 -62 61q42 52 74 74q18 -13 36.5 -31.5t27.5 -30.5l9 -12q-27 -36 -61 -61q16 -13 31 -29t22 -26l8 -9q-14 -20 -32.5 -38t-29.5 -26zM793 3l-16 -3q-69 0 -107 17.5t-66 61.5q-51 -53 -61 -57q-67 -22 -253 -22
q-265 0 -265 194q0 49 20.5 106t41.5 90l21 32l32 -17q-36 -83 -36 -135q0 -142 205 -142q142 0 256 13l38 149l75 50l20 -8q-9 -134 -22 -188q31 -16 101 -16l16 -3v-122z" />
    <glyph glyph-name="uniFB60" unicode="&#x67a;" horiz-adv-x="279" arabic-form="initial" 
d="M149 508q-43 36 -74 72q42 51 62 64q-36 32 -62 62q42 52 74 73q18 -12 36.5 -30.5t27.5 -30.5l9 -12q-29 -38 -61 -62q16 -12 31 -28t22 -26l8 -10q-14 -19 -32.5 -37t-29.5 -27zM0 0l-16 3v122l16 3q102 0 137 6q-7 42 -20 96t-23 88l-9 33l80 81h27l45 -128l-2 -18
l-26 -28q9 -57 6 -89q-1 -21 -40.5 -82.5t-58.5 -72.5q-33 -14 -116 -14z" />
    <glyph glyph-name="uniFB61" unicode="&#x67a;" horiz-adv-x="306" arabic-form="medial" 
d="M174 418q-43 35 -74 72q42 51 62 64q-36 31 -62 61q42 52 74 74q18 -13 36.5 -31.5t27.5 -30.5l9 -12q-25 -33 -61 -62q16 -12 31 -28t23 -25l7 -10q-14 -20 -32.5 -38t-29.5 -26zM306 0h-9q-101 0 -161 77q-52 -63 -63 -67q-20 -10 -73 -10l-16 3v122l16 3q58 0 93 7
l39 155l75 48l21 -6q-10 -138 -23 -188q31 -16 101 -16l16 -3v-122z" />
    <glyph glyph-name="uniFB63" unicode="&#x67f;" horiz-adv-x="779" arabic-form="final" 
d="M440 373q-45 34 -63 59q-32 -37 -62 -59q-48 39 -69 68q14 21 62 63q-51 48 -62 65q13 17 69 67q30 -22 62 -59q24 28 63 59q40 -31 67 -67q-6 -9 -27 -31.5t-34 -32.5q29 -26 61 -64q-22 -33 -67 -68zM377 447l57 58l-57 57l-56 -57zM793 3l-16 -3q-69 0 -107 17.5
t-66 61.5q-51 -53 -61 -57q-67 -22 -253 -22q-265 0 -265 194q0 49 20.5 106t41.5 90l21 32l32 -17q-36 -83 -36 -135q0 -142 205 -142q142 0 256 13l38 149l75 50l20 -8q-9 -134 -22 -188q31 -16 101 -16l16 -3v-122z" />
    <glyph glyph-name="uniFB64" unicode="&#x67f;" horiz-adv-x="279" arabic-form="initial" 
d="M209 533q-11 7 -33 27t-30 32q-27 -33 -62 -59q-40 29 -69 67q16 23 62 64q-46 41 -62 64q8 12 23 26t29.5 27t16.5 15q28 -21 61 -59q8 9 64 59q18 -14 39.5 -36.5t27.5 -31.5q-6 -9 -27 -31.5t-34 -32.5q41 -38 61 -64q-21 -31 -67 -67zM145 607l58 57l-58 58l-55 -58z
M0 0l-16 3v122l16 3q104 0 138 6q-7 42 -20.5 96t-23.5 88l-9 33l81 81h26l45 -128l-1 -18l-27 -28q9 -61 7 -89q-1 -22 -40.5 -83t-59.5 -72q-33 -14 -116 -14z" />
    <glyph glyph-name="uniFB65" unicode="&#x67f;" horiz-adv-x="306" arabic-form="medial" 
d="M230 431q-45 34 -63 59q-28 -33 -62 -59q-48 39 -69 68q10 16 62 64q-43 35 -62 64q8 12 23 26t29.5 27t16.5 15q35 -27 61 -60q12 14 64 60q47 -39 67 -68q-6 -9 -27 -31.5t-34 -32.5q41 -38 61 -64q-20 -29 -67 -68zM166 506l58 57l-58 57l-56 -57zM306 0h-9
q-101 0 -161 77q-52 -63 -63 -67q-20 -10 -73 -10l-16 3v122l16 3q58 0 93 7l39 155l75 48l21 -6q-10 -138 -23 -188q31 -16 101 -16l16 -3v-122z" />
    <glyph glyph-name="uniFB67" unicode="&#x679;" horiz-adv-x="779" arabic-form="final" 
d="M397 496q61 0 96 9q-27 48 -63 48q-42 0 -100 -56q24 -1 67 -1zM373 417q-17 0 -37 1.5t-32 3.5l-11 2l-80 64l3 14q18 -2 77 -4q1 1 3 5t4 6q-8 85 -12 153l-11 33l54 50l12 -9v-19l27 -50l-21 -21l-1 -37q0 -5 -5 -20.5t-11 -28.5l-5 -12q66 86 117 86q32 0 59 -38
t27 -73q0 -12 -20.5 -46.5t-29.5 -39.5q-10 -6 -41.5 -13t-65.5 -7zM793 3l-16 -3q-69 0 -107 17.5t-66 61.5q-51 -53 -61 -57q-67 -22 -253 -22q-265 0 -265 194q0 49 20.5 106t41.5 90l21 32l32 -17q-36 -83 -36 -135q0 -142 205 -142q142 0 256 13l38 149l75 50l20 -8
q-9 -134 -22 -188q31 -16 101 -16l16 -3v-122z" />
    <glyph glyph-name="uniFB68" unicode="&#x679;" horiz-adv-x="298" arabic-form="initial" 
d="M176 614q61 0 96 9q-25 48 -63 48q-43 0 -99 -56q23 -1 66 -1zM153 534q-17 0 -37 2t-32 4l-11 1l-81 65l3 14q34 -4 77 -4q6 9 7 11q-1 13 -5.5 67t-6.5 86l-11 33l54 50l13 -9v-20l26 -49l-21 -22l-1 -36q0 -5 -5.5 -20.5t-10.5 -28.5l-5 -12l1 -1q65 87 116 87
q33 0 59.5 -38t26.5 -73q0 -12 -20 -46.5t-29 -40.5q-11 -6 -42.5 -13t-64.5 -7zM0 0l-16 3v122l16 3q116 0 152 7q-7 42 -20.5 96t-23.5 87l-9 33l78 81h27l45 -128l-2 -18l-26 -28q9 -61 7 -89q-1 -22 -41 -83t-59 -72q-33 -14 -128 -14z" />
    <glyph glyph-name="uniFB69" unicode="&#x679;" horiz-adv-x="306" arabic-form="medial" 
d="M177 522q63 0 97 10q-27 47 -64 47q-43 0 -99 -56q13 0 35 -0.5t31 -0.5zM154 443q-17 0 -37 1.5t-31 3.5l-12 2l-80 64l3 14q18 -2 77 -4q2 5 7 11q-8 83 -12 153l-11 33l53 50l13 -8v-20l26 -49l-20 -22l-1 -37q0 -5 -5.5 -20.5t-10.5 -28.5l-5 -12q66 86 117 86
q32 0 59 -38t27 -73q0 -12 -20.5 -46.5t-29.5 -39.5q-10 -6 -41.5 -13t-65.5 -7zM306 0h-9q-101 0 -161 77q-52 -63 -63 -67q-20 -10 -73 -10l-16 3v122l16 3q58 0 93 7l39 155l75 48l21 -6q-10 -138 -23 -188q31 -16 101 -16l16 -3v-122z" />
    <glyph glyph-name="uniFB6B" unicode="&#x6a4;" horiz-adv-x="809" arabic-form="final" 
d="M602 652q-17 13 -33.5 30.5t-24.5 27.5l-8 11q33 39 66 68q47 -39 68 -68q-12 -17 -29 -34.5t-28 -26.5zM731 596q-12 -17 -29.5 -34t-28.5 -26l-11 -9q-34 27 -60 57q-12 -14 -27 -28.5t-25 -21.5l-9 -7q-18 14 -35 31t-25 28l-8 10q34 42 68 71l61 -62l60 62
q49 -40 69 -71zM617 143l6 3q32 19 55 40q-4 53 -30.5 101t-64.5 48q-28 0 -60 -27t-50 -65q58 -67 144 -100zM826 3l-17 -3h-37q-83 0 -170 46q-56 -31 -140.5 -48.5t-171.5 -17.5q-262 0 -262 192q0 49 20.5 106t41.5 90l20 32l33 -17q-37 -83 -37 -134q0 -141 203 -141
q107 0 185 9q-41 35 -51 60q-4 16 -8 53.5t-2 45.5q9 55 65 121.5t118 66.5q57 0 96.5 -72t39.5 -159q0 -49 -56 -105h113l17 -3v-122z" />
    <glyph glyph-name="uniFB6C" unicode="&#x6a4;" horiz-adv-x="410" arabic-form="initial" 
d="M189 716q-17 14 -33.5 31t-24.5 27l-8 11q34 39 66 68q48 -38 68 -68q-12 -17 -29 -34t-28 -26zM249 592q-29 21 -59 57q-12 -14 -27.5 -28.5t-24.5 -21.5l-10 -7q-18 14 -34.5 31t-24.5 27l-8 11q34 42 67 71l62 -62q4 4 27.5 28.5t31.5 33.5q49 -41 70 -71
q-12 -17 -29.5 -34t-29.5 -26zM286 24q-43 -24 -166 -24h-120l-16 3v122l16 3h158q91 0 145 8q2 20 2 33q0 39 -9 81l-27 -55q-8 -5 -36.5 -11.5t-56.5 -6.5q-12 0 -23 1.5t-19 3t-15.5 4.5t-12.5 5.5t-10 6t-7.5 5.5t-5.5 5l-3 3q-8 10 -22 55.5t-13 58.5q2 37 21.5 84
t59 86.5t86.5 39.5q69 0 114.5 -99t45.5 -221q0 -36 -6 -60q-8 -29 -40 -79t-40 -52zM185 285q51 0 98 13q-16 50 -42 82t-57 32q-29 0 -56 -31.5t-40 -74.5q46 -21 97 -21z" />
    <glyph glyph-name="uniFB6D" unicode="&#x6a4;" horiz-adv-x="439" arabic-form="medial" 
d="M226 651q-17 14 -33.5 31t-24.5 28l-8 10q34 39 66 68q48 -38 68 -68q-12 -17 -29 -34t-28 -26zM286 527q-29 21 -59 57q-12 -14 -27.5 -28.5t-25.5 -21.5l-9 -7q-18 14 -34.5 31t-24.5 28l-8 10q34 42 67 71l62 -62q4 4 27.5 28.5t31.5 33.5q49 -41 70 -71
q-12 -17 -29.5 -34t-28.5 -26zM247 143l6 3q32 19 55 40q-4 53 -30.5 101t-64.5 48q-28 0 -60 -27t-50 -65q58 -68 144 -100zM220 52q-91 -52 -184 -52h-36l-16 3v122l16 3h112q-32 31 -39 49q-5 16 -9 53.5t-2 45.5q9 55 65.5 121.5t117.5 66.5q58 0 97.5 -72t39.5 -159
q0 -49 -56 -105h113l17 -3v-122l-17 -3h-37q-89 0 -182 52z" />
    <glyph glyph-name="uniFB6F" unicode="&#x6a6;" horiz-adv-x="809" arabic-form="final" 
d="M664 527q-51 41 -63 60q-26 -32 -62 -60q-46 37 -68 68q10 16 61 64q-44 39 -61 64q8 12 22.5 26t29.5 27.5t16 14.5q28 -21 62 -60q13 15 63 60q47 -39 67 -68q-6 -9 -27 -31t-33 -33q47 -43 60 -64q-20 -29 -67 -68zM601 602l57 57l-57 57l-56 -57zM617 143l6 3
q32 19 55 40q-4 53 -30.5 101t-64.5 48q-28 0 -60 -27t-50 -65q58 -67 144 -100zM826 3l-17 -3h-37q-83 0 -170 46q-56 -31 -140.5 -48.5t-171.5 -17.5q-262 0 -262 192q0 49 20.5 106t41.5 90l20 32l33 -17q-37 -83 -37 -134q0 -141 203 -141q107 0 185 9q-41 35 -51 60
q-4 16 -8 53.5t-2 45.5q9 55 65 121.5t118 66.5q57 0 96.5 -72t39.5 -159q0 -49 -56 -105h113l17 -3v-122z" />
    <glyph glyph-name="uniFB70" unicode="&#x6a6;" horiz-adv-x="410" arabic-form="initial" 
d="M254 592q-44 32 -63 59q-24 -32 -62 -59q-11 8 -33 29.5t-35 38.5q13 18 61 63q-49 46 -61 65q15 20 68 67q31 -23 62 -59q14 17 63 59q38 -29 67 -67q-6 -9 -26.5 -30.5t-33.5 -33.5q45 -43 60 -64q-7 -11 -27 -32t-40 -36zM191 666l57 58l-57 57l-56 -57zM286 24
q-43 -24 -166 -24h-120l-16 3v122l16 3h158q91 0 145 8q2 20 2 33q0 39 -9 81l-27 -55q-8 -5 -36.5 -11.5t-56.5 -6.5q-12 0 -23 1.5t-19 3t-15.5 4.5t-12.5 5.5t-10 6t-7.5 5.5t-5.5 5l-3 3q-8 10 -22 55.5t-13 58.5q2 37 21.5 84t59 86.5t86.5 39.5q69 0 114.5 -99
t45.5 -221q0 -36 -6 -60q-8 -29 -40 -79t-40 -52zM185 285q51 0 98 13q-16 50 -42 82t-57 32q-29 0 -56 -31.5t-40 -74.5q46 -21 97 -21z" />
    <glyph glyph-name="uniFB71" unicode="&#x6a6;" horiz-adv-x="439" arabic-form="medial" 
d="M289 527q-51 41 -63 60q-23 -31 -62 -60q-46 37 -68 68q10 16 62 64q-43 35 -62 64q8 12 22.5 26t29.5 27.5t16 14.5q34 -25 62 -60q9 11 23 23.5t26 23.5t14 13q19 -15 41 -37.5t26 -30.5q-5 -9 -26 -31t-34 -33q47 -43 60 -64q-17 -28 -67 -68zM226 602l57 57l-57 57
l-56 -57zM247 143l6 3q32 19 55 40q-4 53 -30.5 101t-64.5 48q-28 0 -60 -27t-50 -65q58 -68 144 -100zM220 52q-91 -52 -184 -52h-36l-16 3v122l16 3h112q-32 31 -39 49q-5 16 -9 53.5t-2 45.5q9 55 65.5 121.5t117.5 66.5q58 0 97.5 -72t39.5 -159q0 -49 -56 -105h113
l17 -3v-122l-17 -3h-37q-89 0 -182 52z" />
    <glyph glyph-name="uniFB73" unicode="&#x684;" horiz-adv-x="652" arabic-form="final" 
d="M627 -196q-36 -23 -130 -69.5t-110 -46.5q-117 0 -201 42.5t-104 94.5q-11 28 -20 80.5t-7 70.5q11 81 71.5 145t123.5 95q25 12 99 19l1 6q-55 5 -132.5 21t-84.5 17l-81 -73l-27 22q3 7 9 17.5l22 38.5t30.5 49.5t32 39t29.5 17.5q17 0 135.5 -24t204.5 -24h105l6 -18
l-38 -93l-44 2q-3 -56 15 -80.5t73 -24.5h40l16 -3v-122l-16 -3h-45q-62 0 -95 31t-35 80t13 110q-63 -21 -140 -63t-133 -84q-88 -69 -106 -142q84 -108 324 -108l191 10zM366 -127q-16 11 -32 27t-24 26l-8 11q20 27 53 55q-13 11 -26.5 25t-20.5 23l-6 8q12 17 28 32.5
t26 23.5l10 7q38 -31 65 -63q-37 -45 -55 -56q41 -38 55 -55q-37 -45 -65 -64z" />
    <glyph glyph-name="uniFB74" unicode="&#x684;" horiz-adv-x="647" arabic-form="initial" 
d="M316 68q-66 -38 -111 -53t-122 -15h-83l-16 3v122l16 3h135q94 0 189 33q43 17 63 21q-66 20 -121 54q-16 9 -60.5 35.5t-60.5 33.5l-87 -59l-23 26q10 16 26.5 39.5t55.5 63t63 39.5q8 0 17 -3t23 -10.5t26 -15t35.5 -21.5t40.5 -24q54 -32 112 -47.5t87 -15.5h87l7 -22
l-40 -90l-80 1q-24 -4 -52.5 -19.5t-68.5 -42t-58 -36.5zM433 -241q-18 12 -36.5 30.5t-27.5 30.5l-9 12q25 33 61 62q-16 12 -31 28t-22 26l-8 9q14 20 32.5 38t29.5 26l11 8q43 -35 74 -72q-42 -51 -63 -64q40 -35 63 -61q-42 -52 -74 -73z" />
    <glyph glyph-name="uniFB75" unicode="&#x684;" horiz-adv-x="661" arabic-form="medial" 
d="M316 68q-66 -38 -111 -53t-122 -15h-83l-16 3v122l16 3h135q99 0 191 34q49 17 61 20q-63 19 -121 54q-16 9 -60.5 35.5t-60.5 33.5l-87 -59l-23 26q10 16 26.5 39.5t55.5 63t63 39.5q8 0 17 -3t23 -10.5t26 -15t35.5 -21.5t40.5 -24q54 -32 112 -47.5t87 -15.5h83l7 -22
l-43 -90l-26 -1q8 -36 60 -36h59l16 -3v-122l-16 -3h-70q-62 0 -84.5 47t-9.5 113q-19 -3 -44 -14t-42.5 -20.5t-50 -30t-44.5 -27.5zM386 -248q-19 12 -37.5 30.5t-27.5 30.5l-9 12q20 27 61 62q-16 12 -31 28t-22 25l-8 10q14 20 32.5 38t29.5 26l12 8q42 -35 73 -72
q-42 -51 -62 -64q36 -31 62 -61q-42 -52 -73 -73z" />
    <glyph glyph-name="uniFB77" unicode="&#x683;" horiz-adv-x="639" arabic-form="final" 
d="M627 -196q-36 -23 -130 -69.5t-110 -46.5q-117 0 -201 42.5t-104 94.5q-11 28 -20 80.5t-7 70.5q11 81 71.5 145t123.5 95q25 12 99 19l1 6q-55 5 -132.5 21t-84.5 17l-81 -73l-27 22q3 7 9 17.5l22 38.5t30.5 49.5t32 39t29.5 17.5q17 0 135.5 -24t204.5 -24h105l6 -18
l-38 -93l-44 2q-3 -56 15 -80.5t73 -24.5h40l16 -3v-122l-16 -3h-45q-62 0 -95 31t-35 80t13 110q-63 -21 -140 -63t-133 -84q-88 -69 -106 -142q84 -108 324 -108l191 10zM467 -9q-12 -17 -29 -34t-28 -25l-11 -9q-37 28 -58 56q-12 -15 -27 -29t-24 -20l-9 -7
q-19 13 -36 30t-25 27l-7 11q34 41 68 69q47 -40 60 -58q29 34 58 58q48 -40 68 -69z" />
    <glyph glyph-name="uniFB78" unicode="&#x683;" horiz-adv-x="647" arabic-form="initial" 
d="M316 68q-66 -38 -111 -53t-122 -15h-83l-16 3v122l16 3h135q94 0 189 33q43 17 63 21q-66 20 -121 54q-16 9 -60.5 35.5t-60.5 33.5l-87 -59l-23 26q10 16 26.5 39.5t55.5 63t63 39.5q8 0 17 -3t23 -10.5t26 -15t35.5 -21.5t40.5 -24q54 -32 112 -47.5t87 -15.5h87l7 -22
l-40 -90l-80 1q-24 -4 -52.5 -19.5t-68.5 -42t-58 -36.5zM544 -70q-13 -18 -31.5 -36.5t-30.5 -27.5l-12 -9q-33 25 -62 61q-12 -16 -28 -31t-26 -23l-9 -7q-20 14 -38 32.5t-26 29.5l-8 11q36 43 72 74q51 -42 64 -62q31 36 61 62q52 -42 74 -74z" />
    <glyph glyph-name="uniFB79" unicode="&#x683;" horiz-adv-x="661" arabic-form="medial" 
d="M316 68q-66 -38 -111 -53t-122 -15h-83l-16 3v122l16 3h135q99 0 191 34q49 17 61 20q-63 19 -121 54q-16 9 -60.5 35.5t-60.5 33.5l-87 -59l-23 26q10 16 26.5 39.5t55.5 63t63 39.5q8 0 17 -3t23 -10.5t26 -15t35.5 -21.5t40.5 -24q54 -32 112 -47.5t87 -15.5h83l7 -22
l-43 -90l-26 -1q8 -36 60 -36h59l16 -3v-122l-16 -3h-70q-62 0 -84.5 47t-9.5 113q-19 -3 -44 -14t-42.5 -20.5t-50 -30t-44.5 -27.5zM495 -87q-12 -18 -30.5 -36.5t-30.5 -27.5l-12 -9q-31 22 -63 60q-12 -16 -28 -31t-25 -22l-10 -7q-20 14 -38 32.5t-26 29.5l-8 11
q36 43 72 74q51 -43 64 -63q35 40 62 63q51 -43 73 -74z" />
    <glyph glyph-name="uniFB7B" unicode="&#x686;" horiz-adv-x="639" arabic-form="final" 
d="M627 -196q-36 -23 -130 -69.5t-110 -46.5q-117 0 -201 42.5t-104 94.5q-11 28 -20 80.5t-7 70.5q11 81 71.5 145t123.5 95q25 12 99 19l1 6q-55 5 -132.5 21t-84.5 17l-81 -73l-27 22q3 7 9 17.5l22 38.5t30.5 49.5t32 39t29.5 17.5q17 0 135.5 -24t204.5 -24h105l6 -18
l-38 -93l-44 2q-3 -56 15 -80.5t73 -24.5h40l16 -3v-122l-16 -3h-45q-62 0 -95 31t-35 80t13 110q-63 -21 -140 -63t-133 -84q-88 -69 -106 -142q84 -108 324 -108l191 10zM408 -32l-55 55q-3 -3 -24.5 -25t-27.5 -30q-43 36 -62 63q11 15 26.5 30.5t25.5 22.5l10 8
q21 -15 52 -50q11 12 24.5 24.5t22.5 19.5l8 6q16 -12 30.5 -27.5t21.5 -24.5l7 -9q-30 -37 -59 -63zM354 -139q-42 34 -60 60q10 15 25 30.5t25 22.5l10 8q15 -12 29.5 -27t21.5 -25l7 -9q-30 -34 -58 -60z" />
    <glyph glyph-name="uniFB7C" unicode="&#x686;" horiz-adv-x="647" arabic-form="initial" 
d="M316 68q-66 -38 -111 -53t-122 -15h-83l-16 3v122l16 3h135q94 0 189 33q43 17 63 21q-66 20 -121 54q-16 9 -60.5 35.5t-60.5 33.5l-87 -59l-23 26q10 16 26.5 39.5t55.5 63t63 39.5q8 0 17 -3t23 -10.5t26 -15t35.5 -21.5t40.5 -24q54 -32 112 -47.5t87 -15.5h87l7 -22
l-40 -90l-80 1q-24 -4 -52.5 -19.5t-68.5 -42t-58 -36.5zM545 -33q-34 -42 -67 -71l-62 62q-4 -4 -27.5 -28.5t-31.5 -33.5q-49 41 -70 71q12 17 29.5 34t29.5 26l11 9q29 -21 59 -57q12 14 27.5 28.5t24.5 21.5l10 7q18 -14 34.5 -31t24.5 -27zM417 -225q-48 38 -68 68
q12 17 29 34t28 26l11 9q17 -14 33.5 -31t24.5 -27l8 -11q-34 -39 -66 -68z" />
    <glyph glyph-name="uniFB7D" unicode="&#x686;" horiz-adv-x="661" arabic-form="medial" 
d="M316 68q-66 -38 -111 -53t-122 -15h-83l-16 3v122l16 3h135q99 0 191 34q49 17 61 20q-63 19 -121 54q-16 9 -60.5 35.5t-60.5 33.5l-87 -59l-23 26q10 16 26.5 39.5t55.5 63t63 39.5q8 0 17 -3t23 -10.5t26 -15t35.5 -21.5t40.5 -24q54 -32 112 -47.5t87 -15.5h83l7 -22
l-43 -90l-26 -1q8 -36 60 -36h59l16 -3v-122l-16 -3h-70q-62 0 -84.5 47t-9.5 113q-19 -3 -44 -14t-42.5 -20.5t-50 -30t-44.5 -27.5zM498 -53q-34 -42 -67 -71l-62 62q-4 -4 -27.5 -28.5t-31.5 -33.5q-49 41 -70 71q12 17 29.5 34t28.5 26l12 9q29 -21 59 -57
q12 14 27.5 28.5t25.5 21.5l9 7q18 -14 34.5 -31t24.5 -27zM370 -245q-48 38 -68 68q12 17 29 34t28 26l11 9q17 -14 33.5 -31t24.5 -27l8 -11q-34 -39 -66 -68z" />
    <glyph glyph-name="uniFB7F" unicode="&#x687;" horiz-adv-x="639" arabic-form="final" 
d="M627 -196q-36 -23 -130 -69.5t-110 -46.5q-117 0 -201 42.5t-104 94.5q-11 28 -20 80.5t-7 70.5q11 81 71.5 145t123.5 95q25 12 99 19l1 6q-55 5 -132.5 21t-84.5 17l-81 -73l-27 22q3 7 9 17.5l22 38.5t30.5 49.5t32 39t29.5 17.5q17 0 135.5 -24t204.5 -24h105l6 -18
l-38 -93l-44 2q-3 -56 15 -80.5t73 -24.5h40l16 -3v-122l-16 -3h-45q-62 0 -95 31t-35 80t13 110q-63 -21 -140 -63t-133 -84q-88 -69 -106 -142q84 -108 324 -108l191 10zM405 -130q-37 26 -54 50q-24 -28 -53 -50q-36 28 -58 58q3 5 9.5 12t13.5 14l13 13l11 11l5 4
q-38 33 -52 55q7 10 19 22t25 23.5t14 12.5q20 -15 53 -51q10 13 54 51q38 -31 57 -58q-14 -23 -51 -55q41 -39 51 -54q-13 -23 -57 -58zM351 -67l49 49l-49 49l-48 -49z" />
    <glyph glyph-name="uniFB80" unicode="&#x687;" horiz-adv-x="647" arabic-form="initial" 
d="M316 68q-66 -38 -111 -53t-122 -15h-83l-16 3v122l16 3h135q94 0 189 33q43 17 63 21q-66 20 -121 54q-16 9 -60.5 35.5t-60.5 33.5l-87 -59l-23 26q10 16 26.5 39.5t55.5 63t63 39.5q8 0 17 -3t23 -10.5t26 -15t35.5 -21.5t40.5 -24q54 -32 112 -47.5t87 -15.5h87l7 -22
l-40 -90l-80 1q-24 -4 -52.5 -19.5t-68.5 -42t-58 -36.5zM477 -226q-48 39 -62 59q-21 -28 -60 -59q-43 35 -67 68q12 18 60 62q-44 42 -60 65q17 22 67 66q30 -24 60 -58q31 34 62 58q38 -28 66 -66q-6 -9 -26.5 -31.5t-32.5 -32.5q49 -49 59 -63q-25 -37 -66 -68z
M415 -153l56 58l-56 57l-55 -57z" />
    <glyph glyph-name="uniFB81" unicode="&#x687;" horiz-adv-x="661" arabic-form="medial" 
d="M316 68q-66 -38 -111 -53t-122 -15h-83l-16 3v122l16 3h135q99 0 191 34q49 17 61 20q-63 19 -121 54q-16 9 -60.5 35.5t-60.5 33.5l-87 -59l-23 26q10 16 26.5 39.5t55.5 63t63 39.5q8 0 17 -3t23 -10.5t26 -15t35.5 -21.5t40.5 -24q54 -32 112 -47.5t87 -15.5h83l7 -22
l-43 -90l-26 -1q8 -36 60 -36h59l16 -3v-122l-16 -3h-70q-62 0 -84.5 47t-9.5 113q-19 -3 -44 -14t-42.5 -20.5t-50 -30t-44.5 -27.5zM429 -245q-11 7 -32.5 26.5t-29.5 31.5q-31 -36 -61 -58q-38 28 -67 67q12 19 60 63q-42 36 -60 64q17 23 67 67q27 -20 61 -59
q13 15 62 59q18 -14 39 -37t26 -30q-15 -25 -59 -64q40 -37 59 -63q-16 -27 -65 -67zM367 -172l56 57l-56 57l-55 -57z" />
    <glyph glyph-name="uniFB83" unicode="&#x68d;" horiz-adv-x="492" arabic-form="final" 
d="M492 0h-13q-49 0 -81 21t-55 73l-54 -80q-7 -4 -50.5 -9t-79.5 -5q-131 0 -131 109q0 36 13 78t23 59l37 -10q-8 -35 -8 -53q0 -17 5 -27t28.5 -19t67.5 -9q62 0 132 4l-111 280l75 87h26l86 -281q21 -63 35 -76.5t55 -13.5l16 -3v-122zM372 -151q-12 -18 -30.5 -36.5
t-30.5 -27.5l-12 -9q-30 22 -62 60q-12 -16 -28 -31t-26 -22l-10 -7q-19 14 -37 32.5t-26 29.5l-8 11q35 43 71 73q51 -42 64 -62q43 46 62 62q52 -42 73 -73z" />
    <glyph glyph-name="uniFB85" unicode="&#x68c;" horiz-adv-x="492" arabic-form="final" 
d="M406 660q-12 -19 -30.5 -37t-30.5 -27l-12 -9q-36 27 -62 60q-12 -16 -28 -31t-26 -22l-10 -7q-20 14 -38 32t-26 29l-8 12q36 43 72 73q51 -42 64 -62q32 36 62 62q51 -42 73 -73zM492 0h-13q-49 0 -81 21t-55 73l-54 -80q-7 -4 -50.5 -9t-79.5 -5q-131 0 -131 109
q0 36 13 78t23 59l37 -10q-8 -35 -8 -53q0 -17 5 -27t28.5 -19t67.5 -9q62 0 132 4l-111 280l75 87h26l86 -281q21 -63 35 -76.5t55 -13.5l16 -3v-122z" />
    <glyph glyph-name="uniFB87" unicode="&#x68e;" horiz-adv-x="483" arabic-form="final" 
d="M270 704q-17 14 -33.5 31t-24.5 27l-8 11q34 39 66 68q48 -38 68 -68q-12 -17 -29 -34t-28 -26zM330 580q-29 21 -59 57q-12 -14 -27.5 -28.5t-25.5 -21.5l-9 -7q-18 14 -34.5 31t-24.5 27l-8 11q34 42 67 71l62 -62q4 4 27.5 28.5t31.5 33.5q49 -41 70 -71
q-12 -17 -29.5 -34t-28.5 -26zM483 0h-13q-49 0 -81 21t-55 73l-54 -80q-7 -4 -50.5 -9t-79.5 -5q-131 0 -131 109q0 36 13 78t23 59l37 -10q-8 -35 -8 -53q0 -17 5 -27t28.5 -19t67.5 -9q62 0 132 4l-111 280l75 87h26l86 -281q21 -63 35 -76.5t55 -13.5l16 -3v-122z" />
    <glyph glyph-name="uniFB89" unicode="&#x688;" horiz-adv-x="492" arabic-form="final" 
d="M286 669q63 0 97 10q-27 47 -64 47q-43 0 -99 -56q13 0 35 -0.5t31 -0.5zM263 590q-17 0 -37 2t-32 4l-11 1l-80 64l3 14q18 -2 77 -4q3 5 7 11q-8 83 -12 153l-11 33l53 50l13 -8v-20l26 -49l-20 -22l-1 -37q0 -5 -5 -20.5t-11 -27.5l-5 -13q66 86 117 86q32 0 59 -38
t27 -73q0 -12 -20.5 -46.5t-29.5 -39.5q-10 -6 -41.5 -13t-65.5 -7zM492 0h-13q-49 0 -81 21t-55 73l-54 -80q-7 -4 -50.5 -9t-79.5 -5q-131 0 -131 109q0 36 13 78t23 59l37 -10q-8 -35 -8 -53q0 -17 5 -27t28.5 -19t67.5 -9q62 0 132 4l-111 280l75 87h26l86 -281
q21 -63 35 -76.5t55 -13.5l16 -3v-122z" />
    <glyph glyph-name="uniFB8B" unicode="&#x698;" horiz-adv-x="372" arabic-form="final" 
d="M195 565q-17 14 -33.5 31t-24.5 28l-8 10q34 39 66 68q48 -38 68 -68q-12 -17 -29 -34t-28 -26zM255 441q-29 21 -59 57q-12 -14 -27.5 -28.5t-24.5 -21.5l-10 -7q-18 14 -34.5 31t-24.5 28l-8 10q34 42 67 71l62 -62q4 4 27.5 28.5t31.5 33.5q49 -41 70 -71
q-12 -17 -29.5 -34t-29.5 -26zM96 -203q-19 0 -83.5 41.5t-80.5 57.5l15 36q46 -12 77 -12q129 0 198 168q-19 39 -70 159l72 86h21l19 -81q20 -80 39 -102t69 -22l16 -3v-122l-16 -3h-12q-46 0 -90 46q-2 -29 -13.5 -68.5t-32 -81.5t-54.5 -70.5t-74 -28.5z" />
    <glyph glyph-name="uniFB8D" unicode="&#x691;" horiz-adv-x="372" arabic-form="final" 
d="M208 514q63 0 97 10q-27 47 -64 47q-43 0 -99 -56q13 0 35 -0.5t31 -0.5zM185 435q-17 0 -37 1.5t-32 3.5l-11 2l-80 64l3 14q18 -2 77 -4q3 5 7 11q-8 83 -12 153l-11 33l53 50l13 -8v-20l26 -49l-20 -22l-1 -37q0 -5 -5 -20.5t-11 -28.5l-5 -12q66 86 117 86
q32 0 59 -38t27 -73q0 -12 -20.5 -46.5t-29.5 -39.5q-10 -6 -41.5 -13t-65.5 -7zM96 -203q-19 0 -83.5 41.5t-80.5 57.5l15 36q46 -12 77 -12q129 0 198 168q-19 39 -70 159l72 86h21l19 -81q20 -80 39 -102t69 -22l16 -3v-122l-16 -3h-12q-46 0 -90 46q-2 -29 -13.5 -68.5
t-32 -81.5t-54.5 -70.5t-74 -28.5z" />
    <glyph glyph-name="uniFB8F" unicode="&#x6a9;" horiz-adv-x="850" arabic-form="final" 
d="M850 0h-13q-52 0 -90 17.5t-61.5 43t-64.5 80.5q-63 -118 -80 -123q-48 -18 -252 -18q-68 0 -118 13.5t-77 33.5t-42.5 49t-19.5 52t-4 51q0 44 19 97t39 84l19 32l29 -17q-35 -84 -35 -135q0 -132 209 -132q162 0 250 9q-4 53 -44 117q-12 19 -32 49.5t-32 49t-14 22.5
q-5 8 18.5 68.5t35.5 66.5l294 187l15 -13l-25 -118l-236 -140l102 -149q61 -87 100 -118t96 -31h14l16 -3v-122z" />
    <glyph glyph-name="uniFB90" unicode="&#x6a9;" horiz-adv-x="470" arabic-form="initial" 
d="M139 0h-139l-16 3v122l16 3h151q140 0 193 9q-44 68 -199 161l-16 -17l-91 59q-6 6 18 79.5t35 77.5l340 198l15 -14l-25 -118l-267 -131q130 -70 192.5 -139.5t62.5 -120.5q0 -15 -30 -76t-43 -71q-32 -25 -197 -25z" />
    <glyph glyph-name="uniFB91" unicode="&#x6a9;" horiz-adv-x="462" arabic-form="medial" 
d="M146 16q-32 -16 -106 -16h-40l-16 3v122l16 3h63q83 0 107 8q-4 52 -44 118q-12 19 -32 49.5t-32 49t-14 22.5q-5 8 18.5 68.5t35.5 66.5l294 187l14 -13l-24 -118l-236 -140l102 -149q61 -87 100 -118t96 -31h14l16 -3v-122l-16 -3h-13q-76 0 -117 30.5t-103 115.5
q-65 -124 -83 -130z" />
    <glyph glyph-name="uniFB93" unicode="&#x6af;" horiz-adv-x="850" arabic-form="final" 
d="M443 564l5 49l324 198l5 -7l-5 -48l-324 -199zM850 0h-13q-52 0 -90 17.5t-61.5 43t-64.5 80.5q-63 -118 -80 -123q-48 -18 -252 -18q-68 0 -118 13.5t-77 33.5t-42.5 49t-19.5 52t-4 51q0 44 19 97t39 84l19 32l29 -17q-35 -84 -35 -135q0 -132 209 -132q162 0 250 9
q-4 53 -44 117q-12 19 -32 49.5t-32 49t-14 22.5q-5 8 18.5 68.5t35.5 66.5l294 187l15 -13l-25 -118l-236 -140l102 -149q61 -87 100 -118t96 -31h14l16 -3v-122z" />
    <glyph glyph-name="uniFB94" unicode="&#x6af;" horiz-adv-x="471" arabic-form="initial" 
d="M63 562l5 48l345 195l5 -6l-5 -48l-345 -196zM140 0h-139l-16 3v122l16 3h151q140 0 193 9q-44 68 -199 161l-16 -17l-91 59q-6 6 18 79.5t35 77.5l340 198l15 -14l-25 -118l-267 -131q130 -70 192.5 -139.5t62.5 -120.5q0 -15 -30 -76t-43 -71q-32 -25 -197 -25z" />
    <glyph glyph-name="uniFB95" unicode="&#x6af;" horiz-adv-x="462" arabic-form="medial" 
d="M55 564l5 49l324 198l5 -7l-5 -48l-324 -199zM146 16q-32 -16 -106 -16h-40l-16 3v122l16 3h63q83 0 107 8q-4 52 -44 118q-12 19 -32 49.5t-32 49t-14 22.5q-5 8 18.5 68.5t35.5 66.5l294 187l14 -13l-24 -118l-236 -140l102 -149q61 -87 100 -118t96 -31h14l16 -3v-122
l-16 -3h-13q-76 0 -117 30.5t-103 115.5q-65 -124 -83 -130z" />
    <glyph glyph-name="uniFB97" unicode="&#x6b3;" horiz-adv-x="850" arabic-form="final" 
d="M443 563l5 49l324 198l5 -7l-5 -48l-324 -198zM850 0h-13q-52 0 -90 17.5t-61.5 43t-64.5 80.5q-63 -118 -80 -123q-48 -18 -252 -18q-68 0 -118 13.5t-77 33.5t-42.5 49t-19.5 52t-4 51q0 44 19 97t39 84l19 32l29 -17q-35 -84 -35 -135q0 -132 209 -132q162 0 250 9
q-4 53 -44 117q-12 19 -32 49.5t-32 49t-14 22.5q-5 8 18.5 68.5t35.5 66.5l294 187l15 -13l-25 -118l-236 -140l102 -149q61 -87 100 -118t96 -31h14l16 -3v-122zM359 -321q-43 35 -73 71q42 51 62 64q-37 32 -62 62q42 52 73 73q18 -12 36.5 -30.5t27.5 -30.5l9 -12
q-22 -30 -60 -62q16 -12 31 -28t22 -26l7 -10q-14 -19 -32.5 -37t-29.5 -26z" />
    <glyph glyph-name="uniFB98" unicode="&#x6b3;" horiz-adv-x="470" arabic-form="initial" 
d="M61 562l5 48l346 195l5 -6l-5 -48l-345 -196zM139 0h-139l-16 3v122l16 3h151q140 0 193 9q-44 68 -199 161l-16 -17l-91 59q-6 6 18 79.5t35 77.5l340 198l15 -14l-25 -118l-267 -131q130 -70 192.5 -139.5t62.5 -120.5q0 -15 -30 -76t-43 -71q-32 -25 -197 -25z
M217 -322q-43 36 -74 72q42 51 62 64q-45 42 -62 62q42 51 74 73q18 -12 36.5 -30.5t27.5 -30.5l9 -12q-27 -37 -61 -62q16 -13 31 -29t22 -25l8 -10q-14 -20 -32.5 -38t-29.5 -26z" />
    <glyph glyph-name="uniFB99" unicode="&#x6b3;" horiz-adv-x="462" arabic-form="medial" 
d="M55 563l5 49l324 198l5 -7l-5 -48l-324 -198zM146 16q-32 -16 -106 -16h-40l-16 3v122l16 3h63q83 0 107 8q-4 52 -44 118q-12 19 -32 49.5t-32 49t-14 22.5q-5 8 18.5 68.5t35.5 66.5l294 187l14 -13l-24 -118l-236 -140l102 -149q61 -87 100 -118t96 -31h14l16 -3v-122
l-16 -3h-13q-76 0 -117 30.5t-103 115.5q-65 -124 -83 -130zM233 -298q-43 35 -73 72q42 51 62 64q-40 35 -62 61q42 52 73 73q19 -12 37 -30.5t27 -30.5l9 -12q-22 -30 -60 -62q16 -12 31 -28t22 -25l7 -10q-14 -20 -32 -38t-30 -26z" />
    <glyph glyph-name="uniFB9B" unicode="&#x6b1;" horiz-adv-x="850" arabic-form="final" 
d="M746 875q-12 -19 -30.5 -37t-30.5 -27l-12 -9q-36 27 -62 60q-12 -16 -28 -31t-26 -22l-10 -7q-20 14 -38 32t-26 30l-8 11q36 43 72 73q51 -42 64 -62q32 36 62 62q51 -42 73 -73zM443 564l5 49l324 198l5 -7l-5 -48l-324 -199zM850 0h-13q-52 0 -90 17.5t-61.5 43
t-64.5 80.5q-63 -118 -80 -123q-48 -18 -252 -18q-68 0 -118 13.5t-77 33.5t-42.5 49t-19.5 52t-4 51q0 44 19 97t39 84l19 32l29 -17q-35 -84 -35 -135q0 -132 209 -132q162 0 250 9q-4 53 -44 117q-12 19 -32 49.5t-32 49t-14 22.5q-5 8 18.5 68.5t35.5 66.5l294 187
l15 -13l-25 -118l-236 -140l102 -149q61 -87 100 -118t96 -31h14l16 -3v-122z" />
    <glyph glyph-name="uniFB9C" unicode="&#x6b1;" horiz-adv-x="470" arabic-form="initial" 
d="M372 875q-12 -19 -30.5 -37t-30.5 -27l-12 -9q-36 27 -62 60q-12 -16 -28 -31t-26 -22l-10 -7q-20 14 -38 32t-26 30l-8 11q36 43 72 73q51 -42 64 -62q32 36 62 62q51 -42 73 -73zM67 555l-5 7l5 48l345 195l5 -6l-5 -48zM139 0h-139l-16 3v122l16 3h151q140 0 193 9
q-44 68 -199 161l-16 -17l-91 59q-6 6 18 79.5t35 77.5l340 198l15 -14l-25 -118l-267 -131q130 -70 192.5 -139.5t62.5 -120.5q0 -15 -30 -76t-43 -71q-32 -25 -197 -25z" />
    <glyph glyph-name="uniFB9D" unicode="&#x6b1;" horiz-adv-x="462" arabic-form="medial" 
d="M362 875q-12 -18 -30.5 -36.5t-30.5 -27.5l-12 -9q-37 27 -62 61q-13 -16 -29 -31t-26 -22l-9 -8q-20 14 -38 32.5t-26 29.5l-8 11q36 43 72 74q51 -42 64 -62q32 36 62 62q51 -42 73 -74zM55 563l5 49l324 198l5 -7l-5 -48l-324 -198zM146 16q-32 -16 -106 -16h-40
l-16 3v122l16 3h63q83 0 107 8q-4 52 -44 118q-12 19 -32 49.5t-32 49t-14 22.5q-5 8 18.5 68.5t35.5 66.5l294 187l14 -13l-24 -118l-236 -140l102 -149q61 -87 100 -118t96 -31h14l16 -3v-122l-16 -3h-13q-76 0 -117 30.5t-103 115.5q-65 -124 -83 -130z" />
    <glyph glyph-name="uniFB9F" unicode="&#x6ba;" horiz-adv-x="631" arabic-form="final" 
d="M242 -203q-61 0 -105 16t-66.5 43.5t-32.5 57.5t-10 66q0 49 20 106.5t40 89.5l21 33l31 -16q-34 -82 -34 -136q0 -131 161 -131q92 0 184 38l-41 278l89 71h27l4 -77q3 -40 5.5 -55.5t13 -30.5t29 -18.5t53.5 -3.5l16 -3v-122l-16 -3q-64 0 -95 47v-2
q-14 -45 -42.5 -109.5t-40.5 -75.5q-27 -26 -89.5 -44.5t-121.5 -18.5z" />
    <glyph glyph-name="uniFBA1" unicode="&#x6bb;" horiz-adv-x="631" arabic-form="final" 
d="M269 395q63 0 97 10q-27 47 -64 47q-43 0 -99 -56q13 0 35 -0.5t31 -0.5zM246 316q-17 0 -37 2t-31 4l-12 1l-80 64l3 14q18 -2 77 -4q2 5 7 11q-8 83 -12 153l-11 33l53 50l13 -8v-20l26 -49l-20 -22l-1 -37q0 -5 -5.5 -20.5t-10.5 -27.5l-5 -13q66 86 117 86
q32 0 59 -38t27 -73q0 -12 -20.5 -46.5t-29.5 -39.5q-10 -6 -41.5 -13t-65.5 -7zM242 -203q-61 0 -105 16t-66.5 43.5t-32.5 57.5t-10 66q0 49 20 106.5t40 89.5l21 33l31 -16q-34 -82 -34 -136q0 -131 161 -131q92 0 184 38l-41 278l89 71h27l4 -77q3 -40 5.5 -55.5
t13 -30.5t29 -18.5t53.5 -3.5l16 -3v-122l-16 -3q-64 0 -95 47v-2q-14 -45 -42.5 -109.5t-40.5 -75.5q-27 -26 -89.5 -44.5t-121.5 -18.5z" />
    <glyph glyph-name="uniFBA2" unicode="&#x6bb;" horiz-adv-x="298" arabic-form="initial" 
d="M176 614q61 0 96 9q-25 48 -63 48q-43 0 -99 -56q23 -1 66 -1zM153 534q-17 0 -37 2t-32 4l-11 1l-81 65l3 14q34 -4 77 -4q6 9 7 11q-1 13 -5.5 67t-6.5 86l-11 33l54 50l13 -9v-20l26 -49l-21 -22l-1 -36q0 -5 -5.5 -20.5t-10.5 -28.5l-5 -12l1 -1q65 87 116 87
q33 0 59.5 -38t26.5 -73q0 -12 -20 -46.5t-29 -40.5q-11 -6 -42.5 -13t-64.5 -7zM0 0l-16 3v122l16 3q116 0 152 7q-7 42 -20.5 96t-23.5 87l-9 33l78 81h27l45 -128l-2 -18l-26 -28q9 -61 7 -89q-1 -22 -41 -83t-59 -72q-33 -14 -128 -14z" />
    <glyph glyph-name="uniFBA3" unicode="&#x6bb;" horiz-adv-x="306" arabic-form="medial" 
d="M177 522q63 0 97 10q-27 47 -64 47q-43 0 -99 -56q13 0 35 -0.5t31 -0.5zM154 443q-17 0 -37 1.5t-31 3.5l-12 2l-80 64l3 14q18 -2 77 -4q2 5 7 11q-8 83 -12 153l-11 33l53 50l13 -8v-20l26 -49l-20 -22l-1 -37q0 -5 -5.5 -20.5t-10.5 -28.5l-5 -12q66 86 117 86
q32 0 59 -38t27 -73q0 -12 -20.5 -46.5t-29.5 -39.5q-10 -6 -41.5 -13t-65.5 -7zM306 0h-9q-101 0 -161 77q-52 -63 -63 -67q-20 -10 -73 -10l-16 3v122l16 3q58 0 93 7l39 155l75 48l21 -6q-10 -138 -23 -188q31 -16 101 -16l16 -3v-122z" />
    <glyph glyph-name="uniFBA5" unicode="&#x6c0;" horiz-adv-x="460" arabic-form="final" 
d="M312 560q-10 -5 -61 -18t-62 -13q-6 0 -26 14.5t-37 29.5l-18 15l5 22q49 0 60 2v1q-18 10 -18 43q0 39 26.5 76t67.5 37q26 0 42 -24.5t19 -49.5l3 -25l-19 -5q-12 20 -39 20q-31 0 -67 -23q6 -16 23 -27t39 -11q38 0 88 19l5 -7zM476 3l-16 -3h-35q-110 0 -137 141
l-55 -91q-27 -9 -66 -9q-53 0 -87.5 20.5t-48.5 47.5q-7 15 0 64.5t16 62.5q20 27 78 73.5t133 85.5l-4 47l87 63h27v-293q0 -61 9 -72.5t59 -11.5h24l16 -3v-122zM198 168q30 0 78 6q-2 23 -11 134q-48 -20 -101.5 -51.5t-79.5 -56.5q40 -32 114 -32z" />
    <glyph glyph-name="uniFBA7" unicode="&#x6c1;" horiz-adv-x="467" arabic-form="final" 
d="M483 3l-16 -3q-40 0 -68 13.5t-44.5 41.5t-25 56.5t-15.5 71.5q-66 -2 -151 -40.5t-135 -81.5l-12 14l59 135q58 42 115.5 65.5t89.5 23.5q42 0 61 -18t25 -57q9 -51 21 -67q22 -29 80 -29l16 -3v-122z" />
    <glyph glyph-name="uniFBA8" unicode="&#x6c1;" horiz-adv-x="279" arabic-form="initial" 
d="M0 0l-16 3v122l16 3q102 0 137 6q-7 42 -20 96t-23 88l-9 33l80 81h27l45 -128l-2 -18l-26 -28q9 -57 6 -89q-1 -21 -40.5 -82.5t-58.5 -72.5q-33 -14 -116 -14zM128 -276q-85 34 -90 62q-3 29 17.5 73.5t64.5 82.5l30 -23q-29 -40 -40 -79q42 -26 60 -35v-15z" />
    <glyph glyph-name="uniFBA9" unicode="&#x6c1;" horiz-adv-x="425" arabic-form="medial" 
d="M256 -294h-3q-157 145 -157 290q0 26 3 44q-27 -29 -34 -34q-10 -6 -65 -6l-16 3v122l16 3q103 0 140 12q11 19 32 52l71 30l6 -10q-75 -126 -75 -187q0 -42 18 -79t62 -85l2 1q-13 35 -13 79t12 80q5 15 42.5 56.5t45.5 43.5q35 7 82 7l16 -3v-122l-16 -3h-39
q-54 0 -77 -4q-11 -24 -11 -59q0 -55 50 -125q0 -4 -17 -24t-45.5 -50.5t-29.5 -31.5zM97 -380q-86 37 -90 62q-3 30 17.5 74t64.5 83l30 -23q-31 -46 -40 -80l60 -35v-15z" />
    <glyph glyph-name="uniFBAB" unicode="&#x6be;" horiz-adv-x="581" arabic-form="final" 
d="M231 128h18q120 5 171 56q-11 39 -30.5 68.5t-38.5 29.5q-25 0 -63 -43t-57 -111zM414 -93q40 0 69 8q-29 104 -171 107q-36 0 -82 -11q50 -104 184 -104zM481 -202q-5 -5 -30 -10t-51 -5q-76 0 -136 57t-80 160l-54 6l-118 108l8 20q87 -5 163 -6q22 122 84.5 207
t116.5 85q44 0 73 -65.5t29 -117.5q0 -12 -17 -47.5t-36 -61.5h148l16 -3v-122l-16 -3h-45q9 -13 9 -18q4 -22 -25 -98.5t-39 -85.5z" />
    <glyph glyph-name="uniFBAC" unicode="&#x6be;" horiz-adv-x="522" arabic-form="initial" 
d="M220 141l4 2q35 16 49 44q-8 53 -31.5 89t-48.5 36q-23 0 -52 -27t-49 -63q43 -40 128 -81zM425 75l-2 10q-24 84 -88 144l1 -6q2 -55 -52 -109q77 -30 141 -39zM483 92q1 -24 -33 -78t-50 -54q-31 0 -93 23t-120 58q-72 -41 -149 -41h-38l-16 3v122l16 3l71 -1
q-9 27 -13 65t-1 49q20 70 72 115l-33 19l49 109l26 6q179 -119 245 -207.5t67 -190.5z" />
    <glyph glyph-name="uniFBAD" unicode="&#x6be;" horiz-adv-x="472" arabic-form="medial" 
d="M372 -202q-5 -5 -30 -10t-51 -5q-76 0 -136 58t-80 162q-33 -3 -75 -3l-16 3v122l16 3h74q23 122 85.5 207t116.5 85q30 0 54.5 -35.5t36 -76.5t11.5 -71q0 -12 -17.5 -47t-35.5 -62h147l16 -3v-122l-16 -3h-45q9 -10 9 -18q4 -22 -25 -98.5t-39 -85.5zM122 128h19
q120 5 170 55q-12 38 -34.5 68.5t-42.5 30.5q-24 0 -58.5 -42.5t-53.5 -111.5zM306 -93q39 0 69 8q-30 104 -171 107q-30 0 -83 -10q50 -105 185 -105z" />
    <glyph glyph-name="uniFBAF" unicode="&#x6d2;" horiz-adv-x="613" arabic-form="final" 
d="M434 -258h-165q-54 0 -97 8t-66 18t-40.5 24t-22.5 20.5t-8 13.5t-9 60t-4 59q6 22 28.5 51t59.5 59.5t94.5 51.5t122.5 21h286l16 -3v-122l-16 -3h-302q-157 0 -244 -101q61 -29 260 -29h277v-23z" />
    <glyph glyph-name="uniFBB1" unicode="&#x6d3;" horiz-adv-x="609" arabic-form="final" 
d="M275 222q-10 -5 -61 -18t-62 -13q-6 0 -26 14.5t-38 29.5l-17 15l5 22q49 0 60 2v1q-18 10 -18 43q0 39 26.5 76t67.5 37q26 0 42 -24.5t19 -49.5l3 -25l-19 -5q-12 20 -39 20q-31 0 -67 -23q6 -16 23 -27t39 -11q38 0 88 19l5 -7zM429 -258h-165q-54 0 -97 8t-66 18
t-40.5 24t-22.5 20.5t-8 13.5t-9 60t-4 59q6 22 28.5 51t59.5 59.5t94.5 51.5t122.5 21h286l16 -3v-122l-16 -3h-302q-157 0 -244 -101q61 -29 260 -29h277v-23z" />
    <glyph glyph-name="uniFBDA" unicode="&#x6c6;" horiz-adv-x="452" arabic-form="final" 
d="M258 487h-61l-6 5q-21 61 -92 116l41 74l9 2q50 -49 82 -136q22 69 75 134l10 -1l32 -56q-71 -79 -90 -138zM332 128l-1 2q-13 47 -47 94t-70 47q-34 0 -64 -36t-44 -84q38 -23 127 -23h99zM201 -203q-19 0 -89.5 43.5t-85.5 58.5l16 36q75 -15 109 -15q59 0 112.5 21.5
t82.5 58.5h-107q-44 0 -77.5 9t-44.5 16t-15 12q-8 11 -24 63t-15 65q3 45 24 95.5t62 91t90 40.5q61 0 106 -81.5t53 -182.5h54l16 -3v-122l-16 -3h-63q-16 -80 -66.5 -141.5t-121.5 -61.5z" />
    <glyph glyph-name="uniFBE5" unicode="&#x6d0;" horiz-adv-x="612" arabic-form="final" 
d="M242 -240q-115 0 -167.5 54t-52.5 130q0 49 20.5 107.5t41.5 92.5l20 34l33 -17q-37 -79 -37 -130q0 -135 162 -135q73 0 148.5 16.5t119.5 39.5q-39 48 -130 48h-33l-3 7l35 116l7 5h206l16 -3v-122l-16 -3l-28 1q1 -6 1 -16q0 -21 -20 -77.5t-29 -63.5
q-35 -26 -115 -55t-179 -29zM313 -575q-43 36 -74 72q42 51 62 64q-36 32 -62 62q42 51 74 73q18 -12 36.5 -30.5t27.5 -30.5l9 -12q-27 -37 -61 -62q16 -12 31 -28t22 -26l8 -10q-14 -20 -32.5 -38t-29.5 -26z" />
    <glyph glyph-name="uniFBE6" unicode="&#x6d0;" horiz-adv-x="279" arabic-form="initial" 
d="M0 0l-16 3v122l16 3q102 0 137 6q-7 42 -20 96t-23 88l-9 33l80 81h27l45 -128l-2 -18l-26 -28q9 -57 6 -89q-1 -21 -40.5 -82.5t-58.5 -72.5q-33 -14 -116 -14zM124 -332q-43 36 -74 72q43 51 63 64q-40 35 -63 62q43 51 74 73q18 -12 36.5 -30.5t27.5 -30.5l9 -12
q-27 -37 -61 -62q16 -12 31 -28t23 -26l7 -10q-14 -20 -32.5 -38t-29.5 -26z" />
    <glyph glyph-name="uniFBE7" unicode="&#x6d0;" horiz-adv-x="307" arabic-form="medial" 
d="M306 0h-9q-101 0 -161 77q-52 -63 -63 -67q-20 -10 -73 -10l-16 3v122l16 3q58 0 93 7l39 155l75 48l21 -6q-10 -138 -23 -188q31 -16 101 -16l16 -3v-122zM149 -334q-42 35 -73 72q42 51 62 64q-36 31 -62 61q42 52 73 73q19 -12 37.5 -30.5t27.5 -30.5l9 -12
q-20 -27 -61 -62q16 -12 31 -28t23 -25l7 -10q-14 -20 -32.5 -38t-30.5 -26z" />
    <glyph glyph-name="uniFBE8" unicode="&#x649;" horiz-adv-x="279" arabic-form="initial" 
d="M0 0l-16 3v122l16 3q104 0 138 6q-7 42 -20.5 96t-23.5 88l-9 33l81 81h26l45 -128l-1 -18l-27 -28q9 -61 7 -89q-1 -22 -40.5 -83t-59.5 -72q-33 -14 -116 -14z" />
    <glyph glyph-name="uniFBE9" unicode="&#x649;" horiz-adv-x="306" arabic-form="medial" 
d="M306 0h-9q-101 0 -161 77q-52 -63 -63 -67q-20 -10 -73 -10l-16 3v122l16 3q58 0 93 7l39 155l75 48l21 -6q-10 -138 -23 -188q31 -16 101 -16l16 -3v-122z" />
    <glyph glyph-name="uniFBFD" unicode="&#x6cc;" horiz-adv-x="618" arabic-form="final" 
d="M248 -240q-115 0 -167.5 54t-52.5 130q0 49 20.5 107.5t41.5 92.5l20 34l33 -17q-37 -79 -37 -130q0 -135 161 -135q74 0 149.5 16.5t119.5 39.5q-39 48 -131 48h-32l-3 7l34 116l8 5h206l16 -3v-122l-16 -3l-28 1q0 -3 0.5 -8.5t0.5 -7.5q0 -21 -20 -77.5t-29 -63.5
q-35 -26 -115 -55t-179 -29z" />
    <glyph glyph-name="uniFBFE" unicode="&#x6cc;" horiz-adv-x="280" arabic-form="initial" 
d="M0 0l-16 3v122l16 3q104 0 138 6q-7 42 -20.5 96t-23.5 88l-9 33l81 81h26l45 -128l-1 -18l-27 -28q9 -61 7 -89q-1 -22 -40.5 -83t-59.5 -72q-33 -14 -116 -14zM246 -131q-12 -17 -29 -34t-28 -25l-11 -9q-30 23 -58 56q-11 -15 -26 -29t-24 -20l-9 -7q-18 13 -35 30
t-24 27l-8 11q34 40 67 67q47 -39 59 -57q36 39 58 57q47 -39 68 -67z" />
    <glyph glyph-name="uniFBFF" unicode="&#x6cc;" horiz-adv-x="306" arabic-form="medial" 
d="M306 0h-9q-101 0 -161 77q-52 -63 -63 -67q-20 -10 -73 -10l-16 3v122l16 3q58 0 93 7l39 155l75 48l21 -6q-10 -138 -23 -188q31 -16 101 -16l16 -3v-122zM273 -132q-12 -17 -29 -33.5t-28 -24.5l-11 -9q-33 24 -58 56q-12 -15 -26.5 -29t-23.5 -20l-9 -7
q-18 13 -34.5 29.5t-23.5 27.5l-8 10q33 40 66 69q48 -39 60 -58q28 33 57 58q48 -39 68 -69z" />
    <glyph glyph-name="uniFC5E" unicode="&#xfc5e;" arabic-form="isolated" 
d="M191 789l2 4l3 16q0 35 -26 35q-29 0 -47 -26q26 -20 68 -29zM259 764l-33 -47q-11 1 -35 7q-60 -63 -124 -63q-32 0 -45.5 17.5t-13.5 40.5q0 27 16 65l-60 -18l-10 26q13 11 43.5 29.5t36.5 18.5q12 0 22.5 -12.5t10.5 -26.5q0 -2 -3 -18.5t-3 -25.5q0 -32 31 -32
q29 0 57 14q-41 21 -47 40q-3 9 -3 30.5t3 30.5q9 21 32 41t48 20q26 0 40.5 -23t14.5 -52q0 -22 -9 -45q6 -1 17 -2.5t14 -1.5v-13zM90 464q-16 -12 -42 -12q-28 0 -45 21.5t-17 49.5q0 19 7 39t13 31l7 11l22 -6q-6 -24 -6 -42q0 -26 30 -26l23 3l21 68l38 21l8 -6l-5 -73
q41 -10 62 -8l-19 78l52 31l9 -7q3 -42 3 -89q0 -11 -25 -46.5t-37 -35.5q-47 0 -81 25q-3 -4 -7.5 -11t-7 -11t-3.5 -5z" />
    <glyph glyph-name="uniFC5F" unicode="&#xfc5f;" arabic-form="isolated" 
d="M93 539q-16 -12 -42 -12q-29 0 -46 21.5t-16 49.5q0 19 6.5 39t13.5 31l7 11l21 -6q-5 -25 -5 -42q0 -27 30 -27l23 4l21 67l37 22l9 -6l-5 -73q42 -10 61 -8l-18 78l52 31l9 -7q2 -28 2 -89q0 -11 -24.5 -46.5t-36.5 -35.5q-47 0 -81 25q-3 -4 -7.5 -11t-7 -11t-3.5 -5z
M231 497l-12 -54l-197 -59l-7 5l11 55l198 60zM219 377l-12 -54l-197 -59l-7 5l11 55l198 60z" />
    <glyph glyph-name="uniFC60" unicode="&#xfc60;" arabic-form="isolated" 
d="M242 770l-12 -54l-197 -59l-7 5l11 55l198 60zM90 464q-16 -12 -42 -12q-28 0 -45 21.5t-17 49.5q0 19 7 39t13 31l7 11l22 -6q-6 -24 -6 -42q0 -26 30 -26l23 3l21 68l38 21l8 -6l-5 -73q41 -10 62 -8l-19 78l52 31l9 -7q3 -42 3 -89q0 -11 -25 -46.5t-37 -35.5
q-47 0 -81 25q-3 -4 -7.5 -11t-7 -11t-3.5 -5z" />
    <glyph glyph-name="uniFC61" unicode="&#xfc61;" arabic-form="isolated" 
d="M173 770l3 5l2 16q0 15 -7 25.5t-19 10.5q-26 0 -45 -27q21 -19 66 -30zM240 746l-34 -47q-21 3 -41 9q-53 -45 -111 -54l-72 41l2 13q97 5 138 18q-32 17 -38 35q-3 8 -3 30.5t3 30.5q10 21 33.5 41.5t47.5 20.5q25 0 39 -24.5t14 -52.5q0 -24 -10 -44q7 -1 18 -2.5
t14 -1.5v-13zM90 464q-16 -12 -42 -12q-28 0 -45 21.5t-17 49.5q0 19 7 39t13 31l7 11l22 -6q-6 -24 -6 -42q0 -26 30 -26l23 3l21 68l38 21l8 -6l-5 -73q41 -10 62 -8l-19 78l52 31l9 -7q3 -42 3 -89q0 -11 -25 -46.5t-37 -35.5q-47 0 -81 25q-3 -4 -7.5 -11t-7 -11
t-3.5 -5z" />
    <glyph glyph-name="uniFC62" unicode="&#xfc62;" arabic-form="isolated" 
d="M93 503q-12 -12 -42 -12q-29 0 -46 21.5t-16 49.5q0 19 6.5 39t13.5 31l7 11l21 -6q-5 -25 -5 -42q0 -27 30 -27l23 3l21 68l37 22l9 -7l-5 -72q42 -10 61 -8l-18 78l52 30l9 -6q2 -29 2 -90q0 -11 -24.5 -46t-36.5 -35q-47 0 -81 25q-14 -23 -18 -27zM231 467l-12 -54
l-197 -59l-7 5l11 55l198 60z" />
    <glyph glyph-name="uniFC63" unicode="&#xfc63;" arabic-form="isolated" 
d="M101 834l50 20l11 -4l-13 -160l-36 -15h-12v159zM90 464q-16 -12 -42 -12q-28 0 -45 21.5t-17 49.5q0 19 7 39t13 31l7 11l22 -6q-6 -24 -6 -42q0 -26 30 -26l23 3l21 68l38 21l8 -6l-5 -73q41 -10 62 -8l-19 78l52 31l9 -7q3 -42 3 -89q0 -11 -25 -46.5t-37 -35.5
q-47 0 -81 25q-3 -4 -7.5 -11t-7 -11t-3.5 -5z" />
    <glyph glyph-name="uniFDF2" unicode="&#xfdf2;" horiz-adv-x="1004" arabic-form="isolated" 
d="M730 0q-114 0 -148 123q-57 -103 -75 -112q-17 -11 -76 -11q-111 0 -136 140l-56 -90q-27 -9 -66 -9q-52 0 -87 20.5t-48 47.5q-7 16 -0.5 65t15.5 62q22 28 79 74.5t132 84.5l-4 47l87 63h27v-293q0 -62 8.5 -73t55.5 -11q71 0 110 7l-14 506l85 74h26v-499
q0 -57 13 -72.5t72 -15.5q74 0 102 5l-10 398l-29 81l109 103l28 -15v-53l52 -100l-52 -55v-278q0 -36 -51 -112t-75 -92q-17 -10 -74 -10zM205 168q37 0 77 7q-3 25 -11 129q-120 -53 -178 -106q40 -30 112 -30z" />
    <glyph glyph-name="uniFDFC" unicode="&#xfdfc;" horiz-adv-x="1089" arabic-form="isolated" 
d="M260 -203q-61 0 -105 16t-66.5 43.5t-32.5 57.5t-10 66q0 49 21 106.5t41 89.5l21 33l32 -17q-37 -83 -37 -135q0 -131 162 -131q76 0 165 34l-9 234q-85 -58 -143 -58q-44 0 -70.5 31.5t-26.5 85.5q0 37 18 83t36 70l32 -15q-22 -40 -22 -81q0 -50 48 -50q50 0 124 49
l-13 331l87 75h22v-333l99 87l-1 171l84 75h21v-155q92 73 138 73q22 0 37 -16t21 -38.5t8.5 -44.5t1.5 -38l-1 -16l-27 -7q-23 37 -59 37q-38 0 -119 -66v-276q0 -27 21.5 -33.5t80.5 -6.5q91 0 113 5q-8 40 -20 91.5t-20 83.5l-9 31l85 81h26l42 -116l-2 -18l-26 -27
q9 -52 6 -80q-1 -22 -40.5 -88t-58.5 -77q-33 -14 -95 -14h-1h-1q-110 1 -156.5 83t-47.5 267v4q-44 -41 -100 -89v-214q0 -38 -39 -114.5t-59 -93.5q-18 -15 -71.5 -30.5t-104.5 -15.5zM974 -130q-12 -18 -30 -36t-30 -27l-11 -9q-38 28 -61 60q-12 -16 -28 -31t-26 -22
l-9 -7q-19 14 -36.5 32t-25.5 29l-8 11q35 42 70 72q50 -41 63 -61q32 37 61 61q50 -41 71 -72z" />
    <glyph glyph-name="uniFE82" unicode="&#x622;" horiz-adv-x="287" arabic-form="final" 
d="M261 707q-55 -17 -137 -17q-46 0 -91 12l-32 -54l-23 8q11 52 23 77q3 5 30 33.5t33 28.5t37.5 -1.5t51.5 -1.5q73 0 145 10l5 -10zM287 0q-111 0 -157.5 82t-47.5 268l-3 201l85 75h27v-458q0 -27 19.5 -33.5t76.5 -6.5l16 -3v-122z" />
    <glyph glyph-name="uniFE84" unicode="&#x623;" horiz-adv-x="262" arabic-form="final" 
d="M198 692q-10 -5 -61 -18t-62 -13q-6 0 -26 14.5t-37 29.5l-18 15l5 22q49 0 60 2v1q-18 10 -18 43q0 39 26.5 76t67.5 37q26 0 42 -24.5t19 -49.5l3 -25l-19 -5q-12 20 -39 20q-30 0 -68 -23q16 -38 63 -38q38 0 88 19l5 -7zM278 125v-122l-16 -3q-110 0 -157 82t-48 268
l-3 201l85 75h27v-458q0 -27 19 -33.5t77 -6.5z" />
    <glyph glyph-name="uniFE86" unicode="&#x624;" horiz-adv-x="452" arabic-form="final" 
d="M299 492q-10 -5 -61 -18t-62 -13q-6 0 -26 14.5t-38 29.5l-17 15l5 22q49 0 60 2v1q-18 10 -18 43q0 39 26.5 76t67.5 37q26 0 42 -24.5t19 -49.5l3 -25l-19 -5q-12 20 -39 20q-31 0 -67 -23q6 -16 23 -27t39 -11q38 0 88 19l5 -7zM233 128h99l-1 2q-13 47 -47 94t-70 47
q-34 0 -64 -36t-44 -84q38 -23 127 -23zM201 -203q-19 0 -89.5 43.5t-85.5 58.5l16 36q75 -15 109 -15q59 0 112.5 21.5t82.5 58.5h-107q-44 0 -77.5 9t-44.5 16t-15 12q-8 11 -24 63t-15 65q3 45 24 95.5t62 91t90 40.5q61 0 106 -81.5t53 -182.5h54l16 -3v-122l-16 -3h-63
q-16 -80 -66.5 -141.5t-121.5 -61.5z" />
    <glyph glyph-name="uniFE88" unicode="&#x625;" horiz-adv-x="266" arabic-form="final" 
d="M266 0q-110 0 -154 78.5t-47 265.5l-7 297l85 74h26v-547q0 -27 19.5 -33.5t77.5 -6.5l16 -3v-122zM218 -236q-10 -5 -61 -18t-62 -13q-6 0 -26 14.5t-37 29.5l-18 15l5 22q49 0 60 2v1q-18 10 -18 43q0 39 26.5 76t67.5 37q26 0 42 -24.5t19 -49.5l3 -25l-19 -5
q-12 20 -39 20q-31 0 -67 -23q6 -16 23 -27t39 -11q38 0 88 19l5 -7z" />
    <glyph glyph-name="uniFE8A" unicode="&#x626;" horiz-adv-x="618" arabic-form="final" 
d="M218 289q-10 -5 -61 -18t-62 -13q-6 0 -26 15t-37 29l-18 15l5 22q49 0 60 2v1q-18 10 -18 43q0 39 26.5 76t67.5 37q26 0 42 -25t19 -49l3 -25l-19 -5q-12 20 -39 20q-31 0 -67 -23q6 -16 23 -27t39 -11q38 0 88 19l5 -7zM247 -240q-115 0 -167.5 54t-52.5 130
q0 49 20.5 107.5t40.5 92.5l21 34l33 -17q-37 -79 -37 -130q0 -135 161 -135q74 0 149.5 16.5t119.5 39.5q-39 48 -131 48h-32l-3 7l34 116l8 5h206l16 -3v-122l-16 -3l-28 1q0 -3 0.5 -8.5t0.5 -7.5q0 -21 -20 -77.5t-29 -63.5q-35 -26 -115 -55t-179 -29z" />
    <glyph glyph-name="uniFE8B" unicode="&#x626;" horiz-adv-x="279" arabic-form="initial" 
d="M226 528q-10 -5 -61 -18t-62 -13q-6 0 -26 14.5t-37 29.5l-18 15l5 22q49 0 60 2v1q-18 10 -18 43q0 39 26.5 76t67.5 37q26 0 42 -24.5t19 -49.5l3 -25l-19 -5q-12 20 -39 20q-31 0 -67 -23q6 -16 23 -27t39 -11q38 0 88 19l5 -7zM0 0l-16 3v122l16 3q104 0 138 6
q-7 42 -20.5 96t-23.5 88l-9 33l81 81h26l45 -128l-1 -18l-27 -28q9 -61 7 -89q-1 -22 -40.5 -83t-59.5 -72q-33 -14 -116 -14z" />
    <glyph glyph-name="uniFE8C" unicode="&#x626;" horiz-adv-x="306" arabic-form="medial" 
d="M247 438q-10 -5 -61 -18t-62 -13q-6 0 -26 14.5t-38 29.5l-17 15l5 22q49 0 60 2v1q-18 10 -18 43q0 39 26.5 76t67.5 37q26 0 42 -24.5t19 -49.5l3 -25l-19 -5q-12 20 -39 20q-31 0 -67 -23q6 -16 23 -27t39 -11q38 0 88 19l5 -7zM306 0h-9q-101 0 -161 77
q-52 -63 -63 -67q-20 -10 -73 -10l-16 3v122l16 3q58 0 93 7l39 155l75 48l21 -6q-10 -138 -23 -188q31 -16 101 -16l16 -3v-122z" />
    <glyph glyph-name="uniFE8E" unicode="&#x627;" horiz-adv-x="266" arabic-form="final" 
d="M266 0q-110 0 -154 78.5t-47 265.5l-7 297l85 74h26v-547q0 -27 19.5 -33.5t77.5 -6.5l16 -3v-122z" />
    <glyph glyph-name="uniFE90" unicode="&#x628;" horiz-adv-x="779" arabic-form="final" 
d="M793 3l-16 -3q-69 0 -106.5 17.5t-66.5 61.5q-51 -53 -61 -57q-67 -22 -253 -22q-264 0 -264 194q0 49 20.5 106t41.5 90l20 32l33 -17q-37 -83 -37 -135q0 -142 205 -142q142 0 256 13l38 149l75 50l20 -8q-7 -131 -22 -188q31 -16 101 -16l16 -3v-122zM348 -231
q-20 14 -38 32.5t-26 29.5l-8 11q36 44 72 74q51 -42 73 -74q-12 -18 -30.5 -36.5t-30.5 -27.5z" />
    <glyph glyph-name="uniFE91" unicode="&#x628;" horiz-adv-x="279" arabic-form="initial" 
d="M0 0l-16 3v122l16 3q104 0 138 6q-7 42 -20.5 96t-23.5 88l-9 33l81 81h26l45 -128l-1 -18l-27 -28q9 -61 7 -89q-1 -22 -40.5 -83t-59.5 -72q-33 -14 -116 -14zM118 -200q-20 14 -38 32.5t-26 29.5l-8 11q36 44 72 74q51 -42 73 -74q-12 -18 -30.5 -36.5t-30.5 -27.5z
" />
    <glyph glyph-name="uniFE92" unicode="&#x628;" horiz-adv-x="306" arabic-form="medial" 
d="M306 0h-9q-101 0 -161 77q-52 -63 -63 -67q-20 -10 -73 -10l-16 3v122l16 3q58 0 93 7l39 155l75 48l21 -6q-10 -138 -23 -188q31 -16 101 -16l16 -3v-122zM153 -200q-20 14 -38 32.5t-26 29.5l-8 11q36 44 72 74q51 -42 73 -74q-12 -18 -30.5 -36.5t-30.5 -27.5z" />
    <glyph glyph-name="uniFE94" unicode="&#x629;" horiz-adv-x="460" arabic-form="final" 
d="M365 618q-12 -19 -30.5 -37t-30.5 -27l-12 -9q-36 27 -62 60q-12 -16 -28 -31t-26 -22l-10 -7q-20 14 -38 32t-26 29l-8 12q36 43 72 73q51 -42 64 -62q32 36 62 62q51 -42 73 -73zM476 3l-16 -3h-35q-110 0 -137 141l-55 -91q-27 -9 -66 -9q-53 0 -87.5 20.5t-48.5 47.5
q-7 15 0 64.5t16 62.5q20 27 78 73.5t133 85.5l-4 47l87 63h27v-293q0 -61 9 -72.5t59 -11.5h24l16 -3v-122zM198 168q30 0 78 6q-2 23 -11 134q-48 -20 -101.5 -51.5t-79.5 -56.5q40 -32 114 -32z" />
    <glyph glyph-name="uniFE96" unicode="&#x62a;" horiz-adv-x="779" arabic-form="final" 
d="M515 421q-12 -19 -30.5 -37t-30.5 -27l-12 -9q-36 27 -62 60q-12 -16 -28 -31t-26 -22l-10 -7q-20 14 -38 32t-26 30l-8 11q36 43 72 73q51 -42 64 -62q32 36 62 62q51 -42 73 -73zM777 0q-69 0 -106.5 17.5t-66.5 61.5q-51 -53 -61 -57q-67 -22 -253 -22
q-264 0 -264 194q0 49 20.5 106t41.5 90l20 32l33 -17q-37 -83 -37 -135q0 -142 205 -142q142 0 256 13l38 149l75 50l20 -8q-7 -131 -22 -188q31 -16 101 -16l16 -3v-122z" />
    <glyph glyph-name="uniFE97" unicode="&#x62a;" horiz-adv-x="279" arabic-form="initial" 
d="M284 595q-12 -19 -30.5 -37t-30.5 -27l-12 -9q-36 27 -62 60q-12 -16 -28 -31t-26 -22l-10 -7q-20 14 -38 32t-26 30l-8 11q36 43 72 73q51 -42 64 -62q32 36 62 62q51 -42 73 -73zM0 0l-16 3v122l16 3q104 0 138 6q-7 42 -20.5 96t-23.5 88l-9 33l81 81h26l45 -128
l-1 -18l-27 -28q9 -61 7 -89q-1 -22 -40.5 -83t-59.5 -72q-33 -14 -116 -14z" />
    <glyph glyph-name="uniFE98" unicode="&#x62a;" horiz-adv-x="306" arabic-form="medial" 
d="M308 499q-12 -18 -30.5 -36.5t-30.5 -27.5l-12 -9q-33 25 -62 61q-12 -16 -28 -31t-26 -22l-10 -8q-19 14 -37 32.5t-26 29.5l-8 11q35 43 71 74q51 -42 64 -62q28 32 62 62q52 -42 73 -74zM306 0h-9q-101 0 -161 77q-52 -63 -63 -67q-20 -10 -73 -10l-16 3v122l16 3
q58 0 93 7l39 155l75 48l21 -6q-10 -138 -23 -188q31 -16 101 -16l16 -3v-122z" />
    <glyph glyph-name="uniFE9A" unicode="&#x62b;" horiz-adv-x="779" arabic-form="final" 
d="M381 464q-17 14 -33.5 31t-24.5 27l-8 11q33 39 66 68q47 -38 68 -68q-12 -17 -29 -34t-28 -26zM510 409q-12 -17 -29 -34t-29 -26l-11 -9q-36 27 -60 57q-12 -14 -27.5 -28.5t-24.5 -21.5l-9 -7q-18 14 -35 31t-25 27l-8 11q34 42 68 71l61 -62q47 47 60 62
q49 -41 69 -71zM793 3l-16 -3q-69 0 -107 17.5t-66 61.5q-51 -53 -61 -57q-67 -22 -253 -22q-265 0 -265 194q0 49 20.5 106t41.5 90l21 32l32 -17q-36 -83 -36 -135q0 -142 205 -142q142 0 256 13l38 149l75 50l20 -8q-9 -134 -22 -188q31 -16 101 -16l16 -3v-122z" />
    <glyph glyph-name="uniFE9B" unicode="&#x62b;" horiz-adv-x="279" arabic-form="initial" 
d="M154 644q-17 14 -34 31.5t-25 28.5l-8 10q34 39 67 67q47 -38 68 -67q-12 -17 -29 -34.5t-28 -26.5zM283 589q-12 -17 -29.5 -34t-29.5 -26l-11 -9q-29 21 -59 57q-12 -14 -27 -28.5t-25 -21.5l-9 -7q-18 14 -35 31t-25 27l-8 11q34 42 68 71l61 -62q4 4 27.5 28.5
t31.5 33.5q50 -41 70 -71zM0 0l-16 3v122l16 3q104 0 138 6q-7 42 -20.5 96t-23.5 88l-9 33l81 81h26l45 -128l-1 -18l-27 -28q9 -61 7 -89q-1 -22 -40.5 -83t-59.5 -72q-33 -14 -116 -14z" />
    <glyph glyph-name="uniFE9C" unicode="&#x62b;" horiz-adv-x="306" arabic-form="medial" 
d="M168 553q-17 14 -33.5 31t-24.5 28l-8 10q34 39 66 68q48 -38 68 -68q-12 -17 -29 -34t-28 -26zM228 429q-29 21 -59 57q-12 -14 -27.5 -28.5t-25.5 -21.5l-9 -7q-18 14 -34.5 31t-24.5 28l-8 10q34 42 67 71l62 -62q4 4 27.5 28.5t31.5 33.5q49 -41 70 -71
q-12 -17 -29.5 -34t-28.5 -26zM306 0h-9q-101 0 -161 77q-52 -63 -63 -67q-20 -10 -73 -10l-16 3v122l16 3q58 0 93 7l39 155l75 48l21 -6q-10 -138 -23 -188q31 -16 101 -16l16 -3v-122z" />
    <glyph glyph-name="uniFE9E" unicode="&#x62c;" horiz-adv-x="639" arabic-form="final" 
d="M621 -196q-36 -23 -130 -69.5t-110 -46.5q-117 0 -201 42.5t-104 94.5q-11 28 -20 80.5t-7 70.5q11 81 71.5 145t123.5 95q25 12 99 19l1 6q-55 5 -132 21t-86 17l-80 -73l-27 22q3 7 9 17.5l22 38.5t30.5 49.5t32 39t29.5 17.5q16 0 135 -24t205 -24h105l6 -18l-39 -93
l-44 2q-3 -55 15.5 -80t73.5 -25h40l16 -3v-122l-16 -3h-45q-62 0 -95 31t-35 80t13 110q-63 -21 -140.5 -63.5t-132.5 -83.5q-90 -70 -106 -142q84 -108 324 -108l191 10zM337 -73q-20 14 -38 32.5t-26 29.5l-8 11q36 44 72 74q51 -42 73 -74q-12 -18 -30.5 -36.5
t-30.5 -27.5z" />
    <glyph glyph-name="uniFE9F" unicode="&#x62c;" horiz-adv-x="647" arabic-form="initial" 
d="M316 68q-66 -38 -111 -53t-122 -15h-83l-16 3v122l16 3h135q94 0 189 33q43 17 63 21q-66 20 -121 54q-16 9 -60.5 35.5t-60.5 33.5l-87 -59l-23 26q10 16 26.5 39.5t55.5 63t63 39.5q8 0 17 -3t23 -10.5t26 -15t35.5 -21.5t40.5 -24q54 -32 112 -47.5t87 -15.5h87l7 -22
l-40 -90l-80 1q-24 -4 -52.5 -19.5t-68.5 -42t-58 -36.5zM404 -116q-20 14 -38 32.5t-26 29.5l-8 11q36 44 72 74q51 -42 73 -74q-12 -18 -30.5 -36.5t-30.5 -27.5z" />
    <glyph glyph-name="uniFEA0" unicode="&#x62c;" horiz-adv-x="661" arabic-form="medial" 
d="M316 68q-66 -38 -111 -53t-122 -15h-83l-16 3v122l16 3h135q99 0 191 34q49 17 61 20q-63 19 -121 54q-16 9 -60.5 35.5t-60.5 33.5l-87 -59l-23 26q10 16 26.5 39.5t55.5 63t63 39.5q8 0 17 -3t23 -10.5t26 -15t35.5 -21.5t40.5 -24q54 -32 112 -47.5t87 -15.5h83l7 -22
l-43 -90l-26 -1q8 -36 60 -36h59l16 -3v-122l-16 -3h-70q-62 0 -84.5 47t-9.5 113q-19 -3 -44 -14t-42.5 -20.5t-50 -30t-44.5 -27.5zM365 -142q-20 14 -38 32.5t-26 29.5l-8 11q36 44 72 74q51 -42 73 -74q-12 -18 -30.5 -36.5t-30.5 -27.5z" />
    <glyph glyph-name="uniFEA2" unicode="&#x62d;" horiz-adv-x="645" arabic-form="final" 
d="M627 -196q-36 -23 -130 -69.5t-110 -46.5q-117 0 -201 42.5t-104 94.5q-11 28 -20 80.5t-7 70.5q11 81 71.5 145t123.5 95q25 12 99 19l1 6q-55 5 -132.5 21t-84.5 17l-81 -73l-27 22q3 7 9 17.5l22 38.5t30.5 49.5t32 39t29.5 17.5q17 0 135.5 -24t204.5 -24h105l6 -18
l-38 -93l-44 2q-3 -56 15 -80.5t73 -24.5h40l16 -3v-122l-16 -3h-45q-62 0 -95 31t-35 80t13 110q-63 -21 -140 -63t-133 -84q-88 -69 -106 -142q84 -108 324 -108l191 10z" />
    <glyph glyph-name="uniFEA3" unicode="&#x62d;" horiz-adv-x="647" arabic-form="initial" 
d="M316 68q-66 -38 -111 -53t-122 -15h-83l-16 3v122l16 3h135q94 0 189 33q43 17 63 21q-66 20 -121 54q-16 9 -60.5 35.5t-60.5 33.5l-87 -59l-23 26q10 16 26.5 39.5t55.5 63t63 39.5q8 0 17 -3t23 -10.5t26 -15t35.5 -21.5t40.5 -24q54 -32 112 -47.5t87 -15.5h87l7 -22
l-40 -90l-80 1q-24 -4 -52.5 -19.5t-68.5 -42t-58 -36.5z" />
    <glyph glyph-name="uniFEA4" unicode="&#x62d;" horiz-adv-x="661" arabic-form="medial" 
d="M316 68q-66 -38 -111 -53t-122 -15h-83l-16 3v122l16 3h135q99 0 191 34q49 17 61 20q-63 19 -121 54q-16 9 -60.5 35.5t-60.5 33.5l-87 -59l-23 26q10 16 26.5 39.5t55.5 63t63 39.5q8 0 17 -3t23 -10.5t26 -15t35.5 -21.5t40.5 -24q54 -32 112 -47.5t87 -15.5h83l7 -22
l-43 -90l-26 -1q8 -36 60 -36h59l16 -3v-122l-16 -3h-70q-62 0 -84.5 47t-9.5 113q-19 -3 -44 -14t-42.5 -20.5t-50 -30t-44.5 -27.5z" />
    <glyph glyph-name="uniFEA6" unicode="&#x62e;" horiz-adv-x="645" arabic-form="final" 
d="M337 460q-20 14 -38 32.5t-26 29.5l-8 11q36 44 72 74q51 -42 73 -74q-12 -18 -30.5 -36.5t-30.5 -27.5zM627 -196q-36 -23 -130 -69.5t-110 -46.5q-117 0 -201 42.5t-104 94.5q-11 28 -20 80.5t-7 70.5q11 81 71.5 145t123.5 95q25 12 99 19l1 6q-55 5 -132.5 21
t-84.5 17l-81 -73l-27 22q3 7 9 17.5l22 38.5t30.5 49.5t32 39t29.5 17.5q17 0 135.5 -24t204.5 -24h105l6 -18l-38 -93l-44 2q-3 -56 15 -80.5t73 -24.5h40l16 -3v-122l-16 -3h-45q-62 0 -95 31t-35 80t13 110q-63 -21 -140 -63t-133 -84q-88 -69 -106 -142
q84 -108 324 -108l191 10z" />
    <glyph glyph-name="uniFEA7" unicode="&#x62e;" horiz-adv-x="646" arabic-form="initial" 
d="M344 460q-20 14 -38 32.5t-26 29.5l-8 11q36 44 72 74q51 -42 73 -74q-12 -18 -30.5 -36.5t-30.5 -27.5zM316 68q-66 -38 -111 -53t-122 -15h-83l-16 3v122l16 3h135q94 0 189 33q43 17 63 21q-66 20 -121 54q-16 9 -60.5 35.5t-60.5 33.5l-87 -59l-23 26
q10 16 26.5 39.5t55.5 63t63 39.5q8 0 17 -3t23 -10.5t26 -15t35.5 -21.5t40.5 -24q54 -32 112 -47.5t87 -15.5h87l7 -22l-40 -90l-80 1q-24 -4 -52.5 -19.5t-68.5 -42t-58 -36.5z" />
    <glyph glyph-name="uniFEA8" unicode="&#x62e;" horiz-adv-x="661" arabic-form="medial" 
d="M344 460q-20 14 -38 32.5t-26 29.5l-8 11q36 44 72 74q51 -42 73 -74q-12 -18 -30.5 -36.5t-30.5 -27.5zM316 68q-66 -38 -111 -53t-122 -15h-83l-16 3v122l16 3h135q99 0 191 34q49 17 61 20q-63 19 -121 54q-16 9 -60.5 35.5t-60.5 33.5l-87 -59l-23 26
q10 16 26.5 39.5t55.5 63t63 39.5q8 0 17 -3t23 -10.5t26 -15t35.5 -21.5t40.5 -24q54 -32 112 -47.5t87 -15.5h83l7 -22l-43 -90l-26 -1q8 -36 60 -36h59l16 -3v-122l-16 -3h-70q-62 0 -84.5 47t-9.5 113q-19 -3 -44 -14t-42.5 -20.5t-50 -30t-44.5 -27.5z" />
    <glyph glyph-name="uniFEAA" unicode="&#x62f;" horiz-adv-x="492" arabic-form="final" 
d="M492 0h-13q-49 0 -81 21t-55 73l-54 -80q-7 -4 -50.5 -9t-79.5 -5q-131 0 -131 109q0 36 13 78t23 59l37 -10q-8 -35 -8 -53q0 -17 5 -27t28.5 -19t67.5 -9q62 0 132 4l-111 280l75 87h26l86 -281q21 -63 35 -76.5t55 -13.5l16 -3v-122z" />
    <glyph glyph-name="uniFEAC" unicode="&#x630;" horiz-adv-x="492" arabic-form="final" 
d="M272 583q-19 14 -37 32.5t-27 29.5l-8 11q36 44 72 74q51 -42 73 -74q-12 -18 -30.5 -36.5t-30.5 -27.5zM492 0h-13q-49 0 -81 21t-55 73l-54 -80q-7 -4 -50.5 -9t-79.5 -5q-131 0 -131 109q0 36 13 78t23 59l37 -10q-8 -35 -8 -53q0 -17 5 -27t28.5 -19t67.5 -9
q62 0 132 4l-111 280l75 87h26l86 -281q21 -63 35 -76.5t55 -13.5l16 -3v-122z" />
    <glyph glyph-name="uniFEAE" unicode="&#x631;" horiz-adv-x="372" arabic-form="final" 
d="M96 -203q-19 0 -83.5 41.5t-80.5 57.5l15 36q46 -12 77 -12q129 0 198 168q-19 39 -70 159l72 86h21l19 -81q20 -80 39 -102t69 -22l16 -3v-122l-16 -3h-12q-46 0 -90 46q-2 -29 -13.5 -68.5t-32 -81.5t-54.5 -70.5t-74 -28.5z" />
    <glyph glyph-name="uniFEB0" unicode="&#x632;" horiz-adv-x="372" arabic-form="final" 
d="M197 456q-20 14 -38 32.5t-26 29.5l-8 11q36 44 72 74q51 -42 73 -74q-12 -18 -30.5 -36.5t-30.5 -27.5zM96 -203q-19 0 -83.5 41.5t-80.5 57.5l15 36q46 -12 77 -12q129 0 198 168q-19 39 -70 159l72 86h21l19 -81q20 -80 39 -102t69 -22l16 -3v-122l-16 -3h-12
q-46 0 -90 46q-2 -29 -13.5 -68.5t-32 -81.5t-54.5 -70.5t-74 -28.5z" />
    <glyph glyph-name="uniFEB2" unicode="&#x633;" horiz-adv-x="1087" arabic-form="final" 
d="M236 -203q-113 0 -160.5 53t-47.5 130q0 49 20.5 108.5t41.5 94.5l20 35l31 -16q-35 -91 -35 -145q0 -131 155 -131q53 0 105.5 13.5t78.5 31.5l-40 269l91 73h27l5 -180q22 -5 67 -5q30 0 54 3l46 150l65 42l20 -10q-7 -87 -21 -174q33 -11 85 -11q30 0 72 5l-18 157
l86 66h26v-179q0 -31 8.5 -40t48.5 -9h20l16 -3v-122l-16 -3h-19q-45 0 -73.5 18.5t-49.5 61.5q-21 -46 -47 -63t-76 -17q-44 0 -74.5 15t-53.5 56q-20 -40 -46.5 -55.5t-74.5 -15.5q-29 0 -52 13q-5 -20 -30 -71.5t-38 -69.5q-28 -32 -94 -53.5t-123 -21.5z" />
    <glyph glyph-name="uniFEB3" unicode="&#x633;" horiz-adv-x="727" arabic-form="initial" 
d="M685 134q0 -23 -48.5 -85.5t-69.5 -62.5q-29 0 -87 24t-111 65q-20 -43 -46.5 -59t-76.5 -16q-44 0 -73.5 14.5t-52.5 57.5q-26 -39 -51 -55.5t-69 -16.5l-16 3v122l16 3q45 0 83 4l37 100l61 41l21 -10q-6 -55 -17 -126q31 -9 83 -9q30 0 54 3l47 150l64 42l20 -10
q-4 -59 -18 -158q31 -18 78 -35t83 -23l-34 224l84 71h27q12 -196 12 -258z" />
    <glyph glyph-name="uniFEB4" unicode="&#x633;" horiz-adv-x="759" arabic-form="medial" 
d="M759 0h-19q-45 0 -73 18.5t-49 61.5q-21 -46 -47 -63t-76 -17q-44 0 -74.5 15t-52.5 56q-21 -40 -47.5 -55.5t-74.5 -15.5q-44 0 -73.5 14.5t-52.5 57.5q-26 -39 -51 -55.5t-69 -16.5l-16 3v122l16 3q45 0 83 4l37 100l61 41l21 -10q-6 -55 -17 -126q31 -9 83 -9
q30 0 54 3l47 150l64 42l20 -10q-4 -63 -21 -174q33 -11 85 -11q29 0 71 5l-17 157l85 66h27v-179q0 -31 8.5 -40t47.5 -9h20l16 -3v-122z" />
    <glyph glyph-name="uniFEB6" unicode="&#x634;" horiz-adv-x="1086" arabic-form="final" 
d="M737 538q-17 14 -33.5 31t-24.5 27l-8 11q34 39 66 68q48 -38 68 -68q-12 -17 -29 -34t-28 -26zM797 414q-29 21 -59 57q-12 -14 -27.5 -28.5t-24.5 -21.5l-10 -7q-18 14 -34.5 31t-24.5 27l-8 11q34 42 67 71l62 -62q4 4 27.5 28.5t31.5 33.5q49 -41 70 -71
q-12 -17 -29.5 -34t-29.5 -26zM236 -203q-113 0 -160.5 53t-47.5 130q0 49 20.5 108.5t41.5 94.5l20 35l31 -16q-35 -91 -35 -145q0 -131 155 -131q53 0 105.5 13.5t78.5 31.5l-40 269l91 73h27l5 -180q22 -5 67 -5q30 0 54 3l46 150l65 42l20 -10q-7 -87 -21 -174
q33 -11 85 -11q30 0 72 5l-18 157l86 66h26v-179q0 -31 8.5 -40t48.5 -9h20l16 -3v-122l-16 -3h-19q-45 0 -73.5 18.5t-49.5 61.5q-21 -46 -47 -63t-76 -17q-44 0 -74.5 15t-53.5 56q-20 -40 -46.5 -55.5t-74.5 -15.5q-29 0 -52 13q-5 -20 -30 -71.5t-38 -69.5
q-28 -32 -94 -53.5t-123 -21.5z" />
    <glyph glyph-name="uniFEB7" unicode="&#x634;" horiz-adv-x="727" arabic-form="initial" 
d="M404 538q-17 14 -33.5 31t-24.5 27l-8 11q34 39 66 68q48 -38 68 -68q-12 -17 -29 -34t-28 -26zM464 414q-29 21 -59 57q-12 -14 -27.5 -28.5t-25.5 -21.5l-9 -7q-18 14 -34.5 31t-24.5 27l-8 11q34 42 67 71l62 -62q4 4 27.5 28.5t31.5 33.5q49 -41 70 -71
q-12 -17 -29.5 -34t-28.5 -26zM567 -14q-29 0 -87 24t-111 65q-20 -43 -46.5 -59t-76.5 -16q-44 0 -73.5 14.5t-52.5 57.5q-26 -39 -51 -55.5t-69 -16.5l-16 3v122l16 3q45 0 83 4l37 100l61 41l21 -10q-6 -55 -17 -126q31 -9 83 -9q30 0 54 3l47 150l64 42l20 -10
q-4 -59 -18 -158q31 -18 78 -35t83 -23l-34 224l84 71h27q12 -196 12 -258q0 -23 -48.5 -85.5t-69.5 -62.5z" />
    <glyph glyph-name="uniFEB8" unicode="&#x634;" horiz-adv-x="759" arabic-form="medial" 
d="M400 538q-17 14 -33.5 31t-24.5 27l-8 11q34 39 66 68q48 -38 68 -68q-12 -17 -29 -34t-28 -26zM460 414q-29 21 -59 57q-12 -14 -27.5 -28.5t-25.5 -21.5l-9 -7q-18 14 -34.5 31t-24.5 27l-8 11q34 42 67 71l62 -62q4 4 27.5 28.5t31.5 33.5q49 -41 70 -71
q-12 -17 -29.5 -34t-28.5 -26zM759 0h-19q-45 0 -73 18.5t-49 61.5q-21 -46 -47 -63t-76 -17q-44 0 -74.5 15t-52.5 56q-21 -40 -47.5 -55.5t-74.5 -15.5q-44 0 -73.5 14.5t-52.5 57.5q-26 -39 -51 -55.5t-69 -16.5l-16 3v122l16 3q45 0 83 4l37 100l61 41l21 -10
q-6 -55 -17 -126q31 -9 83 -9q30 0 54 3l47 150l64 42l20 -10q-4 -63 -21 -174q33 -11 85 -11q29 0 71 5l-17 157l85 66h27v-179q0 -31 8.5 -40t47.5 -9h20l16 -3v-122z" />
    <glyph glyph-name="uniFEBA" unicode="&#x635;" horiz-adv-x="1110" arabic-form="final" 
d="M718 128h21q166 3 252 43q-26 53 -69 90t-90 37q-53 0 -115.5 -43t-122.5 -121q44 -6 97 -6h27zM236 -203q-113 0 -160.5 53t-47.5 130q0 49 20.5 108.5t41.5 94.5l20 35l31 -16q-35 -91 -35 -145q0 -131 155 -131q53 0 105.5 13.5t78.5 31.5l-40 269l91 73h27
q2 -94 4 -167q3 0 8 -2t8 -2q62 120 148 204t172 84q72 0 130 -77t58 -139q0 -30 -29 -86h88l16 -3v-122l-16 -3h-52q-44 0 -88 53q-31 -19 -103 -36t-163 -17h-27q-105 0 -153 32l-2 -16q-3 -16 -29 -70.5t-40 -73.5q-28 -32 -94 -53.5t-123 -21.5z" />
    <glyph glyph-name="uniFEBB" unicode="&#x635;" horiz-adv-x="787" arabic-form="initial" 
d="M416 128h21q166 3 252 43q-26 53 -69 90t-90 37q-54 0 -116.5 -43.5t-123.5 -122.5q41 -4 99 -4h27zM402 0h-26q-181 0 -250 80q-29 -44 -54 -62t-72 -18l-16 3v122l16 3q45 0 83 4l37 106l61 41l21 -10q-9 -73 -14 -108q22 -15 52 -21q63 121 149.5 205.5t172.5 84.5
q72 0 130 -77t58 -139q0 -28 -26.5 -80.5t-46.5 -73.5q-19 -19 -96.5 -39.5t-178.5 -20.5z" />
    <glyph glyph-name="uniFEBC" unicode="&#x635;" horiz-adv-x="808" arabic-form="medial" 
d="M416 128h21q166 3 252 43q-26 53 -69 90t-90 37q-54 0 -116.5 -43.5t-123.5 -122.5q41 -4 99 -4h27zM824 3l-16 -3h-51q-45 0 -89 53q-30 -19 -102.5 -36t-163.5 -17h-26q-181 0 -250 80q-29 -44 -54 -62t-72 -18l-16 3v122l16 3q45 0 83 4l37 106l61 41l21 -10
q-9 -73 -14 -108q22 -15 52 -21q63 121 149.5 205.5t172.5 84.5q72 0 130 -77t58 -139q0 -28 -30 -86h88l16 -3v-122z" />
    <glyph glyph-name="uniFEBE" unicode="&#x636;" horiz-adv-x="1110" arabic-form="final" 
d="M835 509q-20 14 -38 32.5t-26 29.5l-8 11q36 44 72 74q51 -42 73 -74q-12 -18 -30.5 -36.5t-30.5 -27.5zM691 128h48q166 3 252 43q-26 53 -69 90t-90 37q-53 0 -115.5 -43t-122.5 -121q44 -6 97 -6zM236 -203q-113 0 -160.5 53t-47.5 130q0 49 20.5 108.5t41.5 94.5
l20 35l31 -16q-35 -91 -35 -145q0 -131 155 -131q53 0 105.5 13.5t78.5 31.5l-40 269l91 73h27q2 -94 4 -167q3 0 8 -2t8 -2q62 120 148 204t172 84q72 0 130 -77t58 -139q0 -30 -29 -86h88l16 -3v-122l-16 -3h-52q-44 0 -88 53q-31 -19 -103 -36t-163 -17h-27
q-105 0 -153 32l-2 -16q-3 -16 -29 -70.5t-40 -73.5q-28 -32 -94 -53.5t-123 -21.5z" />
    <glyph glyph-name="uniFEBF" unicode="&#x636;" horiz-adv-x="787" arabic-form="initial" 
d="M530 509q-19 14 -37 32.5t-27 29.5l-8 11q36 44 72 74q51 -42 73 -74q-12 -18 -30.5 -36.5t-30.5 -27.5zM416 128h21q166 3 252 43q-26 53 -69 90t-90 37q-54 0 -116.5 -43.5t-123.5 -122.5q41 -4 99 -4h27zM402 0h-26q-181 0 -250 80q-29 -44 -54 -62t-72 -18l-16 3v122
l16 3q45 0 83 4l37 106l61 41l21 -10q-9 -73 -14 -108q22 -15 52 -21q63 121 149.5 205.5t172.5 84.5q72 0 130 -77t58 -139q0 -28 -26.5 -80.5t-46.5 -73.5q-19 -19 -96.5 -39.5t-178.5 -20.5z" />
    <glyph glyph-name="uniFEC0" unicode="&#x636;" horiz-adv-x="808" arabic-form="medial" 
d="M536 509q-19 14 -37 32.5t-27 29.5l-8 11q36 44 72 74q51 -42 73 -74q-12 -18 -30.5 -36.5t-30.5 -27.5zM389 128h48q166 3 252 43q-26 53 -69 90t-90 37q-54 0 -116.5 -43.5t-123.5 -122.5q41 -4 99 -4zM668 53q-30 -19 -102.5 -36t-163.5 -17h-26q-181 0 -250 80
q-29 -44 -54 -62t-72 -18l-16 3v122l16 3q45 0 83 4l37 106l61 41l21 -10q-9 -73 -14 -108q22 -15 52 -21q63 121 149.5 205.5t172.5 84.5q72 0 130 -77t58 -139q0 -28 -30 -86h88l16 -3v-122l-16 -3h-51q-45 0 -89 53z" />
    <glyph glyph-name="uniFEC2" unicode="&#x637;" horiz-adv-x="726" arabic-form="final" 
d="M332 128h21q162 3 250 43q-24 53 -69 90t-96 37q-49 0 -112.5 -43t-121.5 -125q64 -2 92 -2h36zM742 3l-16 -3h-52q-26 0 -45.5 12.5t-43.5 41.5q-30 -19 -102.5 -36.5t-164.5 -17.5h-36q-27 0 -59 3.5t-49.5 7t-19.5 4.5l-143 103l5 25q60 -6 143 -10l33 56
q-2 89 -12 355l-25 66l108 105l30 -18v-56l49 -97l-52 -53v-89q0 -15 -13.5 -54.5t-23.5 -59.5l5 -5q117 147 223 147q71 0 128 -77t56 -139q1 -22 -30 -86h91l16 -3v-122z" />
    <glyph glyph-name="uniFEC3" unicode="&#x637;" horiz-adv-x="612" arabic-form="initial" 
d="M230 0h-230l-16 3v122l16 3h69l35 61q-1 26 -6 166t-6 189l-25 66l108 105l30 -18v-56l49 -97l-52 -53v-89q0 -15 -13.5 -54.5t-23.5 -59.5l5 -5q117 147 224 147q70 0 127 -77t57 -139q0 -24 -27 -79t-46 -75q-18 -19 -95.5 -39.5t-179.5 -20.5zM244 128h21
q161 3 251 43q-24 53 -69.5 90t-96.5 37q-49 0 -113 -43.5t-123 -126.5h130z" />
    <glyph glyph-name="uniFEC4" unicode="&#x637;" horiz-adv-x="638" arabic-form="medial" 
d="M244 128h21q161 3 251 43q-24 53 -69.5 90t-96.5 37q-49 0 -113 -43.5t-123 -126.5h130zM654 3l-16 -3h-52q-44 0 -89 54q-29 -20 -101.5 -37t-165.5 -17h-230l-16 3v122l16 3h69l35 61q-1 26 -6 166t-6 189l-25 66l108 105l30 -18v-56l49 -97l-52 -53v-89
q0 -15 -13.5 -54.5t-23.5 -59.5l5 -5q117 147 224 147q70 0 127 -77t57 -139q0 -26 -31 -86h91l16 -3v-122z" />
    <glyph glyph-name="uniFEC6" unicode="&#x638;" horiz-adv-x="726" arabic-form="final" 
d="M474 541q-20 14 -38 32.5t-26 29.5l-8 11q36 44 72 74q51 -42 73 -74q-12 -18 -30.5 -36.5t-30.5 -27.5zM332 128h21q162 3 250 43q-24 53 -69 90t-96 37q-49 0 -112.5 -43t-121.5 -125q64 -2 92 -2h36zM742 3l-16 -3h-52q-26 0 -45.5 12.5t-43.5 41.5
q-30 -19 -102.5 -36.5t-164.5 -17.5h-36q-27 0 -59 3.5t-49.5 7t-19.5 4.5l-143 103l5 25q60 -6 143 -10l33 56q-2 89 -12 355l-25 66l108 105l30 -18v-56l49 -97l-52 -53v-89q0 -15 -13.5 -54.5t-23.5 -59.5l5 -5q117 147 223 147q71 0 128 -77t56 -139q1 -22 -30 -86h91
l16 -3v-122z" />
    <glyph glyph-name="uniFEC7" unicode="&#x638;" horiz-adv-x="612" arabic-form="initial" 
d="M230 0h-230l-16 3v122l16 3h69l35 61q-1 26 -6 166t-6 189l-25 66l108 105l30 -18v-56l49 -97l-52 -53v-89q0 -15 -13.5 -54.5t-23.5 -59.5l5 -5q117 147 224 147q70 0 127 -77t57 -139q0 -24 -27 -79t-46 -75q-18 -19 -95.5 -39.5t-179.5 -20.5zM380 543
q-20 14 -38 32.5t-26 29.5l-8 11q36 44 72 74q51 -42 73 -74q-12 -18 -30.5 -36.5t-30.5 -27.5zM244 128h21q161 3 251 43q-24 53 -69.5 90t-96.5 37q-49 0 -113 -43.5t-123 -126.5h130z" />
    <glyph glyph-name="uniFEC8" unicode="&#x638;" horiz-adv-x="638" arabic-form="medial" 
d="M380 543q-20 14 -38 32.5t-26 29.5l-8 11q35 44 72 74q50 -42 72 -74q-12 -18 -30 -36.5t-30 -27.5zM244 128h21q161 3 251 43q-24 53 -69.5 90t-96.5 37q-49 0 -113 -43.5t-123 -126.5h130zM654 3l-16 -3h-52q-44 0 -89 54q-29 -20 -101.5 -37t-165.5 -17h-230l-16 3
v122l16 3h69l35 61q-1 26 -6 166t-6 189l-25 66l108 105l30 -18v-56l49 -97l-52 -53v-89q0 -15 -13.5 -54.5t-23.5 -59.5l5 -5q117 147 224 147q70 0 127 -77t57 -139q0 -26 -31 -86h91l16 -3v-122z" />
    <glyph glyph-name="uniFECA" unicode="&#x639;" horiz-adv-x="554" arabic-form="final" 
d="M286 174l12 5q46 19 88.5 50t61.5 60q-64 18 -164 18q-63 0 -135 -9q61 -59 85 -80q35 -31 52 -44zM563 -195q-40 -25 -126.5 -71t-101.5 -46q-120 0 -193.5 44t-95.5 100q-9 22 -13 64t-1 60q18 94 166 174l-3 3q-16 17 -62 65t-65 69l-40 -57l-28 17q49 144 92 163
q27 11 88 21.5t120 10.5q66 0 122 -14t71 -32q7 -15 4 -55t-8 -53q-10 -26 -40.5 -65.5t-81.5 -70.5q17 -4 39 -4h148l16 -3v-122l-16 -3h-78q-112 0 -200 62q-174 -90 -198 -147q49 -91 294 -91l183 10z" />
    <glyph glyph-name="uniFECB" unicode="&#x639;" horiz-adv-x="498" arabic-form="initial" 
d="M430 60q-62 -22 -166.5 -41t-175.5 -19h-88l-16 3v122l16 3h103q-19 20 -32.5 49t-13.5 52q0 20 14 68.5t27 63.5q17 30 69 63.5t99 33.5q22 0 45 -15.5t40.5 -38t31 -45t21.5 -37.5l7 -16l-23 -22l-88 58q-100 -8 -180 -78q23 -50 69 -85t105 -35q40 0 90 16t84 34
l12 -12z" />
    <glyph glyph-name="uniFECC" unicode="&#x639;" horiz-adv-x="586" arabic-form="medial" 
d="M327 159l15 6q90 45 140 116q-62 17 -162 17q-65 0 -135 -9l66 -67q49 -45 76 -63zM602 3l-16 -3h-63q-135 0 -219 56q-114 -56 -248 -56h-56l-16 3v122l16 3h188q20 0 30 1l-1 2l-117 126l-37 -48l-25 17q48 142 87 159q25 10 88.5 19.5t122.5 9.5q66 0 123 -14t72 -32
q7 -15 4 -55t-8 -53q-40 -72 -112 -132h2h169l16 -3v-122z" />
    <glyph glyph-name="uniFECE" unicode="&#x63a;" horiz-adv-x="554" arabic-form="final" 
d="M281 526q-20 14 -38 32.5t-26 29.5l-8 11q36 44 72 74q51 -42 73 -74q-12 -18 -30.5 -36.5t-30.5 -27.5zM286 174l12 5q46 19 88.5 50t61.5 60q-64 18 -164 18q-63 0 -135 -9q61 -59 85 -80q35 -31 52 -44zM563 -195q-40 -25 -126.5 -71t-101.5 -46q-120 0 -193.5 44
t-95.5 100q-9 22 -13 64t-1 60q18 94 166 174l-3 3q-16 17 -62 65t-65 69l-40 -57l-28 17q49 144 92 163q27 11 88 21.5t120 10.5q66 0 122 -14t71 -32q7 -15 4 -55t-8 -53q-10 -26 -40.5 -65.5t-81.5 -70.5q17 -4 39 -4h148l16 -3v-122l-16 -3h-78q-112 0 -200 62
q-174 -90 -198 -147q49 -91 294 -91l183 10z" />
    <glyph glyph-name="uniFECF" unicode="&#x63a;" horiz-adv-x="498" arabic-form="initial" 
d="M259 535q-20 14 -38 32.5t-26 29.5l-8 11q36 44 72 74q51 -42 73 -74q-12 -18 -30.5 -36.5t-30.5 -27.5zM430 60q-62 -22 -166.5 -41t-175.5 -19h-88l-16 3v122l16 3h103q-19 20 -32.5 49t-13.5 52q0 20 14 68.5t27 63.5q17 30 69 63.5t99 33.5q22 0 45 -15.5t40.5 -38
t31 -45t21.5 -37.5l7 -16l-23 -22l-88 58q-100 -8 -180 -78q23 -50 69 -85t105 -35q40 0 90 16t84 34l12 -12z" />
    <glyph glyph-name="uniFED0" unicode="&#x63a;" horiz-adv-x="586" arabic-form="medial" 
d="M308 500q-20 14 -38 32.5t-26 29.5l-8 11q36 44 72 74q51 -42 73 -74q-12 -18 -30.5 -36.5t-30.5 -27.5zM327 159l15 6q90 45 140 116q-62 17 -162 17q-65 0 -135 -9l66 -67q49 -45 76 -63zM304 56q-114 -56 -248 -56h-56l-16 3v122l16 3h188q20 0 30 1l-1 2l-117 126
l-37 -48l-25 17q48 142 87 159q25 10 88.5 19.5t122.5 9.5q66 0 123 -14t72 -32q7 -15 4 -55t-8 -53q-40 -72 -112 -132h171l16 -3v-122l-16 -3h-63q-135 0 -219 56z" />
    <glyph glyph-name="uniFED2" unicode="&#x641;" horiz-adv-x="809" arabic-form="final" 
d="M605 548q-20 14 -38 32.5t-26 29.5l-8 11q36 44 72 74q51 -42 73 -74q-12 -18 -30.5 -36.5t-30.5 -27.5zM617 143l6 3q32 19 55 40q-4 53 -30.5 101t-64.5 48q-28 0 -60 -27t-50 -65q58 -67 144 -100zM826 3l-17 -3h-37q-83 0 -170 46q-56 -31 -140.5 -48.5t-171.5 -17.5
q-262 0 -262 192q0 49 20.5 106t41.5 90l20 32l33 -17q-37 -83 -37 -134q0 -141 203 -141q107 0 185 9q-41 35 -51 60q-4 16 -8 53.5t-2 45.5q9 55 65 121.5t118 66.5q57 0 96.5 -72t39.5 -159q0 -49 -56 -105h113l17 -3v-122z" />
    <glyph glyph-name="uniFED3" unicode="&#x641;" horiz-adv-x="410" arabic-form="initial" 
d="M191 618q-19 14 -37 32.5t-26 29.5l-9 11q36 44 72 74q51 -42 73 -74q-12 -18 -30.5 -36.5t-30.5 -27.5zM286 24q-43 -24 -166 -24h-120l-16 3v122l16 3h158q91 0 145 8q2 20 2 33q0 39 -9 81l-27 -55q-8 -5 -36.5 -11.5t-56.5 -6.5q-12 0 -23 1.5t-19 3t-15.5 4.5
t-12.5 5.5t-10 6t-7.5 5.5t-5.5 5l-3 3q-8 10 -22 55.5t-13 58.5q2 37 21.5 84t59 86.5t86.5 39.5q69 0 114.5 -99t45.5 -221q0 -36 -6 -60q-8 -29 -40 -79t-40 -52zM185 285q51 0 98 13q-16 50 -42 82t-57 32q-29 0 -56 -31.5t-40 -74.5q46 -21 97 -21z" />
    <glyph glyph-name="uniFED4" unicode="&#x641;" horiz-adv-x="439" arabic-form="medial" 
d="M225 547q-19 14 -37 32t-26 29l-9 12q36 43 72 74q51 -43 73 -74q-12 -19 -30.5 -37t-30.5 -27zM246 143l6 3q30 16 55 40q-3 53 -29.5 101t-64.5 48q-28 0 -60 -27t-51 -65q58 -67 144 -100zM455 3l-16 -3h-38q-87 0 -182 52q-91 -52 -184 -52h-35l-16 3v122l16 3h112
q-32 31 -39 49q-5 16 -9 53.5t-2 45.5q9 55 65 121.5t118 66.5q58 0 97.5 -72t39.5 -159q0 -48 -57 -105h114l16 -3v-122z" />
    <glyph glyph-name="uniFED6" unicode="&#x642;" horiz-adv-x="641" arabic-form="final" 
d="M541 558q-12 -18 -30.5 -36.5t-30.5 -27.5l-12 -9q-30 22 -62 60q-12 -16 -28 -31t-26 -22l-10 -7q-19 14 -37 32.5t-27 29.5l-8 11q36 43 72 73q51 -42 64 -62q35 40 62 62q52 -42 73 -73zM520 128l-2 8q-18 58 -48 96.5t-64 38.5q-35 0 -64.5 -36.5t-43.5 -84.5
q36 -22 121 -22h101zM242 -205q-61 0 -105 16t-66.5 43.5t-32.5 58t-10 66.5q0 49 20.5 107.5t41.5 92.5l20 34l31 -16q-35 -82 -35 -135q0 -23 5.5 -42.5t20.5 -43t49.5 -37.5t85.5 -14q73 0 149.5 15.5t116.5 37.5q0 5 -0.5 12t-0.5 10h-120q-73 0 -121 40q-9 10 -23 60.5
t-13 64.5q3 45 24 95.5t62 91t90 40.5q63 0 105.5 -77.5t51.5 -186.5h53l16 -3v-122l-16 -3h-55v-1q-2 -16 -28 -68t-37 -61q-39 -29 -123 -52t-156 -23z" />
    <glyph glyph-name="uniFED7" unicode="&#x642;" horiz-adv-x="410" arabic-form="initial" 
d="M335 687q-12 -19 -30.5 -37.5t-30.5 -27.5l-12 -9q-27 20 -62 61q-12 -16 -28 -31t-26 -23l-10 -7q-19 14 -37 32.5t-26 30.5l-8 11q35 43 71 73q51 -42 64 -62q28 32 62 62q52 -42 73 -73zM297 24q-43 -24 -166 -24h-120l-16 3v122l16 3h158q91 0 145 8q2 20 2 33
q0 39 -9 81l-27 -55q-8 -5 -36 -11.5t-57 -6.5q-12 0 -23 1.5t-19 3t-15.5 4.5t-12.5 5.5t-10 6t-7.5 5.5t-5.5 5l-3 3q-8 10 -22.5 55.5t-13.5 58.5q3 38 22 84.5t59 86t87 39.5q69 0 114.5 -99t45.5 -221q0 -36 -6 -60q-8 -29 -40 -79t-40 -52zM196 285q51 0 98 13
q-16 50 -42 82t-57 32q-29 0 -56 -31.5t-40 -74.5q46 -21 97 -21z" />
    <glyph glyph-name="uniFED8" unicode="&#x642;" horiz-adv-x="439" arabic-form="medial" 
d="M361 620q-12 -19 -30.5 -37t-30.5 -27l-12 -9q-36 27 -62 60q-12 -16 -28 -31t-26 -22l-10 -7q-20 14 -38 32t-26 29l-8 12q36 43 72 73q51 -42 64 -62q32 36 62 62q51 -42 73 -73zM247 143l6 3q32 19 55 40q-4 53 -30.5 101t-64.5 48q-28 0 -60 -27t-50 -65
q58 -68 144 -100zM220 52q-91 -52 -184 -52h-36l-16 3v122l16 3h112q-32 31 -39 49q-5 16 -9 53.5t-2 45.5q9 55 65.5 121.5t117.5 66.5q58 0 97.5 -72t39.5 -159q0 -49 -56 -105h113l17 -3v-122l-17 -3h-37q-89 0 -182 52z" />
    <glyph glyph-name="uniFEDA" unicode="&#x643;" horiz-adv-x="748" arabic-form="final" 
d="M304 258l-80 53v11q121 3 167 11q-8 3 -43.5 9.5t-57.5 17.5t-22 32q0 41 40.5 76t94.5 51l9 -8v-77q-68 -11 -103 -28q55 -9 71 -13q51 -13 51 -54q0 -5 -11.5 -29t-19.5 -31q-16 -13 -96 -21zM764 3l-16 -3q-117 0 -168 115l-49 -86q-23 -10 -90 -19.5t-150 -9.5
q-264 0 -264 194q0 49 20.5 106t40.5 90l21 32l32 -17q-36 -83 -36 -135q0 -142 205 -142q150 0 253 18l-13 496l85 73h26v-474q0 -70 8 -86q14 -27 79 -27l16 -3v-122z" />
    <glyph glyph-name="uniFEDB" unicode="&#x643;" horiz-adv-x="470" arabic-form="initial" 
d="M139 0h-139l-16 3v122l16 3h151q140 0 193 9q-44 68 -199 161l-16 -17l-91 59q-6 6 18 79.5t35 77.5l340 198l15 -14l-25 -118l-267 -131q130 -70 192.5 -139.5t62.5 -120.5q0 -15 -30 -76t-43 -71q-32 -25 -197 -25z" />
    <glyph glyph-name="uniFEDC" unicode="&#x643;" horiz-adv-x="462" arabic-form="medial" 
d="M146 16q-32 -16 -106 -16h-40l-16 3v122l16 3h63q83 0 107 8q-4 52 -44 118q-12 19 -32 49.5t-32 49t-14 22.5q-5 8 18.5 68.5t35.5 66.5l294 187l14 -13l-24 -118l-236 -140l102 -149q61 -87 100 -118t96 -31h14l16 -3v-122l-16 -3h-13q-76 0 -117 30.5t-103 115.5
q-65 -124 -83 -130z" />
    <glyph glyph-name="uniFEDE" unicode="&#x644;" horiz-adv-x="616" arabic-form="final" 
d="M242 -203q-61 0 -105 16t-66.5 43.5t-32.5 57.5t-10 66q0 49 20.5 106.5t41.5 89.5l20 33l33 -17q-37 -83 -37 -135q0 -131 161 -131q79 0 164 33l-19 683l84 73h27v-486q0 -62 16.5 -81.5t76.5 -19.5l16 -3v-122l-16 -3q-62 0 -97 43q-13 -48 -50.5 -120t-51.5 -84
q-17 -15 -70 -28.5t-105 -13.5z" />
    <glyph glyph-name="uniFEDF" unicode="&#x644;" horiz-adv-x="299" arabic-form="initial" 
d="M0 0l-16 3v122l16 3q88 0 119 6l-11 396l-29 82l109 103l27 -15v-53l52 -100l-51 -55v-288q0 -31 -57 -104t-82 -90q-17 -10 -77 -10z" />
    <glyph glyph-name="uniFEE0" unicode="&#x644;" horiz-adv-x="307" arabic-form="medial" 
d="M323 3l-16 -3q-117 0 -156 116q-53 -95 -71 -105q-17 -11 -80 -11l-16 3v122l16 3q74 0 113 7l-16 507l85 73h27v-478q0 -70 16.5 -89.5t81.5 -19.5l16 -3v-122z" />
    <glyph glyph-name="uniFEE2" unicode="&#x645;" horiz-adv-x="618" arabic-form="final" 
d="M229 147l4 -3q44 -25 214 -25l-19 42q-36 78 -54 95q-15 16 -34 16q-29 0 -61.5 -37.5t-49.5 -87.5zM174 -114q0 -23 -14.5 -69t-29.5 -81l-14 -35h-35q0 8 -27.5 178t-27.5 220q0 40 43.5 113t72.5 90q53 29 130.5 59.5t102.5 30.5q45 0 72 -36t60 -113q36 -83 46 -96
q16 -19 54 -19h11l16 -3v-122l-16 -3h-30q-43 0 -70 18.5t-49 57.5l-56 -85q-47 1 -104.5 9.5t-71.5 20.5q-7 5 -32.5 57.5t-25.5 62.5q6 52 30 101q-69 -33 -90 -57q3 -22 28 -147.5t27 -151.5z" />
    <glyph glyph-name="uniFEE3" unicode="&#x645;" horiz-adv-x="469" arabic-form="initial" 
d="M349 -8q-50 0 -107.5 11.5t-91.5 27.5l-26 79q-25 -60 -49.5 -85t-74.5 -25l-16 3v122l16 3q42 0 59.5 11.5t31.5 44.5q18 43 27.5 64.5t28 54t34 48.5t38.5 28.5t49 12.5q47 0 86.5 -47.5t58 -105t18.5 -101.5q0 -27 -35 -86.5t-47 -59.5zM361 115l-2 11
q-17 58 -49.5 101.5t-64.5 43.5q-56 0 -102 -112l-3 -10q86 -30 221 -34z" />
    <glyph glyph-name="uniFEE4" unicode="&#x645;" horiz-adv-x="523" arabic-form="medial" 
d="M134 147l4 -3q44 -25 214 -25l-19 42q-36 78 -54 95q-15 16 -34 16q-29 0 -61.5 -37.5t-49.5 -87.5zM539 3l-16 -3h-30q-43 0 -70 18.5t-49 57.5l-56 -85q-47 1 -104.5 9.5t-71.5 20.5q-7 4 -32 56q-14 -40 -39 -58.5t-71 -18.5l-16 3v122l16 3q52 0 85 17q10 85 68 166
t127 81q19 0 36 -8.5t29 -20t25.5 -34t21 -39.5t20.5 -47q35 -82 45 -95q16 -20 55 -20h11l16 -3v-122z" />
    <glyph glyph-name="uniFEE6" unicode="&#x646;" horiz-adv-x="631" arabic-form="final" 
d="M289 319q-20 14 -38 32t-26 29l-8 12q36 43 72 73q51 -42 73 -73q-13 -19 -31 -37t-30 -27zM242 -203q-61 0 -105 16t-66.5 43.5t-32.5 57.5t-10 66q0 49 20 106.5t40 89.5l21 33l31 -16q-34 -82 -34 -136q0 -131 161 -131q92 0 184 38l-41 278l89 71h27l4 -77
q3 -40 5.5 -55.5t13 -30.5t29 -18.5t53.5 -3.5l16 -3v-122l-16 -3q-64 0 -95 47v-2q-14 -45 -42.5 -109.5t-40.5 -75.5q-27 -26 -89.5 -44.5t-121.5 -18.5z" />
    <glyph glyph-name="uniFEE7" unicode="&#x646;" horiz-adv-x="279" arabic-form="initial" 
d="M153 525q-20 14 -38 32.5t-26 29.5l-8 11q36 44 72 74q51 -42 73 -74q-12 -18 -30.5 -36.5t-30.5 -27.5zM0 0l-16 3v122l16 3q104 0 138 6q-7 42 -20.5 96t-23.5 88l-9 33l81 81h26l45 -128l-1 -18l-27 -28q9 -61 7 -89q-1 -22 -40.5 -83t-59.5 -72q-33 -14 -116 -14z
" />
    <glyph glyph-name="uniFEE8" unicode="&#x646;" horiz-adv-x="306" arabic-form="medial" 
d="M176 447q-20 14 -38 32.5t-26 29.5l-8 11q36 44 72 74q51 -42 73 -74q-12 -18 -30.5 -36.5t-30.5 -27.5zM306 0h-9q-101 0 -161 77q-52 -63 -63 -67q-20 -10 -73 -10l-16 3v122l16 3q58 0 93 7l39 155l75 48l21 -6q-10 -138 -23 -188q31 -16 101 -16l16 -3v-122z" />
    <glyph glyph-name="uniFEE9" unicode="&#x647;" horiz-adv-x="389" arabic-form="isolated" 
d="M174 0q-34 0 -61 8t-41.5 18.5t-25 24t-13.5 20.5t-4 12q-2 10 0.5 56t4.5 53q19 65 91 160q-9 6 -27 20l62 117h26q79 -77 127 -164.5t48 -163.5q0 -17 -23 -69t-30 -57q-44 -35 -134 -35zM193 128q61 0 110 15q-20 78 -120 162q-33 -29 -62.5 -68.5t-43.5 -75.5
q40 -33 116 -33z" />
    <glyph glyph-name="uniFEEA" unicode="&#x647;" horiz-adv-x="460" arabic-form="final" 
d="M476 3l-16 -3h-35q-110 0 -137 141l-55 -91q-27 -9 -66 -9q-53 0 -87.5 20.5t-48.5 47.5q-7 15 0 64.5t16 62.5q20 27 78 73.5t133 85.5l-4 47l87 63h27v-293q0 -61 9 -72.5t59 -11.5h24l16 -3v-122zM198 168q30 0 78 6q-2 23 -11 134q-48 -20 -101.5 -51.5t-79.5 -56.5
q40 -32 114 -32z" />
    <glyph glyph-name="uniFEEB" unicode="&#x647;" horiz-adv-x="522" arabic-form="initial" 
d="M220 141l4 2q35 16 49 44q-8 53 -31.5 89t-48.5 36q-23 0 -52 -27t-49 -63q43 -40 128 -81zM425 75l-2 10q-24 84 -88 144l1 -6q2 -55 -52 -109q77 -30 141 -39zM483 92q1 -24 -33 -78t-50 -54q-31 0 -93 23t-120 58q-72 -41 -149 -41h-38l-16 3v122l16 3l71 -1
q-9 27 -13 65t-1 49q20 70 72 115l-33 19l49 109l26 6q179 -119 245 -207.5t67 -190.5z" />
    <glyph glyph-name="uniFEEC" unicode="&#x647;" horiz-adv-x="472" arabic-form="medial" 
d="M122 128h19q120 5 170 55q-12 38 -34.5 68.5t-42.5 30.5q-24 0 -58.5 -42.5t-53.5 -111.5zM306 -93q39 0 69 8q-30 104 -171 107q-30 0 -83 -10q50 -105 185 -105zM372 -202q-5 -5 -30 -10t-51 -5q-76 0 -136 58t-80 162q-33 -3 -75 -3l-16 3v122l16 3h74
q23 122 85.5 207t116.5 85q30 0 54.5 -35.5t36 -76.5t11.5 -71q0 -12 -17.5 -47t-35.5 -62h147l16 -3v-122l-16 -3h-45q9 -10 9 -18q4 -22 -25 -98.5t-39 -85.5z" />
    <glyph glyph-name="uniFEEE" unicode="&#x648;" horiz-adv-x="452" arabic-form="final" 
d="M332 128l-1 2q-13 47 -47 94t-70 47q-34 0 -64 -36t-44 -84q38 -23 127 -23h99zM201 -203q-19 0 -89.5 43.5t-85.5 58.5l16 36q75 -15 109 -15q59 0 112.5 21.5t82.5 58.5h-107q-44 0 -77.5 9t-44.5 16t-15 12q-8 11 -24 63t-15 65q3 45 24 95.5t62 91t90 40.5
q61 0 106 -81.5t53 -182.5h54l16 -3v-122l-16 -3h-63q-16 -80 -66.5 -141.5t-121.5 -61.5z" />
    <glyph glyph-name="uniFEF0" unicode="&#x649;" horiz-adv-x="618" arabic-form="final" 
d="M248 -240q-115 0 -167.5 54t-52.5 130q0 49 20.5 107.5t41.5 92.5l20 34l33 -17q-37 -79 -37 -130q0 -135 161 -135q74 0 149.5 16.5t119.5 39.5q-39 48 -131 48h-32l-3 7l34 116l8 5h206l16 -3v-122l-16 -3l-28 1q0 -3 0.5 -8.5t0.5 -7.5q0 -21 -20 -77.5t-29 -63.5
q-35 -26 -115 -55t-179 -29z" />
    <glyph glyph-name="uniFEF2" unicode="&#x64a;" horiz-adv-x="618" arabic-form="final" 
d="M248 -240q-115 0 -167.5 54t-52.5 130q0 49 20.5 107.5t41.5 92.5l20 34l33 -17q-37 -79 -37 -130q0 -135 161 -135q74 0 149.5 16.5t119.5 39.5q-39 48 -131 48h-32l-3 7l34 116l8 5h206l16 -3v-122l-16 -3l-28 1q0 -3 0.5 -8.5t0.5 -7.5q0 -21 -20 -77.5t-29 -63.5
q-35 -26 -115 -55t-179 -29zM430 -377q-12 -19 -30.5 -37t-30.5 -27l-12 -9q-36 27 -62 60q-12 -16 -28 -31t-26 -22l-10 -7q-20 14 -38 32t-26 30l-8 11q36 43 72 73q51 -42 64 -62q32 36 62 62q51 -42 73 -73z" />
    <glyph glyph-name="uniFEF3" unicode="&#x64a;" horiz-adv-x="280" arabic-form="initial" 
d="M0 0l-16 3v122l16 3q104 0 138 6q-7 42 -20.5 96t-23.5 88l-9 33l81 81h26l45 -128l-1 -18l-27 -28q9 -61 7 -89q-1 -22 -40.5 -83t-59.5 -72q-33 -14 -116 -14zM246 -132q-12 -17 -29 -33.5t-28 -24.5l-11 -9q-33 24 -58 56q-12 -15 -26.5 -29t-23.5 -20l-9 -7
q-18 13 -34.5 29.5t-24.5 27.5l-7 10q33 40 66 69q47 -39 60 -58q28 33 57 58q48 -39 68 -69z" />
    <glyph glyph-name="uniFEF4" unicode="&#x64a;" horiz-adv-x="306" arabic-form="medial" 
d="M306 0h-9q-101 0 -161 77q-52 -63 -63 -67q-20 -10 -73 -10l-16 3v122l16 3q58 0 93 7l39 155l75 48l21 -6q-10 -138 -23 -188q31 -16 101 -16l16 -3v-122zM273 -132q-12 -17 -29 -33.5t-28 -24.5l-11 -9q-33 24 -58 56q-12 -15 -26.5 -29t-23.5 -20l-9 -7
q-18 13 -34.5 29.5t-23.5 27.5l-8 10q33 40 66 69q48 -39 60 -58q28 33 57 58q48 -39 68 -69z" />
    <glyph glyph-name=".notdef" horiz-adv-x="1200" 
d="M141 848h918q59 0 106 -50q20 -26 26 -45q9 -25 9 -52v-905q0 -76 -62 -122q-37 -26 -86 -26h-905q-77 0 -124 66q-23 39 -23 75v918q0 60 51 108q43 33 90 33zM14 694v-892q0 -64 39 -101q40 -38 91 -38h912q58 0 100 48q29 37 29 81v912q0 59 -50 101q-34 29 -89 29
h-892q-92 0 -130 -82q-10 -23 -10 -58zM291 654h75q20 0 49 -68q135 -277 137 -283h1v259q0 58 58 79q24 8 46 8h82l4 -1q39 0 79 -16q73 -36 104 -116q22 -61 22 -131v-11q0 -87 -35 -157q-39 -71 -107 -94q-28 -11 -89 -11h-62h-363q-4 3 -40 44h368q76 0 92 6q24 3 58 31
q29 26 35 46q18 49 18 138q0 105 -23 156q-25 45 -81 64q-20 6 -40 6h-18q-8 -16 -8 -37v-331q0 -31 -24 -45q-10 -4 -20 -4h-81q-20 0 -47 63q-137 279 -140 284v0v-347h-90v417q0 39 28 49q6 2 12 2zM210 -55q0 -4 -1 -8l-14 -80h-16l14 81q1 4 0 6q0 8 -4 13t-13 5
t-17.5 -5t-16 -14t-13.5 -22.5t-9 -31.5l-6 -32h-16l21 116h13l-5 -35v0q4 6 8.5 13t11 12t14.5 8.5t18 3.5q6 0 12 -2t10 -5.5t6.5 -9.5t2.5 -13zM315 -30l-52 -67q-8 -9 -14 -16.5t-13 -15.5l1 -1h65l-2 -13h-90l1 3l52 66q6 8 13.5 17t13.5 17h-1h-56l2 13h81zM410 -143
h-14l5 35v0q-8 -17 -21 -27t-29 -10q-7 0 -13.5 2.5t-11 7t-7.5 11.5t-3 15q0 19 7.5 34t19 26t26.5 17t31 6q19 0 30 -2zM399 -40q-13 0 -25 -5t-21 -14.5t-14.5 -21.5t-5.5 -27q0 -11 5.5 -17t15.5 -6q7 0 15 4t16 12.5t13.5 21t8.5 28.5l4 24q-4 1 -12 1zM509 -39
q-9 0 -17.5 -6t-16.5 -16t-14 -24t-9 -30l-5 -28h-16l20 116h14l-6 -41v0q3 7 7.5 14.5t11 13.5t14.5 10t17 4l4 -13h-4zM609 -143h-14l6 35h-1q-7 -17 -21 -27t-30 -10q-8 0 -14 2.5t-11 7.5t-8 12.5t-3 16.5q0 18 7 32.5t18.5 25t26.5 16.5t31 6q11 0 17 -1l12 66h16z
M603 -40h-8q-13 0 -24.5 -5t-21 -14t-15 -20.5t-5.5 -25.5q0 -13 6.5 -19.5t17.5 -6.5q7 0 15.5 4t15.5 12.5t13 21t9 28.5l5 24q-4 1 -8 1zM741 -51q0 -11 -6 -20t-17.5 -15.5t-27 -10.5t-32.5 -4q1 -14 9.5 -22t23.5 -8q18 0 32 12l-6 -19q-5 -3 -12 -5t-15 -2
q-11 0 -20 3t-15 9t-10 15.5t-4 21.5q0 15 6.5 28t17 22.5t22.5 15t24 5.5q14 0 22 -6.5t8 -19.5zM725 -53q0 7 -3.5 10.5t-11.5 3.5q-7 0 -16 -3.5t-16 -10.5t-13 -16t-6 -18q14 0 26 3t21 7.5t14 11t5 12.5zM825 -42q-7 4 -22 4q-10 0 -18 -6t-8 -15q0 -5 3 -9t10 -8
q15 -5 21 -12.5t6 -19.5q0 -8 -3 -14.5t-9.5 -11.5t-15.5 -8t-19 -3q-9 0 -15.5 1t-12.5 4v16q6 -4 13 -5.5t16 -1.5q13 0 21.5 6t8.5 16q0 6 -3 10.5t-11 7.5q-14 6 -20 13t-6 17q0 9 4 16t10 11.5t13.5 6.5t15.5 2t14.5 -1t9.5 -3zM848 -143h-16l20 116h17zM977.5 -40
q-5.5 -1 -9.5 -1q3 -2 4.5 -6.5t1.5 -9.5q0 -9 -3.5 -17t-10 -14t-16 -9.5t-20.5 -3.5q-9 0 -15 -3t-6 -7q0 -1 2.5 -3.5t5.5 -4.5l28 -10q12 -4 19 -11.5t7 -18.5q0 -9 -4.5 -17t-12 -13.5t-18.5 -9t-24 -3.5q-10 0 -18 2.5t-14 7.5t-9 12t-3 14q0 8 2.5 14.5t7.5 12
t11.5 9t13.5 5.5q-11 4 -12 12q1 6 7 11t12 7q-7 3 -11.5 10t-4.5 16q0 10 3.5 18t10.5 14t16 9t19 3q5 0 8.5 -0.5t6.5 -1.5q5 -1 14 -1q11 0 17 4l3 -13q-3 -2 -8.5 -3zM959 -59q0 9 -6.5 15t-17.5 6q-6 0 -12 -2.5t-10.5 -6.5t-7 -9.5t-2.5 -11.5q0 -9 6.5 -14.5
t17.5 -5.5q6 0 11.5 2.5t10 6t7.5 9t3 11.5zM949 -161q0 7 -5 12t-12 7l-21 7q-7 0 -13 -2.5t-11 -6.5t-7.5 -9.5t-2.5 -11.5q0 -4 2 -8.5t6 -8t9.5 -5.5t12.5 -2q10 0 17.5 3t13 7t8.5 9t3 9zM1098 -55q0 -4 -1 -8l-14 -80h-16l14 81q1 3 0 5q0 9 -4 14t-13 5t-17.5 -5
t-16 -14t-13.5 -22.5t-9 -31.5l-6 -32h-16l21 115h14l-6 -34v0q4 6 8.5 13t11 12t14.5 8.5t18 3.5q6 0 12 -2t10 -6t6.5 -9.5t2.5 -12.5zM872.5 13q2.5 -3 2.5 -7t-2.5 -7t-6.5 -3t-7 3t-3 7t3 7t7 3t6.5 -3z" />
    <glyph glyph-name=".null" 
 />
    <glyph glyph-name=".null" 
 />
    <glyph glyph-name="nonmarkingreturn" horiz-adv-x="333" 
 />
    <glyph glyph-name="space" unicode=" " horiz-adv-x="214" 
 />
    <glyph glyph-name="exclam" unicode="!" horiz-adv-x="274" 
d="M203 363q0 -3 -54 -148h-27q-28 286 -36 403l90 72h25q2 -68 2 -327zM143 -28q-21 16 -41.5 36.5t-29.5 33.5l-10 12q41 48 81 82q57 -47 82 -82q-14 -21 -34.5 -41.5t-34.5 -30.5z" />
    <glyph glyph-name="quotedbl" unicode="&#x22;" horiz-adv-x="379" 
d="M224 388v228h108l-23 -228h-85zM53 388v228h105l-21 -228h-84z" />
    <glyph glyph-name="numbersign" unicode="#" horiz-adv-x="621" 
d="M258 376l-32 -147h119l33 147h-120zM73 376v60h129l33 147h69l-33 -147h120l33 147h69l-33 -147h108v-60h-121l-32 -147h115v-60h-129l-37 -169h-70l37 169h-119l-37 -169h-71l38 169h-107v60h120l33 147h-115z" />
    <glyph glyph-name="dollar" unicode="$" horiz-adv-x="479" 
d="M142 400q0 -39 68 -66v135q-68 -13 -68 -69zM262 49q64 15 64 73q0 40 -64 68v-141zM373 357l-18 77q-41 31 -93 37v-155q39 -13 63 -23.5t53.5 -30t44 -48t14.5 -66.5q0 -69 -48 -108.5t-127 -48.5v-78h-52v75q-90 2 -172 35v146h43l25 -91q49 -30 104 -33v165
q-31 11 -48.5 17.5t-44 21t-40.5 29t-25 37.5t-11 51q0 67 47.5 108t121.5 51v69h52v-66q93 -3 152 -34v-137h-41z" />
    <glyph glyph-name="percent" unicode="%" horiz-adv-x="679" 
d="M30 409q0 72 37 114t96 42q60 0 96 -38.5t36 -114.5q0 -70 -36.5 -110t-95.5 -40q-60 0 -96.5 37.5t-36.5 109.5zM231 0h-69l285 553h68zM167 313q45 0 45 95q0 104 -52 104q-25 0 -36 -23t-11 -78q0 -98 54 -98zM517 -9q-60 0 -96.5 37.5t-36.5 110.5q0 72 37 113.5
t96 41.5t95 -38.5t36 -114.5q0 -70 -36.5 -110t-94.5 -40zM520 42q45 0 45 95q0 105 -52 105q-24 0 -35 -23.5t-11 -78.5q0 -98 53 -98z" />
    <glyph glyph-name="ampersand" unicode="&#x26;" horiz-adv-x="689" 
d="M195 459q0 -52 64 -124q79 53 79 124q0 36 -18 58.5t-52 22.5q-35 0 -54 -22.5t-19 -58.5zM240 194q-48 43 -77 77q-23 -40 -23 -87q0 -50 30.5 -86.5t88.5 -36.5t109 30q-68 47 -128 103zM672 27v-27h-155q-33 15 -94 53q-84 -61 -203 -61q-92 0 -145.5 43t-53.5 109
q0 112 118 156q-55 73 -55 127q0 69 52.5 117t137.5 48q82 0 130.5 -36t48.5 -97q0 -50 -48 -90.5t-124 -56.5q31 -31 57 -52q48 -43 116 -92q42 57 64 131l-64 21v39h219v-42l-66 -17q-52 -104 -103 -168q96 -66 168 -105z" />
    <glyph glyph-name="quotesingle" unicode="'" horiz-adv-x="206" 
d="M53 388v228h105l-22 -228h-83z" />
    <glyph glyph-name="parenleft" unicode="(" horiz-adv-x="290" 
d="M221 -186q-31 26 -61.5 63t-64.5 92.5t-55 131t-21 157.5q0 83 23.5 159.5t60 130t64.5 85.5t54 52l42 -41q-22 -20 -47 -51t-54.5 -80t-48.5 -116.5t-19 -137.5q0 -72 18.5 -141t48.5 -121t54 -84.5t47 -56.5z" />
    <glyph glyph-name="parenright" unicode=")" horiz-adv-x="290" 
d="M69 -186l-41 42q23 24 47 57t53.5 85t48 121t18.5 141q0 70 -19 137t-48.5 116t-54.5 80t-47 51l42 42q26 -21 54 -52.5t65 -85.5t60.5 -130t23.5 -159q0 -82 -21 -158t-55 -131.5t-64.5 -92.5t-61.5 -63z" />
    <glyph glyph-name="asterisk" unicode="*" horiz-adv-x="375" 
d="M336 433l-8 -43l-34 -32l-94 88l29 -124l-42 -14l-42 14l23 124l-88 -88l-31 31l-10 44l116 35l-117 38l10 44l34 30l90 -87l-27 125l42 10l43 -10l-32 -126l96 88l36 -30l6 -45l-123 -36z" />
    <glyph glyph-name="plus" unicode="+" horiz-adv-x="498" 
d="M455 254l-167 1l2 -180h-85l2 180l-167 -1v79l167 -1l-2 180h85l-2 -180l167 1v-79z" />
    <glyph glyph-name="comma" unicode="," horiz-adv-x="297" 
d="M235 43q0 -61 -45 -128.5t-116 -109.5l-31 31q30 29 52 68t22 72q0 43 -47 69q0 31 25.5 56.5t59.5 25.5q37 0 58.5 -24t21.5 -60z" />
    <glyph glyph-name="hyphen" unicode="-" horiz-adv-x="332" 
d="M282 198h-232v85h232v-85z" />
    <glyph glyph-name="period" unicode="." horiz-adv-x="242" 
d="M119 -28q-21 16 -41.5 36.5t-29.5 33.5l-10 12q41 48 81 82q57 -47 82 -82q-14 -21 -34.5 -41.5t-34.5 -30.5z" />
    <glyph glyph-name="slash" unicode="/" horiz-adv-x="294" 
d="M294 664l-212 -750h-83l213 750h82z" />
    <glyph glyph-name="zero" unicode="0" horiz-adv-x="532" 
d="M498 278q0 -124 -64.5 -204.5t-173.5 -80.5q-111 0 -168.5 72.5t-57.5 195.5q0 130 64 214t175 84q62 0 106.5 -22t70 -62t37 -89t11.5 -108zM272 48q49 0 67 58t18 167q0 100 -24.5 165t-72.5 65q-46 0 -67.5 -65.5t-21.5 -172.5q0 -217 101 -217z" />
    <glyph glyph-name="one" unicode="1" horiz-adv-x="405" 
d="M35 0v43l111 30v382h-123v43l195 55h61v-481l108 -28v-44h-352z" />
    <glyph glyph-name="two" unicode="2" horiz-adv-x="463" 
d="M435 157l-9 -157h-399l-11 65q60 52 97 86.5t79 81t62.5 87t20.5 76.5q0 44 -23 72t-61 28q-70 0 -104 -95h-54v97q74 59 183 59q86 0 141 -40.5t55 -116.5q0 -78 -81.5 -160.5t-203.5 -143.5l1 -7h225l47 77z" />
    <glyph glyph-name="three" unicode="3" horiz-adv-x="446" 
d="M32 134h51q32 -85 109 -85q41 0 67 25t26 65q0 104 -160 107v53q58 5 97.5 37.5t39.5 79.5q0 41 -22 64.5t-58 23.5q-63 0 -92 -85h-53v84q67 55 164 55q83 0 138.5 -33.5t55.5 -93.5q0 -47 -39 -81t-90 -44v-4q66 -8 107.5 -48t41.5 -89q0 -80 -66.5 -126t-157.5 -46
q-87 0 -159 31v110z" />
    <glyph glyph-name="four" unicode="4" horiz-adv-x="470" 
d="M443 128h-67v-128h-132v128h-226l-14 74l264 352h108v-338h78zM84 216h160v218z" />
    <glyph glyph-name="five" unicode="5" horiz-adv-x="451" 
d="M30 120h52q33 -71 98 -71q45 0 73 30t28 81q0 105 -154 105q-35 0 -72 -6l25 291h329l-14 -104l-269 3l-6 -106q30 5 69 5q103 0 165 -44t62 -131q0 -48 -23.5 -84.5t-61 -56.5t-77.5 -30t-80 -10q-66 0 -144 29v99z" />
    <glyph glyph-name="six" unicode="6" horiz-adv-x="493" 
d="M246 -8q-104 0 -158.5 70.5t-54.5 178.5q0 137 71 226.5t188 89.5q78 0 142 -24v-93l-57 2q-34 58 -91 58q-50 0 -79.5 -51.5t-37.5 -138.5q57 42 123 42q78 0 126.5 -42t48.5 -117q0 -84 -60 -142.5t-161 -58.5zM251 51q37 0 59 31t22 89q0 50 -25 77t-70 27
q-37 0 -71 -13v-9q0 -95 22 -148.5t63 -53.5z" />
    <glyph glyph-name="seven" unicode="7" horiz-adv-x="394" 
d="M44 0v23l260 423h-296l17 102h369l12 -35l-243 -513h-119z" />
    <glyph glyph-name="eight" unicode="8" horiz-adv-x="522" 
d="M253 -7q-102 0 -157 34t-55 101q0 45 32 80t84 55q-95 62 -95 140q0 63 57.5 108.5t139.5 45.5q92 0 150 -34t58 -99q0 -44 -34.5 -75.5t-92.5 -45.5q67 -33 103.5 -66t36.5 -82q0 -68 -67.5 -115t-159.5 -47zM308 318q30 42 30 96q0 41 -19 65t-57 24q-29 0 -48.5 -20
t-19.5 -50q0 -36 29.5 -62t84.5 -53zM254 47q36 0 60.5 20.5t24.5 56.5q0 14 -8 26.5t-25.5 25.5t-32.5 22t-43 24t-43 23q-25 -44 -25 -101q0 -46 26 -71.5t66 -25.5z" />
    <glyph glyph-name="nine" unicode="9" horiz-adv-x="493" 
d="M260 275q37 0 71 13v9q0 95 -22 148.5t-63 53.5q-37 0 -59 -31t-22 -89q0 -50 25 -77t70 -27zM251 558q104 0 158.5 -70.5t54.5 -178.5q0 -137 -71 -226.5t-188 -89.5q-78 0 -142 24v93l57 -2q34 -58 91 -58q50 0 79.5 51.5t37.5 138.5q-57 -42 -123 -42q-78 0 -126.5 42
t-48.5 117q0 84 60 142.5t161 58.5z" />
    <glyph glyph-name="colon" unicode=":" horiz-adv-x="305" 
d="M154 337q-21 16 -41.5 36.5t-30.5 32.5l-9 13q41 48 81 82q57 -47 82 -82q-14 -21 -34.5 -41.5t-33.5 -30.5zM154 -23q-21 16 -41.5 36.5t-30.5 32.5l-9 13q41 48 81 82q57 -47 82 -82q-14 -21 -34.5 -41.5t-33.5 -30.5z" />
    <glyph glyph-name="semicolon" unicode=";" horiz-adv-x="297" 
d="M81 383q0 33 23 57t58 24q36 0 58.5 -23.5t22.5 -57.5q0 -30 -22.5 -53t-58.5 -23q-35 0 -58 23t-23 53zM243 43q0 -61 -45 -128.5t-116 -109.5l-31 31q30 29 52 68t22 72q0 43 -47 69q0 31 25.5 56.5t59.5 25.5q37 0 58.5 -24t21.5 -60z" />
    <glyph glyph-name="less" unicode="&#x3c;" horiz-adv-x="495" 
d="M136 293l305 -151l-31 -60l-371 189v40l371 202l32 -60z" />
    <glyph glyph-name="equal" unicode="=" horiz-adv-x="514" 
d="M459 348h-402v80h402v-80zM459 163h-402v80h402v-80z" />
    <glyph glyph-name="greater" unicode="&#x3e;" horiz-adv-x="495" 
d="M54 142l305 151l-306 161l32 59l370 -202v-40l-370 -189z" />
    <glyph glyph-name="question" unicode="?" horiz-adv-x="385" 
d="M363 450q0 -33 -15.5 -62t-41.5 -49t-49 -32.5t-47 -21.5l-13 -80h-76l-14 109q121 52 121 140q0 40 -18 66t-49 26q-26 0 -50 -13l-29 -98h-55v123q71 34 156 34q80 0 130 -34.5t50 -107.5zM161 -8q-35 0 -58 23t-23 53q0 33 23 57t58 24q36 0 58.5 -23.5t22.5 -57.5
q0 -30 -22.5 -53t-58.5 -23z" />
    <glyph glyph-name="at" unicode="@" horiz-adv-x="883" 
d="M464 5l26 147l-161 -160h-58q-13 45 -13 111q0 77 16 152.5t45 113.5q32 42 65 65.5t79 23.5q47 0 103 -28l24 29h42l-65 -387l10 -7q212 94 212 234q0 124 -87.5 206t-227.5 82q-153 0 -255 -104t-102 -264q0 -165 93 -262t263 -97q65 0 135 26.5t120 68.5h15l-1 -50
q-138 -106 -294 -106q-181 0 -298.5 108.5t-117.5 289.5q0 123 63.5 226.5t171.5 163t234 59.5q154 0 256 -93.5t102 -236.5q0 -60 -31 -114.5t-82 -95.5t-106.5 -70.5t-116.5 -50.5zM363 99l138 120l26 143q-83 44 -123 35q-27 -36 -43 -102.5t-16 -138.5q0 -26 3 -52z" />
    <glyph glyph-name="A" unicode="A" horiz-adv-x="618" 
d="M283 445l-75 -203h148l-68 203h-5zM356 0v42l62 17l-44 131h-185l-47 -127l77 -20v-43h-221v42l62 18l218 528h95l190 -528l57 -17v-43h-264z" />
    <glyph glyph-name="B" unicode="B" horiz-adv-x="593" 
d="M26 539v44h280q102 0 164.5 -39t62.5 -109q0 -48 -29 -81t-75 -49v-2q17 -2 32.5 -6t36 -14t35 -24t24.5 -38t10 -55q0 -75 -61.5 -120.5t-174.5 -45.5h-305v43l84 25v444zM246 326h30q115 0 115 101q0 53 -33 77t-85 24h-27v-202zM246 59h39q143 0 143 104
q0 28 -8.5 48.5t-22 32t-35 18t-42 8.5t-47.5 2h-27v-213z" />
    <glyph glyph-name="C" unicode="C" horiz-adv-x="584" 
d="M552 405h-68l-42 122q-29 10 -64 10q-91 0 -146 -63.5t-55 -178.5q0 -117 54 -182t155 -65q81 0 127 69h39v-85q-77 -40 -187 -40q-95 0 -169 27.5t-122 94t-48 166.5q0 145 97 228.5t251 83.5q93 0 178 -33v-154z" />
    <glyph glyph-name="D" unicode="D" horiz-adv-x="676" 
d="M26 0v43l84 25v444l-84 27v44h280q61 0 109.5 -6.5t95 -25t78 -49t50.5 -80t19 -116.5q0 -146 -97 -226t-250 -80h-285zM246 60h51q103 0 156.5 50t53.5 181q0 118 -52 176t-161 58h-48v-465z" />
    <glyph glyph-name="E" unicode="E" horiz-adv-x="545" 
d="M447 256l-201 9v-206h159l67 110l55 -8l-24 -161h-477v43l84 25v444l-84 27v44h477v-150h-66l-34 92h-157v-203l201 9v-75z" />
    <glyph glyph-name="F" unicode="F" horiz-adv-x="500" 
d="M26 0v43l84 25v444l-84 27v44h471v-150h-66l-35 92h-150v-212l201 9v-76l-201 10v-185l95 -27v-44h-315z" />
    <glyph glyph-name="G" unicode="G" horiz-adv-x="619" 
d="M489 405l-39 121q-36 11 -75 11q-85 0 -141.5 -64.5t-56.5 -177.5t54.5 -179t154.5 -66q22 0 50 5v167l-81 25v43h210v-258q-26 -15 -84.5 -27.5t-115.5 -12.5q-146 0 -242.5 73t-96.5 215t97.5 227t250.5 85q107 0 183 -33v-154h-68z" />
    <glyph glyph-name="H" unicode="H" horiz-adv-x="727" 
d="M401 0v43l84 25v202h-241v-201l82 -25v-44h-300v43l84 26v443l-84 27v44h300v-43l-82 -25v-191h241v188l-84 27v44h300v-43l-82 -25v-445l82 -26v-44h-300z" />
    <glyph glyph-name="I" unicode="I" horiz-adv-x="372" 
d="M35 0v43l84 25v444l-84 27v44h302v-43l-82 -25v-446l82 -25v-44h-302z" />
    <glyph glyph-name="J" unicode="J" horiz-adv-x="433" 
d="M162 -8q-89 0 -157 25v174h48l34 -126q32 -12 57 -12q26 0 46 24t20 78v357l-84 27v44h303v-43l-82 -25v-357q0 -73 -56 -119.5t-129 -46.5z" />
    <glyph glyph-name="K" unicode="K" horiz-adv-x="644" 
d="M455 0l-196 276v21l198 222l-65 22v42h228v-46l-77 -22l-168 -178l203 -271l71 -23v-43h-194zM26 0v43l84 25v444l-84 27v44h302v-43l-82 -25v-446l82 -25v-44h-302z" />
    <glyph glyph-name="L" unicode="L" horiz-adv-x="527" 
d="M26 0v43l84 25v444l-84 27v44h302v-43l-82 -25v-456h150l81 132l49 -14l-29 -177h-471z" />
    <glyph glyph-name="M" unicode="M" horiz-adv-x="861" 
d="M571 0v43l69 20l-34 378h-5l-167 -449h-61l-170 451h-6l-31 -380l73 -19v-44h-230v43l82 21l43 448l-83 27v44h237l147 -392h6l140 392h231v-43l-82 -29l48 -450l71 -17v-44h-278z" />
    <glyph glyph-name="N" unicode="N" horiz-adv-x="685" 
d="M22 0v43l75 28v438l-76 30v44h200l293 -386h5v311l-91 31v44h239v-43l-71 -26v-522h-90l-329 432h-4v-351l98 -29v-44h-249z" />
    <glyph glyph-name="O" unicode="O" horiz-adv-x="660" 
d="M634 314q0 -137 -85 -229.5t-226 -92.5q-134 0 -215.5 76.5t-81.5 206.5q0 142 87 229.5t226 87.5q136 0 215.5 -74t79.5 -204zM326 50q156 0 156 245q0 114 -37.5 177t-112.5 63q-155 0 -155 -239q0 -113 37.5 -179.5t111.5 -66.5z" />
    <glyph glyph-name="P" unicode="P" horiz-adv-x="561" 
d="M26 0v43l84 25v444l-84 27v44h310q101 0 159 -46t58 -138q0 -83 -65.5 -131.5t-191.5 -48.5h-50v-150l82 -25v-44h-302zM246 278h29q66 1 99 29t33 90q0 123 -127 126h-34v-245z" />
    <glyph glyph-name="Q" unicode="Q" horiz-adv-x="660" 
d="M634 314q0 -103 -49.5 -183.5t-137.5 -115.5l194 -104v-24h-190l-79 109q-32 -4 -49 -4q-134 0 -215.5 76.5t-81.5 206.5q0 142 87 229.5t226 87.5q136 0 215.5 -74t79.5 -204zM326 50q156 0 156 245q0 114 -37.5 177t-112.5 63q-155 0 -155 -239q0 -113 37.5 -179.5
t111.5 -66.5z" />
    <glyph glyph-name="R" unicode="R" horiz-adv-x="623" 
d="M272 526h-26v-217h9q139 2 139 107q0 107 -122 110zM440 0l-137 250h-57v-181l82 -25v-44h-302v43l84 25v444l-84 27v44h307q94 0 151 -42.5t57 -122.5q0 -115 -115 -151l126 -198l73 -27v-42h-185z" />
    <glyph glyph-name="S" unicode="S" horiz-adv-x="483" 
d="M374 405l-26 97q-46 28 -100 28q-46 0 -73.5 -21.5t-27.5 -59.5q0 -18 8.5 -31.5t27.5 -24.5t36 -18t47 -17l9 -3q42 -14 66.5 -25.5t55 -33t45.5 -53.5t15 -75q0 -89 -67.5 -132.5t-175.5 -43.5q-95 0 -188 38v159h59l27 -101q60 -36 117 -36q48 0 77.5 22t29.5 65
q0 14 -7 26t-15.5 20t-27.5 17t-31 14t-38 14t-38 14q-65 25 -103.5 62.5t-38.5 104.5q0 84 61.5 132.5t155.5 48.5q107 0 179 -37v-150h-59z" />
    <glyph glyph-name="T" unicode="T" horiz-adv-x="552" 
d="M124 0v43l84 25v456h-96l-50 -123h-54v182h536v-182h-54l-52 123h-94v-454l83 -26v-44h-303z" />
    <glyph glyph-name="U" unicode="U" horiz-adv-x="669" 
d="M339 -8q-122 0 -187.5 52t-65.5 157v312l-77 26v44h295v-43l-74 -23v-309q0 -78 37.5 -117t102.5 -39q68 0 103 45t35 132v280l-97 30v44h248v-43l-75 -29v-285q0 -62 -21 -109t-57 -73.5t-78 -39t-89 -12.5z" />
    <glyph glyph-name="V" unicode="V" horiz-adv-x="607" 
d="M253 -3l-201 521l-56 21v44h267v-43l-61 -19l125 -359h6l128 353l-67 24v44h217v-43l-64 -26l-217 -517h-77z" />
    <glyph glyph-name="W" unicode="W" horiz-adv-x="919" 
d="M292 -3h-83l-161 523l-52 19v44h273v-43l-77 -23l94 -346h6l144 412h89l145 -413h6l101 343l-77 26v44h223v-43l-60 -24l-187 -519h-87l-137 405h-6z" />
    <glyph glyph-name="X" unicode="X" horiz-adv-x="601" 
d="M328 0v43l43 15l-109 172l-97 -158l75 -28v-44h-229v43l57 21l157 224l-145 228l-62 23v44h260v-43l-51 -18l102 -158l101 150l-61 25v44h213v-43l-65 -26l-152 -206l155 -240l71 -24v-44h-263z" />
    <glyph glyph-name="Y" unicode="Y" horiz-adv-x="580" 
d="M138 0v43l84 25v159l-166 291l-57 21v44h267v-43l-70 -22l120 -226h5l113 222l-70 25v44h217v-43l-57 -23l-166 -288v-160l82 -25v-44h-302z" />
    <glyph glyph-name="Z" unicode="Z" horiz-adv-x="516" 
d="M21 0l-8 37l304 481h-189l-42 -117h-53v182h448l10 -30l-319 -488h207l66 112l50 -7l-18 -170h-456z" />
    <glyph glyph-name="bracketleft" unicode="[" horiz-adv-x="268" 
d="M230 -181h-150v860h150v-67h-69v-727h69v-66z" />
    <glyph glyph-name="backslash" unicode="\" horiz-adv-x="293" 
d="M202 -88l-193 750h82l191 -750h-80z" />
    <glyph glyph-name="bracketright" unicode="]" horiz-adv-x="268" 
d="M187 -181h-149v66h69v727h-69v67h149v-860z" />
    <glyph glyph-name="asciicircum" unicode="^" horiz-adv-x="449" 
d="M415 235h-87l-99 264l-112 -264h-85l160 348h79z" />
    <glyph glyph-name="underscore" unicode="_" horiz-adv-x="466" 
d="M466 -159h-466v79h466v-79z" />
    <glyph glyph-name="grave" unicode="`" horiz-adv-x="401" 
d="M99 635l64 72l139 -155l-32 -36z" />
    <glyph glyph-name="a" unicode="a" horiz-adv-x="485" 
d="M288 86l1 112h-44q-96 0 -96 -63q0 -30 22 -46t57 -16q23 0 60 13zM130 305h-80v121q35 15 89.5 26.5t99.5 11.5q79 0 124.5 -36t45.5 -108v-248l63 -29v-43h-162l-19 57q-24 -25 -63.5 -45t-83.5 -20q-53 0 -88 30.5t-35 85.5q0 65 62.5 105t160.5 40h45v55
q0 47 -24.5 74t-63.5 27q-16 0 -39 -7z" />
    <glyph glyph-name="b" unicode="b" horiz-adv-x="527" 
d="M66 29v591h-78v44l140 39h59v-281q66 42 134 42q89 0 137 -55.5t48 -166.5q0 -112 -77.5 -181t-182.5 -69q-110 0 -180 37zM240 59q68 0 101 49t33 129q0 74 -35 115.5t-91 41.5q-31 0 -61 -10v-315q30 -10 53 -10z" />
    <glyph glyph-name="c" unicode="c" horiz-adv-x="456" 
d="M350 284l-39 122q-15 4 -35 4q-58 0 -93.5 -44t-35.5 -120q0 -79 43 -127t106 -48q59 0 126 32l14 -24q-23 -33 -77 -60t-113 -27q-104 0 -165 60.5t-61 164.5q0 108 67.5 177.5t165.5 69.5q101 0 177 -43v-137h-80z" />
    <glyph glyph-name="d" unicode="d" horiz-adv-x="537" 
d="M271 76q28 0 68 14v309q-30 9 -64 9q-56 0 -91.5 -41t-35.5 -125q0 -77 34.5 -121.5t88.5 -44.5zM460 72l64 -29v-43h-163l-16 57q-55 -65 -141 -65q-81 0 -132.5 57.5t-51.5 163.5q0 111 69.5 181t167.5 70q40 0 82 -15v171h-78v44l140 39h59v-631z" />
    <glyph glyph-name="e" unicode="e" horiz-adv-x="480" 
d="M463 230h-311q1 -77 44.5 -118t110.5 -41t132 31l15 -23q-27 -34 -85.5 -60.5t-118.5 -26.5q-106 0 -166 58.5t-60 166.5q0 111 68.5 179t167.5 68q97 0 149 -60.5t54 -173.5zM154 282l176 7q-5 118 -84 118q-35 0 -60 -30.5t-32 -94.5z" />
    <glyph glyph-name="f" unicode="f" horiz-adv-x="340" 
d="M29 0v42l71 25v320h-81v50l81 19v51q0 91 65.5 145.5t160.5 54.5q38 0 61 -6l-12 -104h-22l-101 41q-32 -39 -32 -103v-80h98v-68h-98v-317l75 -27v-43h-266z" />
    <glyph glyph-name="g" unicode="g" horiz-adv-x="515" 
d="M309 310q0 49 -20.5 74t-54.5 25q-33 0 -51.5 -23.5t-18.5 -64.5q0 -43 19.5 -67.5t56.5 -24.5q69 0 69 81zM243 176q-16 0 -44 2l-28 -51l116 -12q99 -10 147.5 -44.5t48.5 -98.5q0 -73 -78 -131.5t-193 -58.5q-99 0 -151 36t-52 94q0 71 101 124l-51 8v61l86 84
q-103 32 -103 124q0 66 57 108.5t138 42.5q102 0 158 -48l83 45h27v-82h-81q16 -30 16 -64q0 -59 -59.5 -99t-137.5 -40zM243 -155q56 0 90.5 24t34.5 63q0 33 -25 52t-88 29l-102 16q-31 -45 -31 -94q0 -40 31 -65t90 -25z" />
    <glyph glyph-name="h" unicode="h" horiz-adv-x="594" 
d="M18 0v42l71 25v553h-79v44l140 39h60v-304q81 65 171 65q63 0 98.5 -43t35.5 -124v-229l68 -25v-43h-260v42l71 26v199q0 110 -98 110q-39 0 -86 -18v-290l67 -26v-43h-259z" />
    <glyph glyph-name="i" unicode="i" horiz-adv-x="304" 
d="M84 614q0 32 21 50.5t55 18.5q36 0 56 -18t20 -51t-20 -51t-56 -18q-34 0 -55 18.5t-21 50.5zM24 0v42l72 25v312h-79v44l148 41h51v-394l74 -27v-43h-266z" />
    <glyph glyph-name="j" unicode="j" horiz-adv-x="291" 
d="M84 614q0 32 21 50.5t55 18.5q36 0 56 -18t20 -51t-20 -51t-56 -18q-34 0 -55 18.5t-21 50.5zM216 29q0 -67 -38 -136.5t-105 -110.5l-39 32q62 76 62 190v375h-79v44l148 41h51v-435z" />
    <glyph glyph-name="k" unicode="k" horiz-adv-x="536" 
d="M18 0v42l72 26v552h-79v44l140 39h60v-636l67 -24v-43h-260zM533 0h-173l-132 231v20l123 133l-70 31v40h228v-41l-56 -31l-120 -110l131 -200l69 -31v-42z" />
    <glyph glyph-name="l" unicode="l" horiz-adv-x="295" 
d="M18 0v42l72 25v553h-79v44l140 39h60v-634l73 -26v-43h-266z" />
    <glyph glyph-name="m" unicode="m" horiz-adv-x="882" 
d="M613 0v42l69 25v200q0 111 -98 111q-36 0 -79 -18q7 -32 7 -63v-229l66 -25v-43h-254v42l67 24v201q0 111 -98 111q-34 0 -77 -17v-292l67 -26v-43h-259v42l72 25v312h-79v44l142 41h35l19 -62q80 62 165 62q82 0 115 -71q86 71 177 71q63 0 98.5 -43t35.5 -124v-229
l69 -25v-43h-260z" />
    <glyph glyph-name="n" unicode="n" horiz-adv-x="598" 
d="M24 0v42l72 25v312h-79v44l142 41h35l20 -66q82 66 171 66q64 0 100 -42t36 -125v-229l68 -25v-43h-260v42l71 26v199q0 111 -98 111q-37 0 -86 -19v-290l67 -26v-43h-259z" />
    <glyph glyph-name="o" unicode="o" horiz-adv-x="510" 
d="M485 225q0 -106 -70.5 -169.5t-164.5 -63.5q-226 0 -226 228q0 108 71.5 176t162.5 68q106 0 166.5 -57.5t60.5 -181.5zM259 50q94 0 94 163q0 198 -105 198q-54 0 -73.5 -46.5t-19.5 -125.5q0 -189 104 -189z" />
    <glyph glyph-name="p" unicode="p" horiz-adv-x="550" 
d="M271 389q-32 0 -62 -11v-313q25 -8 56 -8q66 0 98.5 48t32.5 127q0 76 -34.5 116.5t-90.5 40.5zM14 -208v42l75 27v518h-79v44l142 41h35l14 -48q70 48 141 48q89 0 138 -55.5t49 -166.5q0 -112 -77.5 -181t-182.5 -69q-35 0 -60 4v-134l71 -27v-43h-266z" />
    <glyph glyph-name="q" unicode="q" horiz-adv-x="524" 
d="M260 -208v42l79 29v188q-57 -59 -135 -59q-81 0 -132.5 58t-51.5 163q0 119 73 185t175 66q97 0 191 -23v-581l67 -25v-43h-266zM272 78q28 0 67 12v297q-34 18 -69 18q-120 0 -120 -161q0 -83 33.5 -124.5t88.5 -41.5z" />
    <glyph glyph-name="r" unicode="r" horiz-adv-x="399" 
d="M29 0v42l67 23v314h-79v44l142 41h35l15 -49q74 49 137 49q26 0 46 -5l-18 -122h-22l-102 48h-34v-313l79 -29v-43h-266z" />
    <glyph glyph-name="s" unicode="s" horiz-adv-x="431" 
d="M201 -8q-72 0 -169 25v131h75l27 -84q34 -19 76 -19q35 0 58 15t23 44q0 28 -26.5 45t-64.5 28t-75.5 24.5t-64 44t-26.5 77.5q0 66 56 103.5t140 37.5q96 0 160 -30v-112h-71l-25 72q-32 17 -70 17q-33 0 -55.5 -13.5t-22.5 -40.5q0 -30 26.5 -47.5t65 -27t76.5 -22
t64.5 -43t26.5 -79.5q0 -66 -58.5 -106t-145.5 -40z" />
    <glyph glyph-name="t" unicode="t" horiz-adv-x="377" 
d="M357 71l8 -47q-67 -32 -139 -32q-150 0 -149 149v245h-66v45l70 24l40 122h78v-122h150v-69h-150v-242q1 -83 93 -83q30 0 65 10z" />
    <glyph glyph-name="u" unicode="u" horiz-adv-x="578" 
d="M400 0l-15 57q-80 -65 -167 -65q-63 0 -98 41.5t-35 123.5v222h-79v44l149 41h52v-263q0 -121 92 -121q39 0 79 15v284h-79v44l148 41h52v-392l63 -29v-43h-162z" />
    <glyph glyph-name="v" unicode="v" horiz-adv-x="534" 
d="M539 455v-41l-72 -30l-158 -387h-105l-150 394l-59 22v42h257v-41l-63 -23l83 -280h8l102 276l-55 26v42h212z" />
    <glyph glyph-name="w" unicode="w" horiz-adv-x="806" 
d="M496 -3l-94 299h-5l-104 -299h-105l-136 394l-57 22v42h257v-41l-66 -24l76 -283h5l113 348h88l103 -348h4l87 276l-63 30v42h211v-41l-61 -26l-146 -391h-107z" />
    <glyph glyph-name="x" unicode="x" horiz-adv-x="544" 
d="M536 0h-256v42l42 15l-81 124l-78 -113l54 -25v-43h-211v42l63 26l138 160l-130 159l-67 26v42h257v-41l-54 -20l77 -111l84 107l-49 23v42h212v-41l-80 -34l-132 -144l132 -164l79 -29v-43z" />
    <glyph glyph-name="y" unicode="y" horiz-adv-x="534" 
d="M252 455v-41l-63 -23l92 -289h6l97 284l-57 27v42h212v-41l-72 -30l-152 -371l-64 -221h-122v34l86 154l-159 410l-61 23v42h257z" />
    <glyph glyph-name="z" unicode="z" horiz-adv-x="458" 
d="M437 169l-20 -169h-390l-12 39l249 357h-136l-69 -87l-34 4l13 142h373l16 -39l-246 -357h147l76 117z" />
    <glyph glyph-name="braceleft" unicode="{" horiz-adv-x="284" 
d="M229 -180q-77 -3 -123.5 31.5t-38.5 114.5l16 189q3 30 -12.5 50t-49.5 20v56q34 0 49.5 20t12.5 51l-16 194q-6 73 35.5 105t116.5 31h40v-65h-34q-45 0 -64.5 -14.5t-15.5 -50.5l15 -189q9 -83 -58 -111q27 -9 43.5 -39.5t13.5 -65.5l-16 -186q-3 -37 15.5 -53
t66.5 -16h34v-70z" />
    <glyph glyph-name="bar" unicode="|" horiz-adv-x="209" 
d="M145 -92h-80v767h80v-767z" />
    <glyph glyph-name="braceright" unicode="}" horiz-adv-x="284" 
d="M55 -180l-30 2v70h34q47 0 66 16.5t16 52.5l-17 186q-2 36 14 66t43 39q-65 28 -58 111l16 189q4 36 -15.5 50.5t-64.5 14.5h-34l-1 65h41q74 1 116 -31t36 -105l-16 -194q-3 -31 12.5 -51t49.5 -20v-56q-35 0 -50 -20t-12 -50l16 -189q7 -80 -39.5 -114.5t-122.5 -31.5z
" />
    <glyph glyph-name="asciitilde" unicode="~" horiz-adv-x="443" 
d="M411 288q-43 -51 -106 -51q-40 0 -93 22t-82 22q-30 0 -72 -27l-27 42q49 54 104 54q43 0 92 -22.5t82 -22.5q37 0 73 27z" />
    <glyph glyph-name="uni00A0" unicode="&#xa0;" horiz-adv-x="206" 
 />
    </font>
</defs>
</svg>
